<?xml version="1.0" encoding="UTF-8"?>
<svg id="Layer_1" data-name="Layer 1" xmlns="http://www.w3.org/2000/svg" xmlns:xlink="http://www.w3.org/1999/xlink" viewBox="0 0 89.84 88.21">
  <defs>
    <style>
      .cls-1 {
        fill: none;
      }

      .cls-1, .cls-2 {
        stroke-width: 0px;
      }

      .cls-2 {
        fill: #fff;
      }

      .cls-3 {
        clip-path: url(#clippath);
      }
    </style>
    <clipPath id="clippath">
      <rect class="cls-1" x="1.84" y=".21" width="88" height="88" rx="8.24" ry="8.24"/>
    </clipPath>
  </defs>
  <g class="cls-3">
    <g>
      <g>
        <path class="cls-2" d="m83.93,31.93h-6.11c-.67-4.68-4.47-7.67-10.99-7.67s-14.35,2.99-21.33,7.67c-.08.05-.16.11-.24.16.07-.05.14-.11.22-.16,8.33-6.11,18.07-10.12,26.05-10.12s12.32,4.01,12.4,10.12Z"/>
        <path class="cls-2" d="m64.42,57.27c-7.93,5.43-16.91,8.92-24.35,8.92-8.05,0-12.4-4.08-12.41-10.28.61,4.77,4.42,7.82,11.01,7.82,5.94,0,12.97-2.48,19.46-6.47h6.29Z"/>
      </g>
      <g>
        <polygon class="cls-2" points="72.98 34.33 63.87 46.13 69.41 46.13 64.98 55.35 59.96 55.35 55.55 42.2 53.25 55.35 48.58 55.35 52.3 34.07 57.44 34.07 61.83 47.26 64.13 34.07 73.19 34.07 72.98 34.33"/>
        <polygon class="cls-2" points="77.17 38.77 76.61 41.51 83.76 41.51 82.91 46.24 75.75 46.24 75.1 50.66 84.09 50.66 83.26 55.35 65.94 55.35 70.29 49.72 72.54 46.81 75.26 43.29 69.72 43.29 72.39 37.74 74.15 34.07 86.98 34.07 86.15 38.77 77.17 38.77"/>
      </g>
      <g>
        <g>
          <polygon class="cls-2" points="41.73 45.26 38.46 50.93 41.02 55.37 47.57 55.37 41.73 45.26"/>
          <polygon class="cls-2" points="38.61 38.71 41.73 44.13 47.57 34.02 41.02 34.02 38.46 38.46 38.61 38.71"/>
          <polygon class="cls-2" points="41.44 44.64 38.17 38.97 35.31 34.02 28.76 34.02 34.89 44.64 34.86 44.69 34.89 44.75 28.76 55.37 35.31 55.37 38.17 50.42 41.44 44.75 41.41 44.69 41.44 44.64"/>
        </g>
        <g>
          <path class="cls-2" d="m26.18,33.28c-2.93-2.93-6.98-4.75-11.43-4.75H4.69l1.59,9.57h8.47c3.59,0,6.61,3.03,6.61,6.61s-3.03,6.61-6.61,6.61H6.28l-1.59,9.57h10.07c8.9,0,16.19-7.28,16.19-16.19,0-4.45-1.82-8.5-4.76-11.43Z"/>
          <path class="cls-2" d="m11.75,35.5l-7.03-6.98-.03-.03v.03s1.6,9.57,1.6,9.57l.4,2.39c.46,2.77.46,5.61,0,8.38l-.41,2.45-1.59,9.57,6.98-6.93c10.98-10.15.08-18.46.08-18.46Z"/>
        </g>
      </g>
    </g>
  </g>
</svg>