<?xml version="1.0" encoding="utf-8"?>
<!-- Generator: Adobe Illustrator 28.0.0, SVG Export Plug-In . SVG Version: 6.00 Build 0)  -->
<svg version="1.1" id="Layer_1" xmlns="http://www.w3.org/2000/svg" xmlns:xlink="http://www.w3.org/1999/xlink" x="0px" y="0px"
	 viewBox="0 0 88 88" style="enable-background:new 0 0 88 88;" xml:space="preserve">
<style type="text/css">
	.st0{clip-path:url(#SVGID_00000173150025080149783950000017991866140430380187_);}
	.st1{fill:#FFFFFF;}
</style>
<g>
	<defs>
		<path id="SVGID_1_" d="M79.4,88.2H7.9c-4.5,0-8.2-3.7-8.2-8.2V8.5c0-4.5,3.7-8.2,8.2-8.2h71.5c4.5,0,8.2,3.7,8.2,8.2V80
			C87.6,84.5,83.9,88.2,79.4,88.2z"/>
	</defs>
	<clipPath id="SVGID_00000081606746319382046120000015722798585979097748_">
		<use xlink:href="#SVGID_1_"  style="overflow:visible;"/>
	</clipPath>
	<g id="Layer_1-2" style="clip-path:url(#SVGID_00000081606746319382046120000015722798585979097748_);">
		<g>
			<path class="st1" d="M57.1,33.5c-1.7,4.1-3.2,8-4.8,11.9c-1.2,3-2.5,6-3.7,9c-0.1,0.3-0.2,0.5-0.4,0.6h4.7
				c0.5-1.3,0.9-2.5,1.4-3.7c0.1-0.2,0.2-0.4,0.3-0.4c1.2,0,2.4,0,3.6,0c0.1,0,0.3,0.2,0.3,0.4c0.1,0.1,0,0.3,0,0.4
				c0.2,2.1,0.2,3-0.5,3.3H63V33.5H57.1L57.1,33.5z M55.7,47.2c1.1-3.1,2.2-6.2,3.2-9v9H55.7z"/>
			<path class="st1" d="M72.7,34.8c0.1-0.7,0.3-1.1,0.7-1.3h-5.1c-0.4,2.1-0.8,4.1-1.2,6.2c-0.9,4.9-1.9,9.7-2.8,14.6
				c-0.1,0.3-0.1,0.6-0.3,0.7h4.8c0.3-1.6,0.6-3.2,0.9-4.7C70.8,45.1,71.8,39.9,72.7,34.8L72.7,34.8z"/>
			<path class="st1" d="M84.4,47.9c-0.2-1-0.7-1.9-1.2-3c2-0.9,3.4-2.7,4-5c0.6-2.3,0.2-4.4-1.7-6.4H75.6
				c-1.4,7.2-2.8,14.3-4.1,21.4H76c0.5-2.6,0.9-5,1.4-7.4c0-0.3,0.4-0.7,0.6-0.7c0.5,0.1,1.2,0.2,1.5,0.6c0.4,0.5,0.5,1.2,0.6,1.8
				c0.1,1.7,0.1,3.4,0,5.2c0,0.2-0.1,0.4-0.3,0.5h5c-0.1-1.3-0.1-2.5-0.2-3.6C84.6,50.2,84.7,49,84.4,47.9L84.4,47.9z M81.9,41.3
				c-0.8,1.4-1.8,1.9-3.6,1.5c0.3-1.5,0.5-3,0.8-4.5c0.1-0.4,0.1-0.8,0.2-1.2c0.2-0.4,0.4-1.2,0.6-1.2c0.7,0,1.6,0.1,2.1,0.6
				C83.1,37.5,82.9,39.7,81.9,41.3L81.9,41.3z"/>
			<path class="st1" d="M20.5,38.9c-0.2-2.8,0.4-2.2-2.6-2.3c-0.6,0-0.9,0.2-1.1,0.8c-0.3,1.6-0.7,3.2-1.1,4.8
				c-0.3,1.3-0.5,2.6-0.8,3.9c-0.7-2.5-1.2-5-1.8-7.4c-0.6-2.6,0-2.1-2.7-2.2c-0.9,0-1.1,0.3-1.1,1.1c-0.3,4.4-0.6,8.7-1,13.1
				c0,0.6-0.2,1.2,0.7,1.2c1.7,0.1,2,0,2-1c0.2-2.7,0.3-5.4,0.4-8.1c0.6,2.6,1.3,5.2,1.8,7.8c0.2,0.8,0.5,1,1.3,1
				c0.7,0,1.3,0.1,1.5-0.9c0.5-2.6,1.2-5.1,1.8-7.7c0.1,2.3,0.2,4.5,0.3,6.7c0.1,2.4,0.4,2.6,2.9,2c0-0.6,0-1.2,0-1.8
				C21,46.3,20.9,42.6,20.5,38.9L20.5,38.9z"/>
			<path class="st1" d="M39.9,44.4c1.6-1.3,1.8-3.1,1.3-4.9c-0.4-1.6-1.7-2.5-3.3-2.6c-1.4-0.1-2.7,0-4.1,0c-0.9,0-1.1,0.4-1.1,1.2
				c0,4.3,0,8.7,0,13c0,0.3,0,0.6,0.1,1.1c0.6,0,1.1,0,1.6,0c1,0,1.5-0.5,1.5-1.5c0-1.5,0-3,0-4.5c1.2,0,1.5,0.6,1.7,1.4
				c0.3,1.2,0.4,2.5,0.7,3.7c0.1,0.3,0.3,0.8,0.5,0.8c1,0.1,1.9,0,3.1,0c-1.1-2.5-0.5-5.2-2.6-7.3C39.6,44.6,39.7,44.5,39.9,44.4
				L39.9,44.4z M36,43.4v-4.2c1.5-0.1,2.1,0.5,2.1,1.9C38.2,42.6,37.5,43.4,36,43.4z"/>
			<path class="st1" d="M26,36.6c-0.9,0-1.1,0.3-1.3,1.1c-0.5,2.6-1.1,5.2-1.7,7.8c-0.5,2.1-0.9,4.2-1.3,6.3c2.6,0.6,3,0.4,3.5-2
				c0-0.1,0.1-0.2,0.1-0.3c0-0.9,0.5-0.9,1.2-1c1.2-0.1,1.7,0.3,1.8,1.4c0,0.5,0.1,1,0.3,1.4c0.1,0.2,0.4,0.6,0.6,0.6
				c0.8,0.1,1.6,0,2.6,0c-0.9-4.5-1.7-8.7-2.5-13C28.7,36.6,28.6,36.6,26,36.6L26,36.6z M25.8,46c0.3-1.7,0.6-3.4,0.8-5
				c0.1,0,0.1,0,0.2,0c0.3,1.6,0.5,3.3,0.8,5H25.8L25.8,46z"/>
			<path class="st1" d="M5.2,43.1c-0.5-0.3-1.2-0.6-1.5-1.1c-0.4-0.5-0.7-1.3-0.5-1.7c0.2-0.5,1-0.9,1.5-0.9
				c0.6-0.1,1.3,0.2,2.1,0.3c0.1-0.7,0.3-1.4,0.4-2.1c0-0.2-0.2-0.6-0.4-0.7c-2.7-1.4-6.3,0.3-6.8,3.3c-0.4,2.1,0.6,3.5,2.2,4.7
				c0.6,0.4,1.2,0.8,1.7,1.2c0.7,0.6,1.2,1.3,0.7,2.2c-0.5,0.9-1.3,1-2.2,0.9c-0.7-0.1-1.4-0.3-2.2-0.5c0,0.2-0.1,0.4-0.1,0.6
				c-0.4,2.3-0.9,2.2,2,2.7c2.6,0.4,4.9-0.9,5.6-3C8.4,46.8,7.5,44.6,5.2,43.1z"/>
			<path class="st1" d="M49.3,39.6c0.8,0,1.2-0.2,1.1-1c0-0.3,0-0.6,0-0.9c0.1-0.8-0.3-1.1-1.1-1.1c-1.8,0-3.6,0-5.3,0
				c-2.4,0-2.5,0.2-2.2,2.6c0,0.1,0.1,0.2,0.1,0.4c0.3,0,0.6,0,1,0c1,0,1.5,0.5,1.5,1.5c0,3.3,0,6.5,0,9.8c0,0.9,0.3,1.3,1.2,1.2
				c0.2,0,0.4,0,0.6,0c1.5,0,1.5,0,1.5-1.4c0-3.1,0-6.2,0-9.4C47.6,39.6,47.6,39.6,49.3,39.6L49.3,39.6z"/>
		</g>
	</g>
</g>
</svg>
