<?xml version="1.0" encoding="UTF-8"?>
<svg id="Layer_2" data-name="Layer 2" xmlns="http://www.w3.org/2000/svg" viewBox="0 0 126.87 57">
  <defs>
    <style>
      .cls-1 {
        isolation: isolate;
      }

      .cls-2 {
        fill: #fff;
        stroke-width: 0px;
      }
    </style>
  </defs>
  <g id="Layer_1-2" data-name="Layer 1">
    <g class="cls-1">
      <path class="cls-2" d="m0,43.24v-6.93c.13-.01.27-.04.4-.04,1.46,0,2.91,0,4.37,0,.38,0,.51.11.48.49-.03.39,0,.78,0,1.22.2.02.37.04.54.04,5.35,0,10.7,0,16.04,0,1.04,0,1.89-.37,2.33-1.36.41-.92.3-1.81-.35-2.59-.5-.6-1.18-.8-1.95-.8-7.04,0-14.07,0-21.11,0-.24,0-.49,0-.76,0v-5.25h.66c5.54,0,11.09,0,16.63,0,.35,0,.72-.02,1.06-.1,1.15-.28,1.81-1.35,1.67-2.67-.12-1.08-1.06-1.95-2.18-1.95-4.07,0-8.14,0-12.21,0-.1,0-.21.02-.39.03,0,.43.02.85-.01,1.27-.01.14-.18.38-.27.39-1.65.02-3.29.02-4.97.02v-6.95c.1-.02.2-.05.3-.05,5.93,0,11.87-.04,17.8.02,3.91.04,7.2,3.43,7.2,7.34,0,1.03-.21,2.07-.33,3.18,0,0,.12.07.25.13,3.15,1.46,4.88,4.73,4.35,8.24-.5,3.32-3.22,5.92-6.64,6.33-.28.03-.57.03-.85.03-7.18,0-14.36,0-21.53,0-.17,0-.35-.02-.54-.03Z"/>
      <path class="cls-2" d="m72,43.29c-2.23,0-4.31,0-6.39-.02-.18,0-.4-.19-.53-.36-3.03-3.98-6.06-7.98-9.08-11.97-1.34-1.77-2.68-3.54-4.02-5.31-.08-.11-.18-.21-.32-.36-1.68,2.22-3.33,4.4-5.07,6.69.52,0,.9,0,1.28,0,1.58,0,3.16,0,4.74.01.2,0,.46.11.57.25,1.21,1.56,2.39,3.13,3.58,4.71.04.05.06.12.15.28-.27,0-.48,0-.68,0-4.35,0-8.71,0-13.06,0-.42,0-.68.12-.93.46-1.31,1.77-2.65,3.52-3.99,5.26-.13.17-.39.35-.58.35-2.01.02-4.01.01-6.02.01-.05,0-.1-.02-.25-.06,6.76-8.93,13.5-17.82,20.27-26.75,6.77,8.93,13.5,17.81,20.32,26.81Z"/>
      <path class="cls-2" d="m104.99,31.8c.94-.84,1.93-1.64,2.83-2.53,2.01-1.97,3.73-4.16,4.5-6.93,1.02-3.67-.15-6.71-2.86-9.23-2.42-2.25-5.37-3.54-8.48-4.52-3.37-1.06-6.83-1.62-10.34-1.91-4.19-.34-8.37-.29-12.55.1-.1,0-.21,0-.34-.07.35-.09.71-.19,1.06-.27.36-.09.72-.18,1.09-.25,5.97-1.27,12.01-1.98,18.13-1.86,4.65.09,9.24.61,13.63,2.27,1.96.74,3.79,1.7,5.3,3.18,2.7,2.65,3.27,6.02,1.59,9.41-.96,1.94-2.38,3.52-3.94,4.99-2.86,2.7-5.89,5.19-9.15,7.38-.13.09-.27.18-.4.26-.02.01-.06,0-.08-.01Z"/>
      <path class="cls-2" d="m98.57,18.04v5.22h-31.54v-5.22h31.54Z"/>
      <path class="cls-2" d="m121.48,17.53c.24-1.16.54-2.28.68-3.41.53-4.2-1.19-7.26-4.79-9.35-2.17-1.26-4.55-1.87-7-2.23-4.45-.66-8.92-.62-13.39-.45-.23,0-.46,0-.71-.09.71-.14,1.41-.28,2.12-.41,4.63-.82,9.3-1.43,14.01-1.56,3.38-.09,6.76-.04,10.01,1.05.94.32,1.85.83,2.68,1.38,1.13.76,1.62,1.94,1.75,3.27.2,1.92-.31,3.7-1.1,5.41-1.08,2.34-2.58,4.4-4.25,6.38Z"/>
      <path class="cls-2" d="m80.18,26.34h5.24v16.96h-5.24v-16.96Z"/>
      <path class="cls-2" d="m3.99,53.24c.95.61,1.19,1.15.95,2.07-.21.81-.94,1.36-1.87,1.38-1.01.02-2.02,0-3.06,0v-6.53c1.04,0,2.1-.1,3.12.02,1.31.16,1.86,1.63,1.1,2.73-.07.1-.15.2-.24.32Zm-3.16,2.52c.89,0,1.74.05,2.58-.02.53-.04.83-.5.81-1.02-.01-.47-.31-.84-.84-.87-.84-.05-1.69-.01-2.56-.01v1.92Zm.02-4.75v1.95c.5,0,.96.02,1.42,0,.31-.02.64-.06.92-.18.45-.19.64-.68.52-1.16-.12-.46-.47-.6-.89-.6-.65,0-1.3,0-1.97,0Z"/>
      <path class="cls-2" d="m23.88,57c-1.67-1.72-3.27-3.35-4.97-5.09v4.75h-.81v-6.85c1.66,1.72,3.25,3.35,4.95,5.11v-4.78h.83v6.87Z"/>
      <path class="cls-2" d="m54.56,56.67v-6.63c1.2.08,2.4.01,3.54.26,1.63.34,2.37,1.7,2.22,3.61-.12,1.47-1.2,2.6-2.76,2.75-.98.09-1.97.02-2.99.02Zm1.93-5.77s0,.02,0,.04c-.27,0-.54-.04-.8.01-.14.03-.35.2-.35.31-.02,1.4-.02,2.8,0,4.21,0,.12.22.33.34.33.62.02,1.25.03,1.86-.05,1.26-.16,1.98-.97,2.03-2.2.05-1.35-.61-2.26-1.86-2.52-.4-.08-.81-.09-1.21-.13Z"/>
      <path class="cls-2" d="m81.16,52.87h3.45v-2.74h.81v6.53h-.78v-2.82h-3.46v2.84h-.81v-6.54h.79v2.73Z"/>
      <path class="cls-2" d="m64.7,55.88c1.05,0,2.02,0,2.99,0q.74,0,.62.78h-4.42v-6.52h4.44v.77h-3.62c0,.6-.02,1.14.02,1.68,0,.09.28.23.43.23.81.02,1.63.01,2.48.01v.8c-.77,0-1.55.03-2.32-.01-.49-.02-.66.13-.63.63.04.52,0,1.05,0,1.64Z"/>
      <path class="cls-2" d="m51.04,56.63c-.61.19-1.01.07-1.18-.54-.2-.73-.63-1.04-1.43-.93-.61.08-1.24.03-1.86,0-.32-.01-.49.1-.6.39-.06.17-.18.31-.22.48-.17.63-.57.79-1.17.61.01-.06.02-.14.05-.2,1.04-2.19,2.07-4.39,3.16-6.69,1.11,2.34,2.17,4.59,3.24,6.86Zm-3.24-5.01c-.44.95-.82,1.8-1.24,2.7h2.48c-.42-.9-.81-1.76-1.25-2.7Z"/>
      <path class="cls-2" d="m32.41,53.74h.91c0,.7.02,1.37-.02,2.04,0,.15-.18.33-.33.44-1.29.95-3.15.84-4.32-.24-1.2-1.1-1.47-2.9-.66-4.28.84-1.43,2.53-2.07,4.09-1.53.77.27.84.39.67,1.29-.17-.1-.33-.21-.5-.29-1.09-.59-2.44-.36-3.26.54-.8.88-.89,2.16-.23,3.15.66.98,1.97,1.4,3.11,1.02.39-.13.59-.32.55-.76-.04-.44,0-.88,0-1.37Z"/>
      <path class="cls-2" d="m11.34,49.76c1.12,2.37,2.18,4.61,3.24,6.86-.61.19-1.02.07-1.17-.54-.19-.75-.65-1.03-1.44-.93-.59.08-1.21.03-1.81,0-.32-.01-.54.06-.64.4-.05.17-.17.32-.22.48-.18.61-.56.8-1.21.59,1.07-2.25,2.13-4.5,3.25-6.87Zm0,1.85c-.44.97-.82,1.82-1.22,2.69h2.47c-.42-.9-.81-1.74-1.25-2.69Z"/>
      <path class="cls-2" d="m76.2,51.31c-.67-.18-1.31-.39-1.96-.5-.31-.05-.7.02-.97.18-.27.16-.57.5-.58.77-.01.28.25.66.5.83.3.21.72.27,1.1.37.43.12.86.19,1.29.32.69.2,1.16.63,1.21,1.38.05.79-.21,1.47-.95,1.82-1.19.56-2.4.49-3.51-.17-.25-.15-.26-.68-.38-1.02.79.26,1.47.59,2.18.68.48.06,1.07-.12,1.5-.38.7-.42.6-1.2-.15-1.53-.42-.18-.88-.25-1.33-.37-.29-.08-.59-.13-.88-.22-.98-.32-1.39-.86-1.36-1.78.03-.84.5-1.47,1.47-1.62.73-.11,1.51-.03,2.24.11.7.14.76.4.58,1.11Z"/>
      <path class="cls-2" d="m36.96,56.67v-6.53h.8v5.72h3.21v.8h-4Z"/>
    </g>
  </g>
</svg>