<?xml version="1.0" encoding="UTF-8"?>
<svg id="Layer_2" data-name="Layer 2" xmlns="http://www.w3.org/2000/svg" viewBox="0 0 150.05 49.91">
  <defs>
    <style>
      .cls-1 {
        fill: #fff;
        stroke-width: 0px;
      }
    </style>
  </defs>
  <g id="Layer_2-2" data-name="Layer 2">
    <g>
      <path class="cls-1" d="M15.03,24.93c0,5.45,4.39,9.9,9.84,9.84-13.23,0-21.91-6.35-21.91-19.74V0s12.07,0,12.07,11.17v13.76h0Z"/>
      <path class="cls-1" d="M24.93,15.08c-5.45,0-9.9,4.39-9.84,9.84,0-13.23,6.35-21.91,19.74-21.91h15.03s0,12.07-11.17,12.07h-13.76,0Z"/>
      <path class="cls-1" d="M34.77,24.98c0-5.45-4.39-9.9-9.84-9.84,13.23,0,21.91,6.35,21.91,19.74v15.03s-12.07,0-12.07-11.17v-13.76h0Z"/>
      <path class="cls-1" d="M24.93,34.83c5.45,0,9.9-4.39,9.84-9.84,0,13.23-6.35,21.91-19.74,21.91H0s0-12.07,11.17-12.07h13.76,0Z"/>
      <path class="cls-1" d="M123.54,19.9c0-5.5-5.4-7.62-10.48-7.62s-11.49,1.96-11.91,8.73h5.77c.26-2.86,2.54-4.18,5.77-4.18s5.45.58,5.45,3.55-3.71,2.96-7.89,3.71c-4.87.58-10.11,1.64-10.11,8.15s4.23,7.67,9,7.67,6.77-.95,9.1-3.18c.48,2.38,2.12,3.18,4.45,3.18s2.81-.37,3.65-.64c0,0-2.81-.53-2.81-5.88v-13.5h0ZM117.77,30.43c0,3.65-3.97,4.98-6.51,4.98s-5.35-.74-5.35-3.33,2.22-3.97,4.71-4.34c2.54-.48,5.35-.42,7.09-1.59v4.29h.05Z"/>
      <path class="cls-1" d="M57.48,39.22h5.45v-3.6h.11c1.75,3.44,5.5,4.29,9.1,4.29,7.78,0,11.33-6.67,11.33-13.71s-4.02-13.92-12.28-13.92-6.25,1.59-7.83,4.13h-.11v-7.15c0-6.25-5.77-6.25-5.77-6.25v36.2h0ZM77.65,26.15c0,4.55-1.96,9.21-7.25,9.21s-7.36-3.97-7.36-9.21,2.49-9.26,7.36-9.26,7.25,4.5,7.25,9.26"/>
      <path class="cls-1" d="M85.27,39.22h5.77v-12.49c0-5.77,3.12-9,7.09-9s1.69.16,2.49.26v-5.56c-.53,0-.85-.16-2.17-.16-3.55,0-6.99,3.02-7.67,5.77h-.11v-5.08h-5.45v26.2l.05.05Z"/>
      <path class="cls-1" d="M150.05,21.81c-.58-6.46-5.72-9.47-11.8-9.47-8.63,0-12.91,6.19-12.91,14.08s4.5,13.55,12.7,13.55,10.96-3.76,12.01-10.53h-5.77c-.58,3.76-2.91,5.98-6.25,5.98-5.03,0-6.93-4.6-6.93-9,0-7.94,4.23-9.53,7.2-9.53s5.5,1.75,5.98,4.92h5.77Z"/>
    </g>
  </g>
</svg>