<?xml version="1.0" encoding="UTF-8"?>
<svg id="Layer_2" data-name="Layer 2" xmlns="http://www.w3.org/2000/svg" viewBox="0 0 180.25 46.2">
  <defs>
    <style>
      .cls-1 {
        fill: #919191;
      }

      .cls-1, .cls-2, .cls-3, .cls-4 {
        stroke-width: 0px;
      }

      .cls-2 {
        fill: #575757;
      }

      .cls-3 {
        fill: #333;
      }

      .cls-4 {
        fill: #fff;
      }
    </style>
  </defs>
  <g id="Layer_2-2" data-name="Layer 2">
    <g>
      <path class="cls-4" d="M0,0v19.33h19.33V0H0ZM.6.6h17.68s-1.04,1.93-2.67,4.39c-2.89,4.37-7.13,10.16-15.01,9.68V.6ZM18.73,18.73H.6v-2.99C12.93,16.88,18.73.83,18.73.83v17.89Z"/>
      <path class="cls-3" d="M6.75,5.41c-2.45,0-4.43,1.97-4.43,4.42,0,2.02,1.35,3.71,3.21,4.24,2.2-.71,4.04-1.98,5.59-3.45.05-.25.07-.52.07-.79,0-2.44-1.98-4.42-4.44-4.42"/>
      <path class="cls-2" d="M10.09,9.83c0,1.83-1.49,3.32-3.33,3.32s-3.33-1.49-3.33-3.32,1.49-3.31,3.33-3.31,3.33,1.48,3.33,3.31"/>
      <path class="cls-1" d="M8.98,9.83c0,1.22-1,2.2-2.22,2.2s-2.21-.98-2.21-2.2.99-2.21,2.21-2.21,2.22.99,2.22,2.21"/>
      <path class="cls-4" d="M7.87,9.83c0,.61-.5,1.1-1.11,1.1s-1.11-.49-1.11-1.1.5-1.1,1.11-1.1,1.11.49,1.11,1.1"/>
      <path class="cls-4" d="M30.42,11.11h2.87c1.01,0,1.69.17,2.1.49.4.31.6.74.6,1.27,0,.57-.21,1.02-.6,1.36-.4.34-1.09.5-2.07.5h-2.89M24.69,18.6h9.8c.41,0,1.27-.08,2.54-.24.97-.12,1.68-.31,2.16-.59.77-.43,1.38-1.02,1.81-1.76.45-.73.67-1.58.67-2.5,0-1.15-.31-2.1-.93-2.85-.62-.75-1.6-1.29-2.91-1.6.86-.28,1.52-.7,1.98-1.19.68-.76,1.02-1.67,1.02-2.74,0-1.26-.47-2.33-1.43-3.18-.95-.86-2.31-1.29-4.08-1.29h-10.63v17.96ZM30.42,4.3h2.51c.85,0,1.45.15,1.81.44.33.29.51.7.51,1.22,0,.56-.18.99-.51,1.29-.36.3-.98.44-1.86.44h-2.46v-3.39Z"/>
      <path class="cls-4" d="M48.97,18.6v-7.29h.49c.52,0,.99.13,1.39.41.29.22.63.67,1.02,1.39l3.02,5.49h6.42l-2.76-5.2c-.14-.26-.4-.63-.79-1.12-.39-.49-.69-.81-.91-.95-.31-.22-.8-.44-1.47-.66.85-.19,1.52-.43,2-.71.77-.44,1.37-1.04,1.8-1.75.44-.73.66-1.58.66-2.58,0-1.15-.28-2.1-.86-2.9-.57-.8-1.32-1.34-2.24-1.63-.93-.28-2.28-.45-4.03-.45h-9.46v17.96M48.97,4.27h2.48c1.03,0,1.73.15,2.11.47.37.3.56.75.56,1.32,0,.4-.12.74-.35,1.05-.24.31-.54.49-.91.56-.75.17-1.25.25-1.5.25h-2.38v-3.65Z"/>
      <path class="cls-4" d="M74.93,18.6h5.95L74.02.64h-6.26l-6.9,17.96h5.8l.94-2.96h6.42M68.8,11.76l2.02-6.45,2,6.45h-4.01Z"/>
      <path class="cls-4" d="M93.26,11.2l5,1.42c-.33,1.32-.87,2.43-1.59,3.31-.72.88-1.61,1.54-2.68,2-1.07.44-2.41.67-4.07.67-2,0-3.63-.27-4.9-.82-1.26-.55-2.36-1.52-3.27-2.89-.92-1.38-1.38-3.15-1.38-5.3,0-2.87.8-5.08,2.42-6.62,1.62-1.55,3.89-2.32,6.85-2.32,2.32,0,4.13.45,5.45,1.33,1.33.89,2.31,2.25,2.96,4.08l-5.03,1.07c-.18-.53-.36-.93-.55-1.17-.31-.42-.7-.73-1.16-.96-.46-.22-.98-.34-1.53-.34-1.28,0-2.27.49-2.95,1.46-.52.73-.78,1.86-.78,3.41,0,1.92.31,3.24.93,3.95.61.71,1.49,1.07,2.61,1.07s1.9-.29,2.46-.86c.56-.57.96-1.41,1.21-2.5"/>
      <path class="cls-4" d="M110.11,11.11h2.87c1.01,0,1.7.17,2.11.49.4.31.58.74.58,1.27,0,.57-.2,1.02-.6,1.36-.4.34-1.09.5-2.07.5h-2.9M104.38,18.6h9.8c.42,0,1.27-.08,2.54-.24.96-.12,1.68-.31,2.16-.59.76-.43,1.37-1.02,1.82-1.76.44-.73.66-1.58.66-2.5,0-1.15-.31-2.1-.93-2.85-.63-.75-1.6-1.29-2.92-1.6.86-.28,1.52-.7,1.98-1.19.68-.76,1.01-1.67,1.01-2.74,0-1.26-.47-2.33-1.42-3.18-.95-.86-2.3-1.29-4.07-1.29h-10.63v17.96ZM110.11,4.3h2.51c.86,0,1.46.15,1.81.44.34.29.51.7.51,1.22,0,.56-.17.99-.51,1.29-.35.3-.96.44-1.85.44h-2.47v-3.39Z"/>
      <path class="cls-4" d="M134.6,18.6h5.96l-6.85-17.96h-6.27l-6.89,17.96h5.8l.93-2.96h6.42M128.47,11.76l2.02-6.45,1.99,6.45h-4.01Z"/>
      <polyline class="cls-4" points="140.85 .64 146.14 .64 153.09 10.58 153.09 .64 158.46 .64 158.46 18.6 153.09 18.6 146.19 8.73 146.19 18.6 140.85 18.6"/>
      <polyline class="cls-4" points="160.74 .64 166.42 .64 166.42 7.43 172.37 .64 179.94 .64 173.22 7.41 180.25 18.6 173.25 18.6 169.37 11.27 166.42 14.25 166.42 18.6 160.74 18.6"/>
      <path class="cls-4" d="M131.58,30.82h-.02s-.02,0-.02,0c-.32,0-.6.12-.81.34-.34.35-.37.87-.37,1.07v.28c-.31-.39-.65-.72-1.06-.95-1.43-.74-2.97-.24-3.26-.13l-.1.12c-2.44-1.83-4.63-.15-5.18.33-.5-.25-1.5-.72-1.58-.74l.08.03c-.66-.43-1.11-.33-1.38-.19-.49.29-.57.89-.59,1.18-.54-.83-1.07-1.29-1.6-1.37-.45-.06-.72.13-.85.25l-.07.02h-.05s-.04.04-.04.04c-.76.61-1.21,4.63-1.42,7.23-.38-.24-.81-.48-1.24-.71.37-.64.65-1.39.83-2.27.03-.15.59-3.5-1.84-4.29h-.02s-.02-.01-.02-.01c-.38-.07-1.66-.22-2.73.53-.73.52-1.18,1.33-1.34,2.44,0,.02-.05,1.14.7,1.81.44.38,1.02.52,1.72.4.15-.02.28-.1.36-.22.09-.12.12-.28.09-.43-.02-.14-.09-.27-.22-.35-.12-.09-.28-.13-.43-.1-.24.04-.57.05-.77-.14-.23-.2-.32-.57-.33-.87.11-.75.39-1.29.86-1.62.64-.46,1.47-.4,1.81-.35.91.3,1.1,1.37,1.1,2.22,0,.26-.02.53-.06.77h0c-.17.84-.44,1.56-.8,2.15l-.41.52-.06.07c-.97,1.03-2.06.96-2.07.96-4.2-.51-4.45-7.78-4.45-7.85-.01-.32-.27-.57-.58-.56-.16,0-.3.07-.4.18-.1.11-.15.25-.15.4.01.34.25,8.32,5.46,8.96h.03c.29.02,1.81,0,3.07-1.41,1.05.56,1.81,1.04,1.91,1.16.14.19.4.28.62.21.23-.08.39-.26.41-.48.29-4.03.8-7.16,1.09-7.46l.11-.06h0s.66.15,1.7,2.56l-.15,5.39c0,.31.25.57.55.58.14,0,.29-.05.4-.15.11-.11.17-.25.18-.39l.13-5.05.02-.53.06-2.02c0-.12.01-.22.04-.29.05.02.13.06.25.13l.02.02c.32.14,1.09.5,1.58.75-.05.27-.1.54-.1.79,0,.83.28,1.55.81,2.05l-.03-.03c.14.19.35.51.53.84l.18.37c.07.16.08.25.09.28,0,.27-.08.75-.31.89-.23.14-.71,0-1.32-.37-.27-.16-.61-.08-.77.18-.17.27-.09.62.19.78,1.02.61,1.86.74,2.48.37.82-.48.87-1.58.86-1.91h0s0-.03,0-.03c-.02-.23-.12-.51-.28-.85.03-.27.12-.56.37-.6.02,0,1.22-.2,1.96,1.18.06.11.16.19.28.24-.02.1-.04.2-.05.31-.57.27-.97.62-1.17,1.07-.44,1,.2,2.01.21,2.02l.11.12-.03-.04c.5.51.99.57,1.32.54.92-.1,1.47-1.03,1.48-1.04.07-.11.1-.26.06-.41-.03-.15-.12-.27-.25-.35-.26-.17-.6-.1-.77.17-.12.18-.4.48-.64.51-.1.02-.22-.05-.35-.16-.05-.09-.16-.32-.16-.59,0-.11.03-.21.06-.31.16-.36.7-.65,1.5-.8.18,0,1.31,0,1.87.69.39.47.44,1.21.17,2.18,0,.02-.84,2.05-6.27.72-.19-.05-.4,0-.54.14-.14.14-.2.34-.15.54.06.22,1.55,5.13,11.21,3.45.31-.05.52-.35.46-.65-.06-.31-.35-.51-.66-.46-5.92,1.04-8.37-.56-9.34-1.67,5.24.92,6.25-1.44,6.35-1.72.38-1.37.25-2.46-.38-3.23-.93-1.14-2.54-1.11-2.86-1.1h-.01s0,0,0,0c.45-1.59.14-3.49-.1-4.52l.13-.02-.04.02h.01s.02,0,.02,0c.22-.08,1.37-.44,2.32.07.71.37,1.2,1.13,1.46,2.26l.13.18-.03,5.06c0,.3.24.56.55.57.33,0,.58-.25.58-.57l.04-7.85c0-.09.02-.21.05-.27.8.14,1.73.34,2.04.51.12.07.27.09.41.05.15-.04.27-.14.35-.27.14-.29.03-.63-.23-.77-.68-.36-2.46-.63-2.53-.64M125.5,35.66c-.9-1.06-2.1-1.19-2.67-1.09-.37.06-.65.28-.88.57l-.05-.08v.02s-.06-.09-.06-.09h.01s-.01,0-.01,0h-.01c-.76-.7-.42-1.94-.37-2.13h0s.02-.07.02-.07v-.03c.39-.36,1.9-1.57,3.65-.37.14.52.41,1.67.41,2.86,0,.15-.02.28-.04.43M179.84,30.96c-1.55-1.03-2.83-.34-3.29.16l-.09.15-.02.05c-1.86-1.02-4.97-.58-5-.57-1.61.19-2.39.43-2.63.51-2.28-.86-3.88-.03-4.6.5-.66-.67-1.34-1.01-2.01-.97-.87.06-1.33.71-1.38.77l-.07.12v.03c-1.62-1.4-4.2-.92-5.47-.54l.05-.12-.05.07.08-.13c.15-.45.97-2.61,2.82-3.21,1.4-.45,3.13.1,5.11,1.62.11.09.25.13.41.12.15-.02.29-.1.38-.22.19-.25.14-.6-.1-.79-2.3-1.77-4.37-2.37-6.15-1.8-2.6.84-3.52,3.86-3.53,3.91-.26.54-.5,1.46-.72,2.73-.77-1.6-1.49-2.44-2.24-2.55-.43-.06-.69.11-.84.25l-.08.02h-.05s-.04.04-.04.04c-.58.47-1.05,2.91-1.41,7.23-.32-.19-.73-.43-1.24-.71.36-.62.64-1.35.83-2.27.09-.6.43-3.55-1.84-4.29h-.02s-.01-.01-.01-.01c-.26-.05-1.63-.25-2.74.53-.74.52-1.19,1.34-1.34,2.44v.03c0,.19.03,1.18.71,1.78.44.38,1.02.52,1.71.4.3-.04.52-.33.47-.64-.02-.15-.1-.28-.22-.37-.12-.09-.28-.13-.43-.1-.24.04-.58.05-.79-.14-.31-.28-.32-.81-.33-.86.1-.75.39-1.29.86-1.62.65-.46,1.48-.4,1.82-.35.95.31,1.09,1.52,1.09,2.22,0,.26-.02.53-.05.77h0c-.18.85-.45,1.57-.81,2.15l.02-.02-.42.53-.09.11c-.95.99-2.03.93-2.04.93-4.2-.51-4.45-7.78-4.46-7.85,0-.32-.27-.57-.58-.56-.31,0-.56.27-.55.57.01.35.29,8.33,5.46,8.97h.03c.18.01,1.77.03,3.07-1.41,1.07.58,1.81,1.04,1.9,1.16.15.19.41.27.62.21.24-.08.4-.26.41-.49.29-4.02.81-7.16,1.09-7.45l-.11.06c.09-.01.15-.07.22-.12h0s.71.15,1.85,2.89c.05.13.16.21.29.28-.18,1.3-.33,2.76-.45,4.38v.13s-.01.04-.01.04c0,.3.23.55.52.57.32.01.58-.22.6-.53,0-.05.34-4.6.91-7.19h.04c.13-.06,2.87-1.08,4.58-.24-.86.55-2.33,1.63-3.15,3.01,0-.01-.45.62-.45,1.38,0,.09.01.19.03.32.09.47.36.85.76,1.11.38.27,2.33,1.66,3.76,2.12.2.04.39.01.51-.1.14-.1.22-.26.22-.45v-.14c0-.56.02-5.52.6-7.34.06-.07.23-.23.5-.25.29-.01.66.21,1.07.6-.05.89-.35,6.09-.36,6.33.02.57.41,1.61,1.75,1.61h.05s0,0,0,0h.01s.02,0,.02,0c.53-.09,3.16-.61,3.91-2.04.14-.28.2-.54.2-.83,0-.31-.08-.62-.24-.93l-.1-.15s-2.25-2.3-4.18-2.87l.02-.39v-.23s.14-.07.14-.07c.03-.03,1.42-1.64,4.02-.55.14.05.29.06.42.01h.04s0-.02,0-.02c.06-.02.82-.3,2.52-.5.14-.02,3.15-.39,4.5.55-.14.65-.21,1.36-.26,2-.33-.27-.68-.45-1.06-.44-.52.02-1.01.33-1.46.89-.21-.35-.45-.63-.75-.79-.55-.31-1.08-.24-1.33-.18h-.05s0,.01,0,.01v.02c-1.36.26-1.81,2.54-1.94,3.53-.21,2.07,1.18,2.28,1.24,2.29,1.3.08,1.95-.81,2.12-1.3.1-.3-.05-.62-.34-.72-.31-.1-.62.05-.73.34-.01.03-.21.58-.92.55-.04-.02-.34-.16-.25-1.03.14-1.17.62-2.52,1.05-2.58l.1-.02s.26-.07.53.08c.29.17.51.56.64,1.12.05.23.25.41.48.43.25.03.48-.1.58-.32.17-.4.69-1.18,1.09-1.2.24-.01.55.3.85.85l.08.09c-.01,1.52.07,2.77.08,2.83.03.31.29.55.6.52.31-.03.53-.26.53-.56l-.03-.13.02.1v-.05c-.05-.77-.07-1.59-.07-2.36,0-2.2.19-3.77.56-4.57.19-.18.79-.58,1.74.06.11.08.27.11.42.08.15-.03.29-.11.36-.24.16-.24.11-.58-.14-.77M160.07,38.8c-1.25-.59-2.67-1.61-2.73-1.66-.17-.12-.26-.24-.3-.38v-.12c-.01-.22.09-.5.26-.77h0s0-.02,0-.02c.79-1.33,2.44-2.43,3.15-2.87-.31,1.9-.38,4.6-.4,5.83M167.7,37.18c.07.14.11.27.11.38s-.03.21-.07.31c-.39.74-2.04,1.27-3.02,1.44-.47-.01-.58-.29-.6-.46l.24-4.07c1.44.55,3.14,2.19,3.36,2.4M160.81,31.67v-.02s.03-.02.03-.02l-.03.04Z"/>
    </g>
  </g>
</svg>