<?xml version="1.0" encoding="UTF-8"?>
<svg id="Layer_2" data-name="Layer 2" xmlns="http://www.w3.org/2000/svg" viewBox="0 0 175.22 37.78">
  <defs>
    <style>
      .cls-1 {
        fill: #fff;
        stroke-width: 0px;
      }
    </style>
  </defs>
  <g id="Layer_1-2" data-name="Layer 1">
    <g>
      <path class="cls-1" d="m54.13,23.85c-.99.77-1.93,1.59-2.96,2.29-1.1.74-2.33,1.2-3.68,1.2-2.7.01-4.5-1.77-4.61-4.54,0-.2,0-.4,0-.8-.23.31-.37.49-.49.66-1,1.42-2.09,2.77-3.48,3.83-.6.46-1.24.81-2.02.86-1.03.07-1.68-.45-2.11-1.31-.58-1.17-.58-2.4-.32-3.66.49-2.34,1.54-4.44,2.6-6.55.41-.81.77-1.64,1.09-2.48.1-.26.05-.8-.09-.86-.31-.13-.8-.18-1.05-.01-.7.46-1.37.99-1.97,1.58-3.09,3.01-5.04,6.71-6.43,10.74-.2.57-.21,1.21-.23,1.82-.01.45-.3.6-.61.72-.86.35-2.02-.07-2.41-.96-.27-.61-.33-1.32-.47-1.91-.64.85-1.34,1.82-2.09,2.76-2.13,2.66-4.48,5.08-7.42,6.86-2.11,1.28-4.34,2.23-6.86,2.24-4.17.01-7.33-2.53-8.22-6.61-.58-2.63-.25-5.21.52-7.75,1.29-4.24,2.96-8.31,5.67-11.87,1.61-2.11,3.42-4.03,5.49-5.68,2-1.59,4.27-2.53,6.87-2.37,2.6.16,4.36,1.51,5.09,4.01,1.02,3.52.5,6.74-2.17,9.44-.42.42-.9.59-1.48.51-.94-.14-1.8-.46-2.42-1.23-.39-.48-.34-.79.12-1.19,2.07-1.78,3.08-4.09,3.29-6.77.04-.53-.06-1.09-.22-1.6-.24-.8-.77-1.14-1.53-.81-1,.43-2.01.95-2.85,1.64-3.02,2.48-5.29,5.57-7.05,9.04-1.51,2.97-2.78,6.04-3.46,9.31-.35,1.7-.4,3.4,0,5.1.97,4.06,4.12,5.53,7.89,3.7,2.1-1.02,3.79-2.58,5.38-4.25,3.09-3.25,5.73-6.86,7.68-10.88,2.35-4.85,4.39-9.86,6.52-14.82.32-.75.74-1.54.46-2.44-.03-.09.16-.32.29-.39.98-.45,1.98-.45,2.88.17.81.56,1.08,1.45.83,2.36-.44,1.56-.94,3.12-1.55,4.63-.69,1.72-1.53,3.38-2.3,5.06-.08.17-.15.36-.28.68.72-.61,1.28-1.15,1.92-1.59.59-.41,1.22-.8,1.9-1.03,1.48-.5,2.71.2,3.12,1.71.36,1.34.28,2.72-.19,3.99-.69,1.88-1.58,3.69-2.38,5.54-.37.85-.77,1.68-1.07,2.56-.1.28-.03.78.17.97.32.31.79.18,1.08-.15,1.07-1.22,2.23-2.39,3.15-3.73,1.06-1.53,1.94-3.19,2.82-4.84,1.25-2.34,2.77-4.4,5.24-5.58,1.05-.5,2.17-.75,3.34-.68,1.73.11,2.57,1.23,2.2,2.92-.42,1.91-1.56,3.38-3,4.64-1.27,1.12-2.71,1.96-4.35,2.41-.41.11-.62.32-.65.73-.06,1.02-.23,2.05-.15,3.06.1,1.23.83,1.65,2.05,1.36,1.53-.37,2.68-1.35,3.77-2.42,2.05-2.02,3.59-4.37,4.72-7.02,1.74-4.07,3.58-8.11,5.35-12.17.34-.79.56-1.64.83-2.46.04-.11.09-.25.06-.35-.22-.73.25-.91.79-1.07,1.68-.48,3.1.46,3.08,2.19-.01,1.15-.24,2.32-.55,3.44-.84,2.98-2.29,5.71-3.67,8.47-.83,1.65-1.69,3.29-2.53,4.92,1.54.41,4.51-.2,5.21-2.18.15-.41.43-.54.8-.36.38.18.58.55.3.89-.48.6-.99,1.23-1.6,1.68-1.1.8-2.42,1.06-3.78,1.09-.35,0-.5.09-.53.46-.29,3.69-1.47,7.12-2.97,10.46-.77,1.72-1.69,3.35-2.97,4.74-.74.8-1.55,1.53-2.68,1.77-1.49.32-2.37-.33-2.41-1.85-.05-1.87.48-3.63,1.12-5.35.8-2.15,1.7-4.26,2.56-6.39.04-.09.06-.18.09-.25Zm6.12-3.02c-.09-.02-.18-.04-.27-.06-.4.79-.79,1.57-1.19,2.36-1.69,3.32-3.4,6.63-5.06,9.96-.41.82-.66,1.72-.94,2.6-.06.18.03.54.16.61.16.08.5.03.65-.1.43-.39.87-.8,1.2-1.27,2.38-3.38,4.01-7.11,5-11.12.24-.98.31-1.99.46-2.99Zm-12.26-1.72c2.74-.95,4.75-2.67,5.78-5.4.14-.38.16-.83.13-1.23-.04-.46-.39-.69-.82-.5-.41.18-.84.41-1.16.72-1.85,1.8-2.94,4.07-3.93,6.42Z"/>
      <path class="cls-1" d="m128.01,11.16c.78-.69,1.98-.8,2.99-.29.77.38,1.28,1.42,1.17,2.48-.17,1.7-.9,3.21-1.67,4.69-.8,1.54-1.68,3.03-2.47,4.57-.36.69-.63,1.43-.89,2.17-.07.21-.01.63.11.69.24.11.61.12.83,0,.38-.21.72-.52,1.01-.85,1.89-2.06,3.56-4.3,4.74-6.83,2.11-4.53,4.07-9.12,6.08-13.69.29-.66.52-1.35.74-2.04.1-.3.23-.68.13-.94-.21-.55.1-.71.48-.83,1.62-.51,3.93.16,3.39,2.66-.39,1.81-1.12,3.56-1.78,5.31-.46,1.22-1.06,2.39-1.66,3.71.23-.15.36-.24.49-.33,1.58-1.13,3.25-1.42,5.06-.56,1.5.71,2.21,1.95,2.4,3.52.25,2.05-.39,3.95-1.18,5.79-.89,2.06-2.09,3.9-3.82,5.37.03.06.07.12.1.17.74-.37,1.55-.65,2.22-1.12,2.08-1.44,3.62-3.42,5.09-5.45,1.07-1.47,1.69-3.15,2.39-4.8,1.65-3.89,3.32-7.78,4.94-11.68.27-.65.62-1.32.35-2.09-.03-.09.23-.36.4-.43.96-.4,1.92-.35,2.77.24.81.57,1.05,1.47.82,2.37-.36,1.42-.72,2.86-1.32,4.19-1.49,3.33-3.12,6.59-4.67,9.89-.96,2.04-1.89,4.09-2.8,6.16-.2.45-.33.96-.4,1.45-.04.28.1.59.16.89.29-.08.67-.07.87-.25.59-.54,1.16-1.12,1.67-1.74,1.8-2.24,3.3-4.65,4.55-7.25,1.14-2.36,2.83-4.26,5.33-5.29,1.06-.44,2.17-.64,3.31-.49,1.36.17,2.09,1.13,1.92,2.5-.25,1.9-1.3,3.36-2.62,4.64-1.37,1.32-2.96,2.29-4.8,2.8-.36.1-.57.27-.59.64-.07,1.06-.25,2.12-.16,3.17.12,1.24.87,1.68,2.06,1.3.77-.25,1.55-.6,2.2-1.09,2.6-1.97,4.52-4.51,5.91-7.45.04-.09.08-.18.13-.27.18-.36.46-.51.84-.34.4.18.46.51.27.85-.52.95-1.02,1.92-1.61,2.84-1.45,2.25-3.15,4.29-5.38,5.82-1.3.89-2.72,1.48-4.35,1.42-2.45-.1-4.18-1.86-4.29-4.36-.01-.26,0-.52,0-.98-.22.29-.35.44-.47.6-1.01,1.41-2.06,2.79-3.48,3.83-.48.35-1.03.67-1.59.83-1.32.37-2.48-.24-2.81-1.57-.21-.84-.15-1.75-.2-2.62-.01-.19.04-.38.08-.69-.63.68-1.18,1.29-1.74,1.88-3,3.13-6.73,3.74-10.8,3.06-1.27-.21-1.96-1.23-1.88-2.5.03-.55.29-.93.82-1.06.52-.13.99.04,1.24.52.25.48.13.94-.33,1.28-.03.02-.03.07-.06.14.25.39.64.42.98.2.52-.34,1.07-.69,1.44-1.17,2.15-2.69,3.85-5.62,4.31-9.11.09-.71.05-1.45-.07-2.16-.19-1.1-1.04-1.53-2.02-1-.62.34-1.2.83-1.68,1.35-1.58,1.72-2.75,3.73-3.77,5.81-.86,1.75-1.58,3.57-2.29,5.38-.19.48-.09,1.06-.2,1.58-.05.24-.23.52-.43.64-.75.45-1.92.11-2.46-.66-.53-.75-.58-1.57-.39-2.43.06-.27.13-.54.12-.87-.23.28-.43.59-.69.84-.89.87-1.75,1.77-2.71,2.57-.39.33-.96.55-1.48.62-1.51.21-2.49-.63-2.76-2.28-.06-.39-.06-.8-.1-1.33-.17.22-.28.36-.4.5-.59.68-1.13,1.43-1.8,2.02-1.46,1.27-3.12,1.45-4.9.64-1.7-.77-2.34-2.2-2.47-3.92-.14-1.75.4-3.39,1.04-4.98.98-2.4,2.28-4.6,4.44-6.13,1.64-1.17,3.47-1.72,5.48-1.16,1.22.34,1.89,1.5,1.62,2.66-.12.49-.41.85-.9.82-.38-.03-.84-.2-1.08-.47-.33-.36-.17-.83.17-1.2.06-.07.12-.15.33-.39-.42-.06-.77-.22-.97-.11-.51.26-1.05.56-1.41.99-2.14,2.59-3.83,5.44-4.42,8.8-.16.89-.09,1.86.08,2.75.24,1.22,1.3,1.55,2.22.73.61-.54,1.17-1.18,1.6-1.87,2.07-3.3,3.79-6.78,5.25-10.39.23-.58.54-1.2.07-1.85Zm36.46,7.99c.19-.03.27-.02.34-.05,2.39-.88,4.17-2.47,5.31-4.74.22-.44.34-.95.4-1.44.1-.91-.41-1.24-1.23-.8-.33.18-.64.42-.91.69-1.27,1.27-2.17,2.79-2.97,4.37-.31.62-.6,1.25-.94,1.96Z"/>
      <path class="cls-1" d="m103.32,11.67c-.07.2-.1.41-.21.56-1.34,1.9-3.02,3.26-5.5,3.17-2.97-.11-4.54-2.23-3.88-5.28.8-3.69,3.22-5.97,6.58-7.4,1.92-.82,3.92-.81,5.94-.68,4.09.27,8.09,1.15,12.1,1.9,2.89.54,5.76,1.28,8.73,1.03,1.23-.11,2.47-.36,3.65-.72,1.02-.31,1.92-.89,1.82-2.23,0-.1.33-.33.51-.33,1.3-.04,3.36,1.14,3.58,2.71.24,1.76-.64,3.31-2.36,3.87-1.38.45-2.81.43-4.19.17-4.49-.84-8.97-1.74-13.44-2.66-3.65-.75-7.28-1.59-11-1.93-1.92-.18-3.7.12-5.24,1.35-1.26,1.01-1.99,2.27-1.66,3.95.29,1.45,1.65,2.49,3.28,2.53.4.01.79,0,1.27,0Z"/>
      <path class="cls-1" d="m114,10.02c-.07,1.77-.59,3.46-1.2,5.09-1.38,3.67-2.88,7.3-4.3,10.96-.84,2.16-1.63,4.33-2.39,6.52-.24.69-.25,1.47-.43,2.18-.07.29-.27.64-.52.79-1.54.88-3.58-.26-3.5-2.02.06-1.23.27-2.5.67-3.66,1.72-5.03,3.55-10.02,5.31-15.03.57-1.61,1.1-3.24,1.58-4.88.14-.48.05-1.03.12-1.53.02-.16.16-.38.3-.43,1.08-.41,2.2-.54,3.3-.08.94.39,1.11,1.2,1.05,2.11Z"/>
      <path class="cls-1" d="m75.46,14.37c-.49.86-.93,1.65-1.37,2.43-.07.12-.11.32-.21.35-.3.09-.64.23-.91.15-.37-.11-.3-.47-.15-.76.54-1.01,1.07-2.03,1.63-3.03.18-.32.16-.56-.02-.88-.64-1.18-.79-2.41-.11-3.63.61-1.09,2.06-1.58,3.21-1.11.54.22.93.76.78,1.41-.17.75-.49,1.48-.82,2.18-.15.33-.14.5.08.79.72.94,1.47,1.88,2.06,2.9,1.13,1.93,1.82,3.99,1.5,6.34.23-.25.48-.49.68-.77.87-1.23,1.74-2.46,2.58-3.72.24-.37.47-.63.91-.4.43.22.45.58.23.97-1.71,3.1-3.83,5.89-6.72,7.97-1.13.81-2.52,1.36-3.87,1.76-1.8.54-3.35-.4-3.86-2.08-.58-1.9.2-3.76,1.89-4.43.35-.14.82-.2,1.15-.07.32.12.67.5.73.82.05.28-.2.79-.46.92-.32.16-.79.06-1.18.01-.15-.02-.27-.22-.43-.37-.65.89-.85,1.84-.5,2.86.35,1.03,1.39,1.43,2.35.92,1.47-.79,2.17-2.13,2.45-3.69.43-2.39-.22-4.63-1.13-6.81-.14-.33-.31-.64-.5-1.04Z"/>
      <path class="cls-1" d="m68.51,6.67c.72-.57,2.27-.54,2.84.06.17.18.29.45.32.69.26,2.27-.57,4.11-2.37,5.48-.38.29-.96.43-1.45.44-.69.01-.78-.28-.43-.88.44-.76.9-1.53,1.26-2.33.53-1.17.44-2.35-.17-3.47Z"/>
    </g>
  </g>
</svg>