<?xml version="1.0" encoding="UTF-8"?>
<svg id="Layer_1" data-name="Layer 1" xmlns="http://www.w3.org/2000/svg" viewBox="0 0 150 100">
  <defs>
    <style>
      .cls-1 {
        fill: #fff;
        stroke-width: 0px;
      }
    </style>
  </defs>
  <g id="Layer_1-2" data-name="Layer 1-2">
    <g>
      <path class="cls-1" d="m46.34,54.25c-.85.66-1.65,1.36-2.53,1.96-.94.63-1.99,1.03-3.15,1.03-2.31,0-3.85-1.52-3.95-3.89v-.68c-.2.27-.32.42-.42.57-.86,1.22-1.79,2.37-2.98,3.28-.51.39-1.06.69-1.73.74-.88.06-1.44-.39-1.81-1.12-.5-1-.5-2.05-.27-3.13.42-2,1.32-3.8,2.23-5.61.35-.69.66-1.4.93-2.12.09-.22.04-.68-.08-.74-.27-.11-.68-.15-.9,0-.6.39-1.17.85-1.69,1.35-2.65,2.58-4.32,5.74-5.51,9.2-.17.49-.18,1.04-.2,1.56,0,.39-.26.51-.52.62-.74.3-1.73-.06-2.06-.82-.23-.52-.28-1.13-.4-1.64-.55.73-1.15,1.56-1.79,2.36-1.82,2.28-3.84,4.35-6.35,5.87-1.81,1.1-3.72,1.91-5.87,1.92-3.57,0-6.28-2.17-7.04-5.66-.5-2.25-.21-4.46.45-6.64,1.1-3.63,2.53-7.11,4.85-10.16,1.38-1.81,2.93-3.45,4.7-4.86,1.71-1.36,3.66-2.17,5.88-2.03,2.23.14,3.73,1.29,4.36,3.43.87,3.01.43,5.77-1.86,8.08-.36.36-.77.51-1.27.44-.8-.12-1.54-.39-2.07-1.05-.33-.41-.29-.68.1-1.02,1.77-1.52,2.64-3.5,2.82-5.8.03-.45-.05-.93-.19-1.37-.21-.68-.66-.98-1.31-.69-.86.37-1.72.81-2.44,1.4-2.59,2.12-4.53,4.77-6.04,7.74-1.29,2.54-2.38,5.17-2.96,7.97-.3,1.46-.34,2.91,0,4.37.83,3.48,3.53,4.73,6.76,3.17,1.8-.87,3.24-2.21,4.61-3.64,2.65-2.78,4.91-5.87,6.58-9.32,2.01-4.15,3.76-8.44,5.58-12.69.27-.64.63-1.32.39-2.09-.03-.08.14-.27.25-.33.84-.39,1.7-.39,2.47.15.69.48.92,1.24.71,2.02-.38,1.34-.8,2.67-1.33,3.96-.59,1.47-1.31,2.89-1.97,4.33-.07.15-.13.31-.24.58.62-.52,1.1-.98,1.64-1.36.51-.35,1.04-.68,1.63-.88,1.27-.43,2.32.17,2.67,1.46.31,1.15.24,2.33-.16,3.42-.59,1.61-1.35,3.16-2.04,4.74-.32.73-.66,1.44-.92,2.19-.09.24-.03.67.15.83.27.27.68.15.92-.13.92-1.04,1.91-2.05,2.7-3.19.91-1.31,1.66-2.73,2.41-4.14,1.07-2,2.37-3.77,4.49-4.78.9-.43,1.86-.64,2.86-.58,1.48.09,2.2,1.05,1.88,2.5-.36,1.64-1.34,2.89-2.57,3.97-1.09.96-2.32,1.68-3.72,2.06-.35.09-.53.27-.56.63-.05.87-.2,1.76-.13,2.62.09,1.05.71,1.41,1.76,1.16,1.31-.32,2.29-1.16,3.23-2.07,1.76-1.73,3.07-3.74,4.04-6.01,1.49-3.48,3.07-6.94,4.58-10.42.29-.68.48-1.4.71-2.11.03-.09.08-.21.05-.3-.19-.63.21-.78.68-.92,1.44-.41,2.65.39,2.64,1.88,0,.98-.21,1.99-.47,2.95-.72,2.55-1.96,4.89-3.14,7.25-.71,1.41-1.45,2.82-2.17,4.21,1.32.35,3.86-.17,4.46-1.87.13-.35.37-.46.68-.31.33.15.5.47.26.76-.41.51-.85,1.05-1.37,1.44-.94.68-2.07.91-3.24.93-.3,0-.43.08-.45.39-.25,3.16-1.26,6.1-2.54,8.96-.66,1.47-1.45,2.87-2.54,4.06-.63.68-1.33,1.31-2.29,1.52-1.28.27-2.03-.28-2.06-1.58-.04-1.6.41-3.11.96-4.58.68-1.84,1.46-3.65,2.19-5.47.03-.08.05-.15.08-.21h-.03Zm5.24-2.59c-.08-.02-.15-.03-.23-.05-.34.68-.68,1.34-1.02,2.02-1.45,2.84-2.91,5.68-4.33,8.53-.35.7-.57,1.47-.8,2.23-.05.15.03.46.14.52.14.07.43.03.56-.09.37-.33.74-.68,1.03-1.09,2.04-2.89,3.43-6.09,4.28-9.52.21-.84.27-1.7.39-2.56h0Zm-10.5-1.47c2.35-.81,4.07-2.29,4.95-4.62.12-.33.14-.71.11-1.05-.03-.39-.33-.59-.7-.43-.35.15-.72.35-.99.62-1.58,1.54-2.52,3.48-3.36,5.5h0Z"/>
      <path class="cls-1" d="m109.59,43.39c.67-.59,1.7-.68,2.56-.25.66.33,1.1,1.22,1,2.12-.15,1.46-.77,2.75-1.43,4.02-.68,1.32-1.44,2.59-2.11,3.91-.31.59-.54,1.22-.76,1.86-.06.18,0,.54.09.59.21.09.52.1.71,0,.33-.18.62-.45.86-.73,1.62-1.76,3.05-3.68,4.06-5.85,1.81-3.88,3.48-7.81,5.21-11.72.25-.57.45-1.16.63-1.75.09-.26.2-.58.11-.8-.18-.47.09-.61.41-.71,1.39-.44,3.36.14,2.9,2.28-.33,1.55-.96,3.05-1.52,4.55-.39,1.04-.91,2.05-1.42,3.18.2-.13.31-.21.42-.28,1.35-.97,2.78-1.22,4.33-.48,1.28.61,1.89,1.67,2.05,3.01.21,1.76-.33,3.38-1.01,4.96-.76,1.76-1.79,3.34-3.27,4.6.03.05.06.1.09.15.63-.32,1.33-.56,1.9-.96,1.78-1.23,3.1-2.93,4.36-4.67.92-1.26,1.45-2.7,2.05-4.11,1.41-3.33,2.84-6.66,4.23-10,.23-.56.53-1.13.3-1.79-.03-.08.2-.31.34-.37.82-.34,1.64-.3,2.37.21.69.49.9,1.26.7,2.03-.31,1.22-.62,2.45-1.13,3.59-1.28,2.85-2.67,5.64-4,8.47-.82,1.75-1.62,3.5-2.4,5.27-.17.39-.28.82-.34,1.24-.03.24.09.51.14.76.25-.07.57-.06.74-.21.51-.46.99-.96,1.43-1.49,1.54-1.92,2.83-3.98,3.9-6.21.98-2.02,2.42-3.65,4.56-4.53.91-.38,1.86-.55,2.83-.42,1.16.15,1.79.97,1.64,2.14-.21,1.63-1.11,2.88-2.24,3.97-1.17,1.13-2.53,1.96-4.11,2.4-.31.09-.49.23-.51.55-.06.91-.21,1.82-.14,2.71.1,1.06.74,1.44,1.76,1.11.66-.21,1.33-.51,1.88-.93,2.23-1.69,3.87-3.86,5.06-6.38.03-.08.07-.15.11-.23.15-.31.39-.44.72-.29.34.15.39.44.23.73-.45.81-.87,1.64-1.38,2.43-1.24,1.93-2.7,3.67-4.61,4.98-1.11.76-2.33,1.27-3.72,1.22-2.1-.09-3.58-1.59-3.67-3.73,0-.22,0-.45,0-.84-.19.25-.3.38-.4.51-.86,1.21-1.76,2.39-2.98,3.28-.41.3-.88.57-1.36.71-1.13.32-2.12-.21-2.41-1.34-.18-.72-.13-1.5-.17-2.24,0-.16.03-.33.07-.59-.54.58-1.01,1.1-1.49,1.61-2.57,2.68-5.76,3.2-9.25,2.62-1.09-.18-1.68-1.05-1.61-2.14.03-.47.25-.8.7-.91.45-.11.85.03,1.06.45s.11.8-.28,1.1c-.03.02-.03.06-.05.12.21.33.55.36.84.17.45-.29.92-.59,1.23-1,1.84-2.3,3.3-4.81,3.69-7.8.08-.61.04-1.24-.06-1.85-.16-.94-.89-1.31-1.73-.86-.53.29-1.03.71-1.44,1.16-1.35,1.47-2.35,3.19-3.23,4.97-.74,1.5-1.35,3.06-1.96,4.61-.16.41-.08.91-.17,1.35-.04.21-.2.45-.37.55-.64.39-1.64.09-2.11-.57-.45-.64-.5-1.34-.33-2.08.05-.23.11-.46.1-.74-.2.24-.37.51-.59.72-.76.74-1.5,1.52-2.32,2.2-.33.28-.82.47-1.27.53-1.29.18-2.13-.54-2.36-1.95-.05-.33-.05-.68-.09-1.14-.15.19-.24.31-.34.43-.51.58-.97,1.22-1.54,1.73-1.25,1.09-2.67,1.24-4.2.55-1.46-.66-2-1.88-2.11-3.36-.12-1.5.34-2.9.89-4.26.84-2.05,1.95-3.94,3.8-5.25,1.4-1,2.97-1.47,4.69-.99,1.04.29,1.62,1.28,1.39,2.28-.1.42-.35.73-.77.7-.33-.03-.72-.17-.92-.4-.28-.31-.15-.71.15-1.03.05-.06.1-.13.28-.33-.36-.05-.66-.19-.83-.09-.44.22-.9.48-1.21.85-1.83,2.22-3.28,4.66-3.78,7.53-.14.76-.08,1.59.07,2.35.21,1.04,1.11,1.33,1.9.63.52-.46,1-1.01,1.37-1.6,1.77-2.83,3.24-5.8,4.49-8.9.2-.5.46-1.03.06-1.58v.02Zm31.22,6.84c.16-.03.23-.02.29-.04,2.05-.75,3.57-2.11,4.55-4.06.19-.38.29-.81.34-1.23.09-.78-.35-1.06-1.05-.68-.28.15-.55.36-.78.59-1.09,1.09-1.86,2.39-2.54,3.74-.27.53-.51,1.07-.8,1.68h0Z"/>
      <path class="cls-1" d="m88.46,43.82c-.06.17-.09.35-.18.48-1.15,1.63-2.59,2.79-4.71,2.71-2.54-.09-3.89-1.91-3.32-4.52.68-3.16,2.76-5.11,5.63-6.34,1.64-.7,3.36-.69,5.09-.58,3.5.23,6.93.98,10.36,1.63,2.47.46,4.93,1.1,7.47.88,1.05-.09,2.11-.31,3.13-.62.87-.27,1.64-.76,1.56-1.91,0-.09.28-.28.44-.28,1.11-.03,2.88.98,3.07,2.32.21,1.51-.55,2.83-2.02,3.31-1.18.39-2.41.37-3.59.15-3.84-.72-7.68-1.49-11.51-2.28-3.13-.64-6.23-1.36-9.42-1.65-1.64-.15-3.17.1-4.49,1.16-1.08.86-1.7,1.94-1.42,3.38.25,1.24,1.41,2.13,2.81,2.17.34,0,.68,0,1.09,0h.02Z"/>
      <path class="cls-1" d="m97.6,42.41c-.06,1.52-.51,2.96-1.03,4.36-1.18,3.14-2.47,6.25-3.68,9.38-.72,1.85-1.4,3.71-2.05,5.58-.21.59-.21,1.26-.37,1.87-.06.25-.23.55-.45.68-1.32.75-3.07-.22-3-1.73.05-1.05.23-2.14.57-3.13,1.47-4.31,3.04-8.58,4.55-12.87.49-1.38.94-2.77,1.35-4.18.12-.41.04-.88.1-1.31.02-.14.14-.33.26-.37.92-.35,1.88-.46,2.83-.07.8.33.95,1.03.9,1.81v-.02Z"/>
      <path class="cls-1" d="m64.6,46.14c-.42.74-.8,1.41-1.17,2.08-.06.1-.09.27-.18.3-.26.08-.55.2-.78.13-.32-.09-.26-.4-.13-.65.46-.86.92-1.74,1.4-2.59.15-.27.14-.48-.02-.75-.55-1.01-.68-2.06-.09-3.11.52-.93,1.76-1.35,2.75-.95.46.19.8.65.67,1.21-.15.64-.42,1.27-.7,1.87-.13.28-.12.43.07.68.62.8,1.26,1.61,1.76,2.48.97,1.65,1.56,3.42,1.28,5.43.2-.21.41-.42.58-.66.74-1.05,1.49-2.11,2.21-3.18.21-.32.4-.54.78-.34.37.19.39.5.2.83-1.46,2.65-3.28,5.04-5.75,6.82-.97.69-2.16,1.16-3.31,1.51-1.54.46-2.87-.34-3.3-1.78-.5-1.63.17-3.22,1.62-3.79.3-.12.7-.17.98-.06.27.1.57.43.63.7.04.24-.17.68-.39.79-.27.14-.68.05-1.01,0-.13-.02-.23-.19-.37-.32-.56.76-.73,1.58-.43,2.45.3.88,1.19,1.22,2.01.79,1.26-.68,1.86-1.82,2.1-3.16.37-2.05-.19-3.96-.97-5.83-.12-.28-.27-.55-.43-.89h0Z"/>
      <path class="cls-1" d="m58.65,39.54c.62-.49,1.94-.46,2.43.05.15.15.25.39.27.59.22,1.94-.49,3.52-2.03,4.69-.33.25-.82.37-1.24.38-.59,0-.67-.24-.37-.75.38-.65.77-1.31,1.08-1.99.45-1,.38-2.01-.15-2.97h0Z"/>
    </g>
  </g>
</svg>