<?xml version="1.0" encoding="UTF-8"?>
<svg id="Layer_2" data-name="Layer 2" xmlns="http://www.w3.org/2000/svg" viewBox="0 0 158.49 58.45">
  <defs>
    <style>
      .cls-1, .cls-2, .cls-3, .cls-4, .cls-5 {
        isolation: isolate;
      }

      .cls-2 {
        letter-spacing: -.02em;
      }

      .cls-2, .cls-3, .cls-6, .cls-4, .cls-5 {
        fill: #fff;
      }

      .cls-2, .cls-3, .cls-4, .cls-5 {
        font-family: Aptos-Light, Aptos;
        font-size: 10.53px;
        font-weight: 300;
      }

      .cls-6 {
        stroke-width: 0px;
      }

      .cls-7 {
        letter-spacing: 0em;
      }

      .cls-4 {
        letter-spacing: -.03em;
      }

      .cls-5 {
        letter-spacing: -.04em;
      }
    </style>
  </defs>
  <g id="Layer_2-2" data-name="Layer 2-2">
    <g>
      <path class="cls-6" d="m42.3,43.23c-2.23,1.66-4.74,2.96-7.5,3.9-2.76.93-5.65,1.39-8.7,1.39s-6.97-.64-10.14-1.89c-3.17-1.28-5.92-3.01-8.32-5.22s-4.26-4.79-5.61-7.72c-1.34-2.94-2.03-6.08-2.03-9.41s.68-6.49,2.03-9.43c1.34-2.94,3.21-5.51,5.61-7.72,2.4-2.21,5.15-3.96,8.32-5.22C19.13.63,22.5.02,26.1.02s.32,0,.48,0h.84c2.98,0,5.83.41,8.54,1.21,2.71.8,5.2,1.94,7.45,3.37v8.95c-1.09-2.48-2.53-4.65-4.28-6.54-1.75-1.87-3.74-3.33-5.99-4.37-2.23-1.05-4.63-1.57-7.15-1.57s-5.26.59-7.63,1.8-4.47,2.87-6.24,4.99c-1.8,2.12-3.19,4.58-4.24,7.41-1.03,2.83-1.55,5.83-1.55,9.05s.52,6.22,1.55,9.02c1.03,2.8,2.44,5.26,4.24,7.38,1.8,2.12,3.87,3.78,6.24,4.99s4.92,1.8,7.63,1.8h.09c2.94,0,5.72-.46,8.39-1.34,2.64-.89,5.06-2.14,7.2-3.74l.62.87v-.05h.02v-.02Z"/>
      <g>
        <polygon class="cls-6" points="87.67 5.38 87.67 12.74 80.26 5.38 87.67 5.38"/>
        <polygon class="cls-6" points="87.62 45.78 89.42 48.51 80.35 48.51 82.13 45.78 82.13 19.53 80.35 16.77 82.13 16.77 87.62 16.77 87.62 45.78"/>
      </g>
      <path class="cls-6" d="m121.87,45.78l1.73,2.73h-8.98l1.73-2.73v-16.66c0-2.83-.55-5.29-1.64-7.34-1.09-2.07-2.51-3.35-4.22-3.83h0c-.16-.05-.32-.09-.5-.09s-.23-.02-.34-.02h0c-1.18,0-2.32.16-3.46.46l-6.06,1.53-.34.09v25.89l1.75,2.73h-9l1.75-2.73v-26.27l-1.78-2.73h7.25v2.05l6.15-1.55c1.23-.32,2.44-.5,3.6-.5s1.69.11,2.51.27c1.89.41,3.58,1.18,5.04,2.35,1.48,1.16,2.64,2.57,3.51,4.24.87,1.69,1.3,3.51,1.3,5.47v16.66h.05-.05v-.02Z"/>
      <path class="cls-6" d="m70.19,47.6l6.97-5.54-2.57,6.59h-28.05l2.28-3.21V3.58l-2.28-3.21h10.85l-2.28,3.21v44.02h15.11-.03Z"/>
      <path class="cls-6" d="m154.16,19.64l-11.37,13.12,15.7,15.86h-9.09l.75-1.16-11.26-10.6-4.9,5.56v3.46l1.75,2.73h-9.05l1.78-2.73V4.03l-1.78-2.71,7.27-1.03v40.63l18.78-21.26.64-2.73h4.94l-4.19,2.73h.05l-.02-.02h0Z"/>
    </g>
    <g>
      <g class="cls-1">
        <text class="cls-3" transform="translate(-.79 58.42)"><tspan x="0" y="0">M</tspan></text>
        <text class="cls-3" transform="translate(7.37 58.42)"><tspan x="0" y="0">&amp;</tspan></text>
        <text class="cls-3" transform="translate(14.06 58.42)"><tspan x="0" y="0">A</tspan></text>
      </g>
      <g class="cls-1">
        <text class="cls-3" transform="translate(31.73 58.31)"><tspan x="0" y="0">I</tspan></text>
        <text class="cls-3" transform="translate(34.3 58.31)"><tspan x="0" y="0">n</tspan></text>
        <text class="cls-3" transform="translate(39.9 58.31)"><tspan x="0" y="0">v</tspan></text>
        <text class="cls-3" transform="translate(44.33 58.31)"><tspan class="cls-7" x="0" y="0">e</tspan><tspan x="5.34" y="0">s</tspan></text>
        <text class="cls-3" transform="translate(54.58 58.31)"><tspan x="0" y="0">tment</tspan></text>
      </g>
      <g class="cls-1">
        <text class="cls-5" transform="translate(92.38 58.36)"><tspan x="0" y="0">T</tspan></text>
        <text class="cls-4" transform="translate(96.8 58.36)"><tspan x="0" y="0">r</tspan></text>
        <text class="cls-3" transform="translate(99.82 58.36)"><tspan x="0" y="0">ans</tspan></text>
        <text class="cls-2" transform="translate(115.92 58.36)"><tspan x="0" y="0">f</tspan></text>
        <text class="cls-3" transform="translate(118.76 58.36)"><tspan x="0" y="0">orm</tspan></text>
        <text class="cls-3" transform="translate(136.58 58.36)"><tspan x="0" y="0">a</tspan></text>
        <text class="cls-3" transform="translate(141.96 58.36)"><tspan x="0" y="0">tion</tspan></text>
      </g>
      <circle class="cls-6" cx="25.8" cy="57.85" r=".46"/>
      <circle class="cls-6" cx="86.94" cy="57.85" r=".46"/>
    </g>
  </g>
</svg>