<?xml version="1.0" encoding="UTF-8"?>
<svg id="Layer_2" data-name="Layer 2" xmlns="http://www.w3.org/2000/svg" viewBox="0 0 125.65 48.99">
  <defs>
    <style>
      .cls-1 {
        fill: #fff;
        stroke-width: 0px;
      }
    </style>
  </defs>
  <g id="Layer_2-2" data-name="Layer 2">
    <g>
      <path class="cls-1" d="M124.8,36.07h-5.92l6.14-18.98c.17-.57-.14-.96-.69-.96h-12.75c-.52,0-.83.31-.83.83v3.22c0,.52.31.83.83.83h5.23l-6.18,18.98c-.17.57.14.96.74.96h13.45c.52,0,.83-.31.83-.83v-3.22c0-.52-.31-.83-.83-.83"/>
      <path class="cls-1" d="M108.82,37.08v-20.11c0-.52-.31-.83-.83-.83h-4.92c-.57,0-.88.31-.88.83v1.74h-.48c-.43-1.82-1.74-2.87-4.13-2.87-3.61,0-5.66,2.36-5.66,10.14v5.18c0,7.79,2,10.1,5.66,10.1s4.04-1.22,4.44-3.48h.52l.57,2.44c.14.48.43.74.91.74h4.57c.6,0,.83-.39.74-.91l-.52-2.96h0ZM102.21,32.46c0,3.22-.52,3.92-1.79,3.92s-1.74-.69-1.74-3.87v-8.19c0-3.22.57-3.92,1.74-3.92s1.79.69,1.79,3.96v8.1h0Z"/>
      <path class="cls-1" d="M89.81,16.18l-4.75,3.39h-.31v-2.61c0-.52-.31-.83-.83-.83h-4.66c-.52,0-.83.31-.83.83v23.16c0,.52.31.83.83.83h4.96c.57,0,.83-.31.83-.83v-13.88l5.23-3.75c.39-.31.52-.57.52-1v-4.78c0-.65-.48-.91-1-.52"/>
      <path class="cls-1" d="M76.01,37.08v-20.11c0-.52-.31-.83-.83-.83h-4.92c-.57,0-.88.31-.88.83v1.74h-.48c-.43-1.82-1.74-2.87-4.13-2.87-3.61,0-5.66,2.36-5.66,10.14v5.18c0,7.79,2,10.1,5.66,10.1s4.04-1.22,4.44-3.48h.52l.57,2.44c.14.48.43.74.91.74h4.57c.6,0,.83-.39.74-.91l-.52-2.96h0ZM69.39,32.46c0,3.22-.52,3.92-1.79,3.92s-1.74-.69-1.74-3.87v-8.19c0-3.22.57-3.92,1.74-3.92s1.79.69,1.79,3.96v8.1h0Z"/>
      <path class="cls-1" d="M46.72,7.87h-7.14c-.57,0-.83.31-.83.83v31.42c0,.52.26.83.83.83h7.14c7.09,0,10.36-3.22,10.36-14.37v-4.35c0-11.44-3.48-14.37-10.36-14.37M50.11,29.63c0,4.87-.91,5.83-3.22,5.83h-1.31V13.22h1.31c2.31,0,3.22.83,3.22,5.83v10.58Z"/>
    </g>
    <path class="cls-1" d="M27.87,7.26L15.6.2c-.72-.43-1.29-.15-1.29.72v15.06l12.2,7.03c.72.43.72,1.07,0,1.5l-10.9,6.28c-.72.43-1.29.15-1.29-.72v-14.09L.75,23.79c-.54.32-.75.68-.75,1.29v14.98c0,.6.21.97.75,1.29l12.8,7.39c.54.32.97.32,1.5,0l12.8-7.39c.54-.32.75-.68.75-1.29V8.56c0-.6-.21-.97-.75-1.29"/>
  </g>
</svg>