<?xml version="1.0" encoding="UTF-8"?>
<svg id="Layer_2" data-name="Layer 2" xmlns="http://www.w3.org/2000/svg" viewBox="0 0 169.05 51.59">
  <defs>
    <style>
      .cls-1 {
        fill: #fff;
        stroke-width: 0px;
      }
    </style>
  </defs>
  <g id="Layer_2-2" data-name="Layer 2">
    <g>
      <g>
        <path class="cls-1" d="M0,43.72h3.93v1.13H1.41v2.12h2.38v1.13H1.41v3.38H0v-7.77.03Z"/>
        <path class="cls-1" d="M14.06,43.72h1.41v7.77h-1.41v-7.77Z"/>
        <path class="cls-1" d="M26.05,43.72h1.7l2.59,6.1h0v-6.1h1.28v7.77h-1.7l-2.57-6.05h0v6.05h-1.28v-7.77h-.03Z"/>
        <path class="cls-1" d="M46.07,49.61h-2.67l-.55,1.86h-1.41l2.62-7.77h1.57l2.51,7.77h-1.47l-.55-1.86h-.05ZM45.78,48.53l-.97-3.64h0l-1.07,3.64h2.07-.03Z"/>
        <path class="cls-1" d="M57.88,43.72h1.7l2.59,6.1h0v-6.1h1.28v7.77h-1.7l-2.57-6.05h0v6.05h-1.28v-7.77h-.03Z"/>
        <path class="cls-1" d="M78.95,51.31c-.29.16-.97.29-1.68.29-2.36,0-3.56-1.73-3.56-4.01s1.2-4.01,3.53-4.01,1.44.21,1.73.31l-.08,1.28c-.29-.16-.73-.42-1.47-.42-1.18,0-2.2.81-2.2,2.83s1.02,2.83,2.2,2.83,1.15-.16,1.47-.39l.08,1.31-.03-.03Z"/>
        <path class="cls-1" d="M89.11,43.72h4.08v1.13h-2.67v2.07h2.51v1.13h-2.51v2.28h2.77v1.13h-4.19v-7.77.05Z"/>
      </g>
      <path class="cls-1" d="M78.58,12.83c-1.62-3.3-3.95-5.94-7.02-7.91-3.12-2.02-6.49-3.04-10.1-3.04h-11.91c-1.65,0-2.96,1.34-2.98,2.96v35.84h14.89c2.07,0,4.14-.34,6.13-1.05,3.8-1.34,6.91-3.72,9.35-7.15,2.43-3.43,3.64-7.17,3.64-11.23s-.65-5.71-1.99-8.43h0ZM67.85,28.32c-1.96,2.64-4.95,3.95-8.9,3.95h-2.3V10.31h2.3c3.95,0,6.91,1.31,8.9,3.95,1.49,1.99,2.25,4.32,2.25,7.02s-.76,5.03-2.25,7.04Z"/>
      <path class="cls-1" d="M0,40.68h7.09c1.65,0,2.98-1.34,2.98-2.98V1.88H2.98C1.34,1.88,0,3.22,0,4.87v35.81h0Z"/>
      <path class="cls-1" d="M24.21,27.83h6.31c4.97,0,8.51-1.49,10.65-4.45,1.65-2.28,2.49-5.18,2.49-8.69s-1.02-6.49-3.06-8.77c-2.38-2.67-5.84-4.01-10.42-4.01h-13.06c-1.65,0-2.98,1.34-2.98,2.98v35.81h7.09c1.65,0,2.98-1.34,2.98-2.98v-9.89h0ZM32.09,18.27c-.81.94-2.33,1.41-4.5,1.41h-3.38v-9.66h3.4c2.04,0,3.48.45,4.32,1.31.84.86,1.28,2.02,1.28,3.46s-.37,2.62-1.13,3.48Z"/>
      <path class="cls-1" d="M112.22,33.98c-.45-2.25-2.57-3.77-4.82-3.48-.97.26-1.94.39-2.98.39-2.62,0-4.9-.79-6.83-2.36-2.46-1.99-3.66-4.71-3.66-8.17s1.23-6.2,3.66-8.22c1.94-1.57,4.21-2.36,6.83-2.36s1.86.13,2.72.34c2.33.42,4.58-1.1,5.05-3.46l.92-4.71c-3.35-1.31-6.36-1.96-9.06-1.96-4.95,0-9.35,1.57-13.22,4.69-4.92,4.01-7.38,9.21-7.38,15.65s2.46,11.62,7.38,15.63c3.87,3.12,8.25,4.69,13.14,4.69s5.86-.65,9.14-1.96l-.92-4.74.03.03Z"/>
      <g>
        <path class="cls-1" d="M140.73,6.7h-1.41c-3.27,0-4.53,2.51-4.63,2.85-13.32,34.71-38.72,41.91-38.72,41.91,0,0,29.24-7.72,44.76-44.76Z"/>
        <g>
          <path class="cls-1" d="M153.84.05c-2.43.08-3.72,1.73-4.16,2.49h10.71c-14.11,38.38-46.36,46.65-59.11,48.43,13.82-1.83,50.91-10.47,67.77-50.91h-15.23.03Z"/>
          <path class="cls-1" d="M146.28,3.53h12.59c-18.04,46.83-62.9,47.93-62.9,47.93,0,0,30.57-7.72,45.97-45.08,0,0,1.15-2.85,4.35-2.85h0Z"/>
        </g>
      </g>
    </g>
  </g>
</svg>