<?xml version="1.0" encoding="UTF-8"?>
<svg id="Layer_2" data-name="Layer 2" xmlns="http://www.w3.org/2000/svg" viewBox="0 0 98.56 71.79">
  <defs>
    <style>
      .cls-1 {
        isolation: isolate;
      }

      .cls-2 {
        fill: #fff;
        stroke-width: 0px;
      }
    </style>
  </defs>
  <g id="Layer_2-2" data-name="Layer 2">
    <g class="cls-1">
      <g id="Layer_1-2" data-name="Layer 1">
        <g>
          <path class="cls-2" d="M64.63,17.61h-14.83c.22-.11.42-.25.62-.39,1.26-.95,2.11-2.47,2.11-4.21s-.81-3.23-2.11-4.18c-.39-.28-.81-.53-1.26-.7.37-.67.79-1.29,1.26-1.88.22-.28.48-.56.73-.81,1.52-1.54,3.15-2.39,4.33-2.84,0,0,.06.06.08.06.81.7,2.11,1.01,3.23.62.17-.06.42-.17.7-.37.14-.08.31-.22.48-.39.45-.51.56-1.1.59-1.35-.62-.76-1.54-1.15-2.47-1.15s-.73.06-1.1.2c-.79.28-1.43.87-1.8,1.63-1.26.48-2.98,1.38-4.58,3.01-.06.06-.11.11-.14.14-.81.87-1.52,1.83-2.05,2.86-.37-.08-.73-.11-1.12-.11-1.88,0-3.54.98-4.47,2.47l-.28-.14-.14-1.99-2.05-1.04-.11-1.8v-.22l-1.97-.95-.14-2.16-2.28-1.12-2.11,1.4.11,1.88-1.66,1.12-1.83-.9-2.11,1.4.14,2.16-1.91,1.26.17,2.67,1.66.81.14,2.28,2.33,1.15.11,1.91h.06c-2.39.59-4.52,1.83-6.21,3.51-2.36,2.36-3.82,5.62-3.82,9.18,0,7.16,5.84,13,13,13h30.7c3.57,0,6.83-1.46,9.18-3.82s3.82-5.59,3.82-9.18c0-7.16-5.84-13-13-13M57.18.98c.87-.31,1.83-.11,2.5.53-.17.25-.37.51-.62.67l-.2.14h-.08c-.06.08-.11.11-.2.14-.06,0-.11.06-.14.06-.81.31-1.74.11-2.42-.48,0,0-.06-.03-.08-.06.28-.45.7-.81,1.24-.98M43,11.6c.06-.17.11-.34.2-.48,0-.03.03-.08.06-.11.08-.14.14-.28.25-.39.79-1.21,2.16-2.02,3.71-2.02s.51,0,.76.06c-.14.34-.28.67-.39,1.01,0,.03,0,.22.11.34.14.14.45.11.65-.08.06-.17.14-.34.2-.53.06-.17.14-.37.22-.53.62.22,1.18.59,1.63,1.07.81.81,1.29,1.94,1.29,3.12s-.48,2.33-1.29,3.12c-.81.81-1.94,1.32-3.17,1.32-1.77,0-3.29-1.04-4.02-2.53-.03-.06-.06-.14-.08-.2,0-.03-.03-.08-.06-.14-.11-.25-.17-.53-.22-.79-.06-.25-.08-.53-.08-.81,0-.48.08-.95.22-1.4M42.78,17.16l-.08-1.49c0,.06.06.08.08.14.48.76,1.12,1.38,1.91,1.8h-2.56l.67-.45h-.03ZM39.04,17.05l-.11-1.69,1.38-.9,1.71.87.08,1.52-1.15.76h-.81l-1.12-.56h.03ZM42.27,11.23c-.2.56-.31,1.15-.31,1.77s.03.73.11,1.07l-1.12-.56-.08-1.52,1.26-.84.14.08h0ZM41.76,8.48l.08,1.49-1.77,1.15-1.35-.67-.11-1.8,1.49-.98,1.63.81h.03ZM38.76,17.61h-.06.06ZM39.57,5.42l.11,1.8-1.49.98-1.49-.76-.11-1.94,1.38-.93,1.6.81v.03ZM33.28,14.16l-.11-1.57,1.69-1.1,1.26.62.11,1.88-1.4.93-1.54-.79v.03ZM34.6,17.33l-.42.28h-.28c-.67,0-1.32.06-1.97.14h0l-.45-.22-.11-1.71,1.57-1.04,1.52.76.11,1.8h.03ZM35.02,8.82l1.24-.84,1.6.81.11,1.66-1.6,1.07-1.24-.62-.14-2.08h.03ZM36.57,14.55l1.71.84.11,1.69-.81.53h-1.57l-.7-.34-.11-1.8,1.38-.93ZM35.89,1.52l1.63.81.11,1.8-1.35.9-1.66-.81-.06-.59-.08.06-.06-1.15,1.49-.98-.03-.03ZM32.55,8.51l1.35.67.08,1.52-1.26.84-1.35-.67-.08-1.52,1.26-.84ZM28.9,5.98l1.49-.98,1.6.79.11,1.69-1.6,1.07-1.49-.76-.11-1.8h0ZM30.87,14.8l-1.35-.67-.08-1.46,1.32-.87,1.29.65.08,1.52-1.26.84h0ZM64.63,42.1h-30.7c-6.35,0-11.49-5.17-11.49-11.52s5.17-11.49,11.49-11.49h30.7c6.35,0,11.52,5.17,11.52,11.49s-5.17,11.52-11.52,11.52"/>
          <path class="cls-2" d="M50.81,7.47v.06h.03s0-.03-.06-.06"/>
          <path class="cls-2" d="M50.81,7.47v.06h.03s0-.03-.06-.06"/>
          <path class="cls-2" d="M50.67,14.13c-.11.2-.39.28-.56.17s-.22-.31-.17-.51c.17-.34.34-.93.25-1.6-.06-.45-.2-.9-.45-1.29-.03-.17.06-.34.2-.42s.31-.06.45.03c.2.28.51.81.62,1.6.14.95-.17,1.71-.34,2.02"/>
          <path class="cls-2" d="M73.53,26.32h-14.58v-6.24h4.69c4.41,0,8.23,2.56,9.89,6.24"/>
          <path class="cls-2" d="M74.46,30.47c0,1.1-.17,2.13-.51,3.12h-15v-6.35h14.97c.34,1.01.53,2.11.53,3.23"/>
          <path class="cls-2" d="M73.59,34.52c-.56,1.24-1.35,2.33-2.3,3.29-1.97,1.88-4.66,3.06-7.61,3.06h-4.69v-6.32h14.63l-.03-.03Z"/>
          <path class="cls-2" d="M26.18,26.77c-.06.45.25.81.65.87.34.06.67-.17.81-.53.17-.67.56-1.69,1.46-2.61.59-.59,1.32-1.07,2.11-1.35.25-.22.34-.56.2-.84-.11-.28-.37-.45-.67-.45-.59.17-1.69.59-2.7,1.6-1.29,1.26-1.71,2.7-1.85,3.29"/>
          <path class="cls-2" d="M75.33,47.13H22.3c-.42,0-.79-.37-.79-.79v-.62c0-.42.37-.79.79-.79h53.03c.42,0,.79.37.79.79v.62c0,.42-.37.79-.79.79"/>
          <path class="cls-2" d="M6.63,70.1h.34v1.63H.67v-9.1c0-.25-.06-.45-.14-.56s-.25-.2-.53-.2v-.31h2.33v.31c-.25,0-.42.06-.51.17s-.14.28-.14.53v8.17h4.18c.25,0,.45-.06.56-.14s.17-.25.17-.53"/>
          <path class="cls-2" d="M29.72,61.57h.37v.34c-.25,0-.42.06-.51.17s-.14.28-.14.48v4.89c0,1.38-.37,2.44-1.12,3.2-.76.76-1.8,1.15-3.15,1.15s-2.39-.39-3.15-1.15-1.12-1.83-1.12-3.2v-4.86c0-.08,0-.17-.06-.25,0-.11-.06-.17-.11-.22s-.11-.08-.2-.14c-.08-.03-.2-.06-.31-.06v-.31h2.36v.34c-.28,0-.45.06-.53.2s-.14.34-.14.62v4.72c0,1.04.28,1.85.87,2.44.56.59,1.38.87,2.39.87s1.8-.28,2.39-.87c.56-.59.84-1.4.84-2.44v-4.75c0-.28-.06-.48-.14-.62s-.25-.2-.51-.2v-.31h1.97v-.03Z"/>
          <path class="cls-2" d="M44.12,61.57h8.03v1.63h-.34c0-.11,0-.22-.06-.31-.03-.08-.08-.14-.11-.2-.06-.06-.11-.08-.22-.11-.11,0-.2-.03-.25-.03h-5.36v3.34h4.77c.22,0,.37-.08.48-.17.11-.08.17-.25.17-.51h.31v2.22h-.31c0-.11,0-.22-.06-.31-.03-.08-.08-.14-.14-.2s-.11-.08-.22-.08-.2-.03-.25-.03h-4.77v3.96h5.34c.06,0,.14,0,.25-.03.11,0,.17-.06.22-.08.06-.06.08-.11.14-.2.03-.08.06-.2.06-.34h.31v1.66h-8.03v-.34c.25,0,.39-.06.51-.17.08-.11.14-.28.17-.48v-8.26c0-.2-.08-.37-.17-.48-.08-.11-.25-.17-.51-.17v-.31l.06-.03Z"/>
          <path class="cls-2" d="M75.81,61.57h.37v.34c-.25,0-.42.06-.51.17s-.14.28-.14.48v4.89c0,1.38-.37,2.44-1.12,3.2-.76.76-1.8,1.15-3.15,1.15s-2.39-.39-3.15-1.15-1.12-1.83-1.12-3.2v-4.86c0-.08,0-.17-.06-.25,0-.11-.06-.17-.11-.22s-.11-.08-.2-.14c-.08-.03-.2-.06-.31-.06v-.31h2.36v.34c-.28,0-.45.06-.53.2s-.14.34-.14.62v4.72c0,1.04.28,1.85.87,2.44.56.59,1.38.87,2.39.87s1.8-.28,2.39-.87c.56-.59.84-1.4.84-2.44v-4.75c0-.28-.06-.48-.14-.62s-.25-.2-.51-.2v-.31h1.97v-.03Z"/>
          <path class="cls-2" d="M97.29,70.1c.22.45.42.79.62.98s.39.31.65.31v.34h-1.57l-1.85-3.85c-.34.06-.67.08-1.04.08h-2.13v2.89c0,.17.08.31.17.39s.25.14.48.14v.34h-2.33v-.31c.2,0,.37-.06.45-.14.11-.11.17-.2.17-.31v-.62h0v-7.92c-.03-.17-.08-.31-.17-.39s-.25-.14-.48-.14v-.31h3.82c.84,0,1.57.14,2.19.39s1.07.65,1.35,1.1c.31.48.45,1.01.45,1.63.03.65-.14,1.26-.51,1.8s-.87.93-1.49,1.15l1.21,2.47.03-.03ZM94.06,67.01c.65,0,1.21-.11,1.66-.31.45-.2.79-.48.98-.81.2-.34.31-.76.31-1.21,0-.67-.25-1.18-.73-1.57-.51-.39-1.24-.59-2.19-.59h-2.13v4.49h2.13-.03Z"/>
        </g>
      </g>
    </g>
  </g>
</svg>