<?xml version="1.0" encoding="UTF-8"?>
<svg id="Layer_1" data-name="Layer 1" xmlns="http://www.w3.org/2000/svg" viewBox="0 0 150 100">
  <defs>
    <style>
      .cls-1 {
        fill: #fff;
        stroke-width: 0px;
      }
    </style>
  </defs>
  <g id="Layer_2-2" data-name="Layer 2-2">
    <g id="Layer_1-2" data-name="Layer 1-2">
      <g>
        <path class="cls-1" d="m89.97,32.15h-14.46c.21-.11.41-.24.6-.38,1.23-.93,2.06-2.41,2.06-4.11s-.79-3.15-2.06-4.08c-.38-.27-.79-.52-1.23-.68.36-.65.77-1.26,1.23-1.83.21-.27.47-.55.71-.79,1.48-1.5,3.07-2.33,4.22-2.77,0,0,.06.06.08.06.79.68,2.06.98,3.15.6.17-.06.41-.17.68-.36.14-.08.3-.21.47-.38.44-.5.55-1.07.58-1.32-.6-.74-1.5-1.12-2.41-1.12s-.71.06-1.07.2c-.77.27-1.39.85-1.76,1.59-1.23.47-2.91,1.35-4.47,2.94-.06.06-.11.11-.14.14-.79.85-1.48,1.78-2,2.79-.36-.08-.71-.11-1.09-.11-1.83,0-3.45.96-4.36,2.41l-.27-.14-.14-1.94-2-1.01-.11-1.76v-.21l-1.92-.93-.14-2.11-2.22-1.09-2.06,1.37.11,1.83-1.62,1.09-1.78-.88-2.06,1.37.14,2.11-1.86,1.23.17,2.6,1.62.79.14,2.22,2.27,1.12.11,1.86h.06c-2.33.58-4.41,1.78-6.06,3.42-2.3,2.3-3.73,5.48-3.73,8.95,0,6.98,5.7,12.68,12.68,12.68h29.94c3.48,0,6.66-1.42,8.95-3.73s3.73-5.45,3.73-8.95c0-6.98-5.7-12.68-12.68-12.68m-7.27-16.24c.85-.3,1.78-.11,2.44.52-.17.24-.36.5-.6.65l-.2.14h-.08c-.06.08-.11.11-.2.14-.06,0-.11.06-.14.06-.79.3-1.7.11-2.36-.47,0,0-.06-.03-.08-.06.27-.44.68-.79,1.21-.96m-13.83,10.34c.06-.17.11-.33.2-.47,0-.03.03-.08.06-.11.08-.14.14-.27.24-.38.77-1.18,2.11-1.97,3.62-1.97s.5,0,.74.06c-.14.33-.27.65-.38.98,0,.03,0,.21.11.33.14.14.44.11.63-.08.06-.17.14-.33.2-.52.06-.17.14-.36.21-.52.6.21,1.15.58,1.59,1.04.79.79,1.26,1.89,1.26,3.04s-.47,2.27-1.26,3.04c-.79.79-1.89,1.29-3.09,1.29-1.73,0-3.21-1.01-3.92-2.47-.03-.06-.06-.14-.08-.2,0-.03-.03-.08-.06-.14-.11-.24-.17-.52-.21-.77-.06-.24-.08-.52-.08-.79,0-.47.08-.93.21-1.37m-.2,5.39l-.08-1.45c0,.06.06.08.08.14.47.74,1.09,1.35,1.86,1.76h-2.5l.65-.44h-.03,0Zm-3.65-.11l-.11-1.65,1.35-.88,1.67.85.08,1.48-1.12.74h-.79l-1.09-.55h.03,0Zm3.15-5.68c-.2.55-.3,1.12-.3,1.73s.03.71.11,1.04l-1.09-.55-.08-1.48,1.23-.82.14.08h0Zm-.5-2.68l.08,1.45-1.73,1.12-1.32-.65-.11-1.76,1.45-.96,1.59.79s.03,0,.03,0Zm-2.93,8.9h-.06.06Zm.79-11.89l.11,1.76-1.45.96-1.45-.74-.11-1.89,1.35-.91,1.56.79v.03h0Zm-6.13,8.52l-.11-1.53,1.65-1.07,1.23.6.11,1.83-1.37.91-1.5-.77v.03h0Zm1.29,3.09l-.41.27h-.27c-.65,0-1.29.06-1.92.14h0l-.44-.21-.11-1.67,1.53-1.01,1.48.74.11,1.76h.03,0Zm.41-8.3l1.21-.82,1.56.79.11,1.62-1.56,1.04-1.21-.6-.14-2.03h.03Zm1.51,5.59l1.67.82.11,1.65-.79.52h-1.53l-.68-.33-.11-1.76,1.35-.91h0Zm-.66-12.71l1.59.79.11,1.76-1.32.88-1.62-.79-.06-.58-.08.06-.06-1.12,1.45-.96-.03-.03h0Zm-3.26,6.82l1.32.65.08,1.48-1.23.82-1.32-.65-.08-1.48,1.23-.82Zm-3.56-2.47l1.45-.96,1.56.77.11,1.65-1.56,1.04-1.45-.74-.11-1.76h0Zm1.92,8.6l-1.32-.65-.08-1.42,1.29-.85,1.26.63.08,1.48-1.23.82h0Zm32.92,26.62h-29.94c-6.19,0-11.21-5.04-11.21-11.23s5.04-11.21,11.21-11.21h29.94c6.19,0,11.23,5.04,11.23,11.21s-5.04,11.23-11.23,11.23"/>
        <path class="cls-1" d="m76.49,22.27v.06h.03s0-.03-.06-.06"/>
        <path class="cls-1" d="m76.49,22.27v.06h.03s0-.03-.06-.06"/>
        <path class="cls-1" d="m76.36,28.76c-.11.2-.38.27-.55.17s-.21-.3-.17-.5c.17-.33.33-.91.24-1.56-.06-.44-.2-.88-.44-1.26-.03-.17.06-.33.2-.41s.3-.06.44.03c.2.27.5.79.6,1.56.14.93-.17,1.67-.33,1.97"/>
        <path class="cls-1" d="m98.65,40.65h-14.22v-6.09h4.57c4.3,0,8.03,2.5,9.64,6.09"/>
        <path class="cls-1" d="m99.56,44.69c0,1.07-.17,2.08-.5,3.04h-14.63v-6.19h14.6c.33.98.52,2.06.52,3.15"/>
        <path class="cls-1" d="m98.71,48.64c-.55,1.21-1.32,2.27-2.24,3.21-1.92,1.83-4.54,2.98-7.42,2.98h-4.57v-6.16h14.27s-.03-.03-.03-.03Z"/>
        <path class="cls-1" d="m52.47,41.09c-.06.44.24.79.63.85.33.06.65-.17.79-.52.17-.65.55-1.65,1.42-2.55.58-.58,1.29-1.04,2.06-1.32.24-.21.33-.55.2-.82-.11-.27-.36-.44-.65-.44-.58.17-1.65.58-2.63,1.56-1.26,1.23-1.67,2.63-1.8,3.21"/>
        <path class="cls-1" d="m100.4,60.94h-51.71c-.41,0-.77-.36-.77-.77v-.6c0-.41.36-.77.77-.77h51.71c.41,0,.77.36.77.77v.6c0,.41-.36.77-.77.77"/>
        <path class="cls-1" d="m33.41,83.34h.33v1.59h-6.14v-8.87c0-.24-.06-.44-.14-.55s-.24-.2-.52-.2v-.3h2.27v.3c-.24,0-.41.06-.5.17s-.14.27-.14.52v7.97h4.08c.24,0,.44-.06.55-.14s.17-.24.17-.52"/>
        <path class="cls-1" d="m55.93,75.02h.36v.33c-.24,0-.41.06-.5.17s-.14.27-.14.47v4.77c0,1.35-.36,2.38-1.09,3.12-.74.74-1.76,1.12-3.07,1.12s-2.33-.38-3.07-1.12-1.09-1.78-1.09-3.12v-4.74c0-.08,0-.17-.06-.24,0-.11-.06-.17-.11-.21s-.11-.08-.2-.14c-.08-.03-.2-.06-.3-.06v-.3h2.3v.33c-.27,0-.44.06-.52.2s-.14.33-.14.6v4.6c0,1.01.27,1.8.85,2.38.55.58,1.35.85,2.33.85s1.76-.27,2.33-.85c.55-.58.82-1.37.82-2.38v-4.63c0-.27-.06-.47-.14-.6s-.24-.2-.5-.2v-.3h1.92v-.03h0Z"/>
        <path class="cls-1" d="m69.97,75.02h7.83v1.59h-.33c0-.11,0-.21-.06-.3-.03-.08-.08-.14-.11-.2-.06-.06-.11-.08-.21-.11-.11,0-.2-.03-.24-.03h-5.23v3.26h4.65c.21,0,.36-.08.47-.17.11-.08.17-.24.17-.5h.3v2.16h-.3c0-.11,0-.21-.06-.3-.03-.08-.08-.14-.14-.2s-.11-.08-.21-.08-.2-.03-.24-.03h-4.65v3.86h5.21c.06,0,.14,0,.24-.03.11,0,.17-.06.21-.08.06-.06.08-.11.14-.2.03-.08.06-.2.06-.33h.3v1.62h-7.83v-.33c.24,0,.38-.06.5-.17.08-.11.14-.27.17-.47v-8.06c0-.2-.08-.36-.17-.47-.08-.11-.24-.17-.5-.17v-.3l.06-.03-.02.03Z"/>
        <path class="cls-1" d="m100.87,75.02h.36v.33c-.24,0-.41.06-.5.17s-.14.27-.14.47v4.77c0,1.35-.36,2.38-1.09,3.12-.74.74-1.76,1.12-3.07,1.12s-2.33-.38-3.07-1.12-1.09-1.78-1.09-3.12v-4.74c0-.08,0-.17-.06-.24,0-.11-.06-.17-.11-.21s-.11-.08-.2-.14c-.08-.03-.2-.06-.3-.06v-.3h2.3v.33c-.27,0-.44.06-.52.2s-.14.33-.14.6v4.6c0,1.01.27,1.8.85,2.38.55.58,1.35.85,2.33.85s1.76-.27,2.33-.85c.55-.58.82-1.37.82-2.38v-4.63c0-.27-.06-.47-.14-.6s-.24-.2-.5-.2v-.3h1.92v-.03h0Z"/>
        <path class="cls-1" d="m121.82,83.34c.21.44.41.77.6.96s.38.3.63.3v.33h-1.53l-1.8-3.75c-.33.06-.65.08-1.01.08h-2.08v2.82c0,.17.08.3.17.38s.24.14.47.14v.33h-2.27v-.3c.2,0,.36-.06.44-.14.11-.11.17-.2.17-.3v-.6h0v-7.72c-.03-.17-.08-.3-.17-.38s-.24-.14-.47-.14v-.3h3.73c.82,0,1.53.14,2.14.38s1.04.63,1.32,1.07c.3.47.44.98.44,1.59.03.63-.14,1.23-.5,1.76s-.85.91-1.45,1.12l1.18,2.41.03-.03h-.02Zm-3.15-3.01c.63,0,1.18-.11,1.62-.3.44-.2.77-.47.96-.79.2-.33.3-.74.3-1.18,0-.65-.24-1.15-.71-1.53-.5-.38-1.21-.58-2.14-.58h-2.08v4.38h2.08s-.03,0-.03,0Z"/>
      </g>
    </g>
  </g>
</svg>