<?xml version="1.0" encoding="UTF-8"?>
<svg id="Layer_2" data-name="Layer 2" xmlns="http://www.w3.org/2000/svg" viewBox="0 0 168.41 56.07">
  <defs>
    <style>
      .cls-1 {
        fill: #fff;
        stroke-width: 0px;
      }
    </style>
  </defs>
  <g id="Layer_1-2" data-name="Layer 1">
    <g>
      <path class="cls-1" d="m33.72,46.14c-1.84-.84-3.52-1.6-5.19-2.38-2.06-.96-4.1-1.96-6.19-2.87-.76-.33-.99-.75-.99-1.56.03-7.14.02-14.28.02-21.41,0-.51,0-1.03,0-1.8-.87.71-1.57,1.27-2.27,1.85-2.06,1.72-4.11,3.46-6.2,5.15-.28.22-.85.38-1.14.25-3.76-1.7-7.5-3.46-11.25-5.21-.15-.07-.26-.19-.52-.39,1.74-1.47,3.41-2.89,5.08-4.3C10.23,9.16,15.39,4.86,20.52.51c.64-.54,1.14-.68,1.92-.3,3.42,1.64,6.85,3.23,10.3,4.79.8.36,1.11.82,1.1,1.71-.06,3.07-.03,6.14-.03,9.21,0,.34,0,.68,0,1.18.34-.2.54-.3.71-.43,2.52-2.09,5.04-4.18,7.53-6.31.54-.46.98-.57,1.66-.25,3.54,1.7,7.09,3.36,10.66,4.99.64.29.82.66.82,1.34-.02,12.86-.01,25.72-.01,38.58,0,.3-.04.6-.07,1.04-.48-.2-.85-.33-1.22-.5-3.4-1.58-6.79-3.19-10.21-4.74-.75-.34-.98-.76-.98-1.56.03-7.17.02-14.34.02-21.52,0-.47,0-.93,0-1.65-.77.64-1.35,1.11-1.92,1.59-2.07,1.72-4.12,3.45-6.21,5.15-.56.45-.8.94-.79,1.67.03,3.41.02,6.83.01,10.24,0,.4-.05.79-.09,1.39Z"/>
      <path class="cls-1" d="m80.55,25.58c1.25-2.12,2.4-4.07,3.55-6.02.68-1.16,1.34-2.33,2.07-3.46.19-.29.62-.59.95-.6,2.38-.04,1.96-.24,1.97,1.83.03,4.17-.02,8.34.03,12.52.01,1.02-.23,1.49-1.31,1.34-.5-.07-1.02-.06-1.62-.09v-9.56c-.07-.02-.13-.05-.2-.07-.47.76-.95,1.52-1.41,2.28-1,1.65-1.98,3.31-2.98,4.96-.6,1-1.65.98-2.26-.03-1.42-2.35-2.85-4.7-4.47-7.01v9.39h-2.99c0-.41,0-.77,0-1.14,0-4.34-.01-8.69.02-13.03,0-.47.16-1.22.46-1.35.97-.42,2.11-.04,2.53.65,1.7,2.83,3.4,5.67,5.1,8.5.14.23.29.46.56.87Z"/>
      <path class="cls-1" d="m120.29,31.08c0-2.08,0-4.07,0-6.06,0-1.65.03-3.31-.01-4.96-.02-.72.24-1,.95-.95.57.04,1.15,0,1.77,0,.06.45.1.78.15,1.12,3.13-1.8,5.21-1.68,7.74.49,1.24-1.06,2.66-1.72,4.36-1.71,2.99.02,4.82,1.63,4.96,4.64.11,2.27.05,4.55,0,6.82,0,.23-.38.63-.63.66-.71.09-1.43.03-2.32.03,0-1.19,0-2.27,0-3.36,0-1.07,0-2.14,0-3.21-.02-1.89-.97-3.01-2.54-3.01-1.61,0-2.9,1.25-2.94,2.98-.05,1.86-.06,3.72,0,5.58.02.84-.29,1.1-1.08,1.03-.58-.05-1.17,0-1.92,0,0-1.12,0-2.17,0-3.22,0-1.17.02-2.34-.01-3.52-.04-1.69-.94-2.72-2.4-2.84-1.53-.13-2.89.95-3.04,2.61-.14,1.61-.09,3.24-.1,4.86-.02,2.47.26,2.1-2.16,2.09-.2,0-.4-.03-.78-.07Z"/>
      <path class="cls-1" d="m114.54,31.11c-.03-.4-.04-.71-.07-1.18-1.37,1.13-2.89,1.52-4.55,1.35-1.64-.17-3.05-.81-4.08-2.14-1.72-2.22-1.7-5.82.03-8,1.82-2.29,4.82-2.67,8.47-.99,0-1.53.06-2.99-.02-4.45-.05-.98.3-1.25,1.24-1.22,2.05.07,1.72-.1,1.72,1.71.01,4.55,0,9.09,0,13.64,0,.41,0,.81,0,1.28h-2.74Zm-.21-5.89c.02-2.16-1.33-3.64-3.32-3.65-1.99-.01-3.47,1.51-3.46,3.57,0,2.09,1.44,3.6,3.43,3.6,1.96,0,3.34-1.45,3.36-3.52Z"/>
      <path class="cls-1" d="m145.4,26.14c.33,2.69,3.5,3.34,6.81,1.4.48.54.98,1.1,1.5,1.69-.9,1.3-2.19,1.75-3.61,2-3.78.66-7.12-1.35-7.75-4.77-.45-2.45.14-4.65,2.19-6.18,2.07-1.55,4.43-1.72,6.75-.62,2.25,1.07,3.13,3.06,3.25,5.48.04.85-.29,1.04-1.08,1.03-2.68-.04-5.36-.02-8.06-.02Zm-.04-2.15h6.11c-.13-1.5-1.38-2.55-2.99-2.58-1.59-.04-2.91,1.03-3.12,2.58Z"/>
      <path class="cls-1" d="m99.57,24.01c-.37-2.74-2.61-3.16-6.49-1.38-.3-.56-.65-1.1-.88-1.7-.07-.18.09-.62.27-.72,2.52-1.4,5.16-1.7,7.83-.5,1.63.73,2.19,2.25,2.25,3.91.07,2.24.02,4.48.05,6.72,0,.64-.27.81-.87.83-1.73.05-1.73.07-2.18-.86-1.5,1.03-3.17,1.23-4.91.83-1.86-.42-3.1-1.89-3.03-3.54.08-1.83,1.28-3.12,3.29-3.38,1.16-.15,2.33-.15,3.5-.2.37-.02.74,0,1.18,0Zm-.09,2.13c-1.18,0-2.32-.1-3.43.05-.52.07-1.1.55-1.4,1.01-.17.26.05.94.3,1.28.54.73,2.18.83,3.27.31,1.06-.51,1.46-1.29,1.26-2.64Z"/>
      <path class="cls-1" d="m71.88,51.59c0-.45,0-.79,0-1.12,0-4.44.03-8.89-.02-13.33-.01-.98.32-1.23,1.23-1.19,2.47.11,4.99-.12,7.41.29,4.34.73,6.56,4.13,6.14,8.82-.31,3.52-3.47,6.36-7.39,6.52-2.4.09-4.81.02-7.37.02Zm1.91-1.38c2.36-.19,4.61-.16,6.77-.58,2.5-.49,4.18-2.76,4.34-5.28.18-2.86-1.19-5.19-3.68-6.2-2.26-.92-4.63-.43-6.95-.48-.16,0-.46.41-.46.63-.03,3.85-.02,7.71-.02,11.91Z"/>
      <path class="cls-1" d="m159.56,31.15c-.91,0-1.69.05-2.47-.03-.2-.02-.51-.44-.51-.68-.03-3.52-.01-7.03-.02-10.55,0-.59.28-.8.83-.77.31.01.62.03.93,0,.79-.08,1.28.17,1.19,1.2,1.7-1.2,3.46-1.59,5.37-1.12,2.06.51,3.33,1.75,3.45,3.86.15,2.64.04,5.3.04,8.1-.83,0-1.61.06-2.38-.04-.2-.02-.5-.5-.5-.78-.04-1.86-.01-3.72-.03-5.58-.01-1.99-.86-3.05-2.5-3.16-1.74-.12-3.12.98-3.29,2.85-.16,1.71-.08,3.44-.11,5.16,0,.47,0,.95,0,1.54Z"/>
      <path class="cls-1" d="m96.07,53.23c1.7.44,3.18,1.06,4.7,1.17,3.18.22,4.73-1.68,4.24-5.02-1.58,1.64-3.5,2.05-5.61,1.71-1.46-.23-2.65-.94-3.55-2.12-1.68-2.2-1.45-5.76.47-7.6,1.79-1.73,5.69-2.73,8.81.23.04-.6.07-1.12.1-1.62,1.55-.36,1.67-.28,1.67,1.17,0,3,.08,6-.03,9-.04,1.17-.29,2.42-.78,3.48-.89,1.94-2.8,2.33-4.7,2.43-1.67.09-3.3-.18-4.8-1-1.32-.72-1.33-.82-.52-1.82Zm4.69-3.6c2.45.02,4.35-1.76,4.41-4.12.06-2.38-1.85-4.23-4.38-4.25-2.39-.02-4.23,1.77-4.23,4.13,0,2.5,1.7,4.22,4.21,4.24Z"/>
      <path class="cls-1" d="m134.84,51.58c-1.05.22-1.84.23-1.68-1.22-1.73,1.38-3.55,1.73-5.53,1.19-1.79-.49-2.69-1.67-2.62-3.46.06-1.68.95-2.7,2.81-3.02,1.01-.17,2.05-.14,3.08-.18.68-.02,1.37,0,2.02,0,.69-1.98-.75-3.87-3.31-3.57-1.23.15-2.41.69-3.68,1.07-.83-1.02-.8-1.22.53-1.86,1.7-.82,3.48-1.06,5.33-.63,1.73.41,2.94,1.62,3.01,3.37.12,2.75.03,5.5.03,8.3Zm-3.88-5.36s0-.05,0-.08c-.92.09-1.89.04-2.75.32-.56.18-1.16.77-1.37,1.32-.3.76.01,1.54.78,2.05,1.66,1.1,4.54.31,5.35-1.49.65-1.44.23-2.13-1.28-2.13-.24,0-.48,0-.72,0Z"/>
      <path class="cls-1" d="m122.56,49.7c.86,1.04.78,1.41-.34,1.81-2.81,1.01-5.01-.52-5.01-3.49,0-1.86-.04-3.72.02-5.58.03-.86-.25-1.2-1.11-1.11-.55.06-1.01,0-1-.79.01-.74.46-.79.95-.72.93.13,1.19-.25,1.15-1.15-.06-1.55,0-1.55,1.72-1.34,0,.54.03,1.11,0,1.68-.04.58.19.82.77.8.69-.02,1.38.02,2.07,0,.58-.02.91.24.75.78-.08.29-.44.66-.71.7-.67.11-1.37.07-2.06.04-.63-.03-.82.24-.81.86.03,1.89,0,3.79.01,5.68.02,2.02,1.34,2.84,3.18,2.02.15-.07.3-.14.43-.2Z"/>
      <path class="cls-1" d="m140.18,51.63h-1.61c-.02-.36-.06-.69-.06-1.02,0-4.82,0-9.64-.01-14.46,0-.61-.06-1.16.86-1.16.88,0,.89.5.89,1.14,0,4.82,0,9.64,0,14.46,0,.31-.03.61-.06,1.04Z"/>
      <path class="cls-1" d="m89.87,51.65c0-3.86-.01-7.54.04-11.23,0-.21.5-.52.8-.59.44-.09.9-.04.9.64-.01,3.52.04,7.03-.04,10.55-.03,1.18-.99.49-1.7.63Z"/>
      <path class="cls-1" d="m112.43,51.62h-1.66c0-2.16,0-4.26,0-6.35,0-1.38,0-2.76,0-4.13,0-1.44.05-1.47,1.66-1.2v11.69Z"/>
      <path class="cls-1" d="m90.64,37.46c-.75-.09-1.17-.54-1.14-1.3.04-.79.59-1.15,1.33-1.11.73.04,1.15.53,1.12,1.22-.03.75-.52,1.16-1.31,1.18Z"/>
      <path class="cls-1" d="m111.64,35.05c.76.03,1.26.41,1.24,1.19-.02.75-.48,1.21-1.25,1.2-.73,0-1.18-.46-1.2-1.15-.03-.76.43-1.19,1.22-1.24Z"/>
    </g>
  </g>
</svg>