<?xml version="1.0" encoding="UTF-8"?>
<svg id="Layer_2" data-name="Layer 2" xmlns="http://www.w3.org/2000/svg" viewBox="0 0 146.21 35.69">
  <defs>
    <style>
      .cls-1 {
        fill: #fff;
        stroke-width: 0px;
      }
    </style>
  </defs>
  <g id="Layer_1-2" data-name="Layer 1">
    <g>
      <path class="cls-1" d="m95.45,0c-2.76,6.77-5.4,13.28-8.05,19.77-2.03,4.98-4.1,9.94-6.1,14.94-.18.44-.38.76-.64.98h7.86c.83-2.22,1.57-4.2,2.33-6.16.1-.26.35-.66.54-.67,2.02-.05,4.03-.06,6.05-.02.19,0,.42.39.54.64.1.21.06.48.08.72.25,3.51.35,4.92-.85,5.49h8.21V0h-9.98Zm-2.24,22.77c1.82-5.22,3.59-10.29,5.26-15.05v15.05h-5.26Z"/>
      <path class="cls-1" d="m121.55,2.15c.2-1.12.54-1.82,1.14-2.15h-8.51c-.65,3.46-1.26,6.86-1.92,10.25-1.56,8.08-3.17,16.16-4.7,24.25-.1.51-.21.93-.44,1.19h8.04c.5-2.69.97-5.27,1.46-7.84,1.65-8.56,3.39-17.11,4.92-25.7Z"/>
      <path class="cls-1" d="m141,23.98c-.35-1.66-1.21-3.21-1.92-5,3.32-1.56,5.69-4.46,6.71-8.4.99-3.84.32-7.32-2.78-10.58h-16.76c-2.3,11.98-4.58,23.8-6.87,35.69h7.65c.78-4.28,1.49-8.35,2.28-12.39.08-.43.69-1.14.95-1.09.9.15,2.07.34,2.56.96.62.79.89,2.01.95,3.07.14,2.86.13,5.73.07,8.59,0,.25-.2.62-.43.88h8.35c-.12-2.11-.24-4.09-.35-6.06-.11-1.89-.02-3.82-.41-5.65Zm-4.13-10.92c-1.38,2.31-3.06,3.08-5.93,2.55.43-2.47.86-4.96,1.3-7.44.12-.66.17-1.34.4-1.96.27-.72.74-1.96,1.07-1.95,1.2.05,2.67.21,3.49.93,1.65,1.45,1.32,5.08-.34,7.86Z"/>
      <path class="cls-1" d="m34.66,9.07c-.41-4.58.6-3.72-4.34-3.85-1.01-.03-1.54.26-1.75,1.37-.5,2.7-1.18,5.36-1.76,8.05-.47,2.19-.9,4.38-1.35,6.57-1.14-4.16-1.98-8.28-2.97-12.37-1.03-4.26-.05-3.47-4.57-3.63-1.49-.05-1.82.52-1.91,1.91-.47,7.25-1.05,14.5-1.62,21.75-.08,1.01-.35,1.94,1.23,2.05,2.79.19,3.31.03,3.41-1.69.25-4.52.43-9.04.64-13.44,1.01,4.31,2.09,8.63,3.02,12.99.28,1.3.86,1.69,2.12,1.62,1.18-.07,2.22.12,2.57-1.54.9-4.28,2-8.53,3.04-12.86.17,3.79.36,7.49.5,11.2.15,4.05.64,4.41,4.91,3.41,0-.99.05-2.02,0-3.04-.36-6.16-.61-12.33-1.16-18.48Z"/>
      <path class="cls-1" d="m66.84,18.09c2.62-2.22,3-5.12,2.22-8.19-.7-2.74-2.81-4.15-5.53-4.41-2.25-.21-4.53,0-6.8-.04-1.46-.03-1.84.61-1.83,2,.07,7.22.03,14.43.04,21.65,0,.53.08,1.05.14,1.8.98,0,1.83,0,2.68,0q2.5,0,2.51-2.56c0-2.48,0-4.95,0-7.5,1.94-.02,2.54,1.05,2.81,2.38.42,2.03.72,4.08,1.17,6.11.12.53.55,1.37.89,1.4,1.6.15,3.22.07,5.18.07-1.85-4.13-.91-8.72-4.3-12.07.34-.26.58-.44.81-.64Zm-6.4-1.62v-6.92c2.44-.11,3.47.86,3.53,3.2.06,2.47-1.09,3.74-3.53,3.72Z"/>
      <path class="cls-1" d="m43.79,5.2c-1.43,0-1.91.56-2.18,1.84-.9,4.36-1.9,8.7-2.84,13.06-.76,3.49-1.48,6.99-2.21,10.48,4.34,1,4.96.63,5.81-3.28.04-.18.13-.36.12-.53-.03-1.44.83-1.54,2.03-1.67,1.96-.21,2.84.49,2.94,2.4.04.78.19,1.59.47,2.33.15.41.64.96,1.01.99,1.33.12,2.67.05,4.32.05-1.45-7.47-2.79-14.54-4.22-21.59-.83-4.13-.89-4.05-5.27-4.07Zm-.36,15.63c.47-2.82.94-5.6,1.41-8.38.1.01.19.02.29.03.42,2.74.85,5.47,1.29,8.35h-3Z"/>
      <path class="cls-1" d="m9.19,16.08c-.87-.57-1.93-1.03-2.52-1.81-.59-.78-1.17-2.09-.89-2.83.3-.76,1.6-1.42,2.56-1.58,1.02-.17,2.15.3,3.42.52.24-1.09.58-2.26.71-3.44.04-.39-.36-1.05-.73-1.23C7.17,3.42,1.28,6.29.35,11.26c-.64,3.42,1.03,5.88,3.64,7.86.93.71,1.96,1.28,2.85,2.02,1.15.96,1.92,2.14,1.14,3.69-.75,1.5-2.17,1.71-3.63,1.53-1.2-.15-2.37-.49-3.65-.77-.08.4-.15.69-.2.98-.67,3.88-1.44,3.73,3.35,4.42,4.36.63,8.09-1.57,9.29-5.03,1.3-3.76-.14-7.38-3.95-9.88Z"/>
      <path class="cls-1" d="m82.52,10.19c1.33.03,2-.31,1.82-1.73-.06-.48-.05-.98,0-1.46.15-1.37-.48-1.82-1.82-1.79-2.95.07-5.91.02-8.87.02-4.01,0-4.23.25-3.63,4.27.03.17.13.33.24.59.53.02,1.07.06,1.62.07q2.49.03,2.5,2.48c0,5.44.05,10.87-.03,16.31-.02,1.53.51,2.15,2.02,1.96.3-.04.62,0,.92,0,2.47,0,2.48,0,2.48-2.38,0-5.19,0-10.38,0-15.57,0-2.75,0-2.81,2.75-2.76Z"/>
    </g>
  </g>
</svg>