<?xml version="1.0" encoding="utf-8"?>
<!-- Generator: Adobe Illustrator 28.0.0, SVG Export Plug-In . SVG Version: 6.00 Build 0)  -->
<svg version="1.1" id="Layer_1" xmlns="http://www.w3.org/2000/svg" xmlns:xlink="http://www.w3.org/1999/xlink" x="0px" y="0px"
	 viewBox="0 0 1024 1024" style="enable-background:new 0 0 1024 1024;" xml:space="preserve">
<style type="text/css">
	.st0{display:none;fill-rule:evenodd;clip-rule:evenodd;fill:#FF0000;}
	.st1{fill-rule:evenodd;clip-rule:evenodd;fill:#FFFFFF;}
	.st2{fill-rule:evenodd;clip-rule:evenodd;}
</style>
<rect x="0" class="st0" width="1024" height="1024"/>
<path class="st1" d="M640,973.4c0-17.3,0.6-72.3,0.6-140.8c0-48-16-78.7-34.6-94.7c113.9-12.8,233.6-56.3,233.6-252.8
	c0-56.3-19.8-101.8-52.5-137.6c5.1-12.8,23-65.3-5.1-135.7c0,0-42.9-14.1-140.8,52.5c-41-11.5-84.5-17.3-128-17.3
	c-43.5,0-87,5.8-128,17.3c-97.9-65.9-140.8-52.5-140.8-52.5c-28.2,70.4-10.2,122.9-5.1,135.7c-32.6,35.8-52.5,81.9-52.5,137.6
	c0,195.8,119,240,233,252.8c-14.7,12.8-28.2,35.2-32.6,68.5c-29.4,13.4-103,35.2-149.1-42.2c-9.6-15.4-38.4-53.1-78.7-52.5
	c-42.9,0.6-17.3,24.3,0.6,33.9c21.8,12.2,46.7,57.6,52.5,72.3c10.2,28.8,43.5,83.8,172.2,60.2c0,42.9,0.6,83.2,0.6,95.4
	c0,12.8-8.7,27.3-31.5,24.8c49.8,16.2,103,25,158.3,25c54.9,0,107.7-8.6,157.2-24.6C648.1,1000.3,640,985.8,640,973.4z"/>
<path class="st2" d="M512,0C229.1,0,0,229.1,0,512c0,226.6,146.6,417.9,350.1,485.8c25.6,4.5,35.2-10.9,35.2-24.3
	c0-12.2-0.6-52.5-0.6-95.4c-128.6,23.7-161.9-31.4-172.2-60.2c-5.8-14.7-30.7-60.2-52.5-72.3c-17.9-9.6-43.5-33.3-0.6-33.9
	c40.3-0.6,69.1,37.1,78.7,52.5c46.1,77.4,119.7,55.7,149.1,42.2c4.5-33.3,17.9-55.7,32.6-68.5c-113.9-12.8-233-57-233-252.8
	c0-55.7,19.8-101.8,52.5-137.6c-5.1-12.8-23-65.3,5.1-135.7c0,0,42.9-13.4,140.8,52.5c41-11.5,84.5-17.3,128-17.3
	c43.5,0,87,5.8,128,17.3c97.9-66.6,140.8-52.5,140.8-52.5c28.2,70.4,10.2,122.9,5.1,135.7c32.6,35.8,52.5,81.3,52.5,137.6
	c0,196.5-119.7,240-233.6,252.8c18.6,16,34.6,46.7,34.6,94.7c0,68.5-0.6,123.5-0.6,140.8c0,13.4,9.6,29.4,35.2,24.3
	C877.4,929.9,1024,737.9,1024,512C1024,229.1,794.9,0,512,0z"/>
</svg>
