<?xml version="1.0" encoding="UTF-8"?>
<svg id="Layer_2" data-name="Layer 2" xmlns="http://www.w3.org/2000/svg" xmlns:xlink="http://www.w3.org/1999/xlink" viewBox="0 0 154.29 159.44">
  <defs>
    <style>
      .cls-1 {
        fill: #fff;
        opacity: .31;
      }

      .cls-1, .cls-2, .cls-3, .cls-4 {
        stroke-width: 0px;
      }

      .cls-2 {
        fill: none;
      }

      .cls-3 {
        fill: url(#Degradado_sin_nombre_7);
        opacity: .35;
      }

      .cls-4 {
        fill: url(#Degradado_sin_nombre_8);
        opacity: .32;
      }

      .cls-5 {
        clip-path: url(#clippath);
      }
    </style>
    <radialGradient id="Degradado_sin_nombre_7" data-name="Degradado sin nombre 7" cx="76.22" cy="77.68" fx="76.22" fy="77.68" r="114.24" gradientUnits="userSpaceOnUse">
      <stop offset="0" stop-color="#fff" stop-opacity="0"/>
      <stop offset=".37" stop-color="rgba(255, 255, 255, 0)" stop-opacity="0"/>
      <stop offset=".51" stop-color="rgba(255, 255, 255, .03)" stop-opacity=".03"/>
      <stop offset=".6" stop-color="rgba(255, 255, 255, .08)" stop-opacity=".08"/>
      <stop offset=".68" stop-color="rgba(255, 255, 255, .15)" stop-opacity=".15"/>
      <stop offset=".75" stop-color="rgba(255, 255, 255, .23)" stop-opacity=".23"/>
      <stop offset=".8" stop-color="rgba(255, 255, 255, .34)" stop-opacity=".34"/>
      <stop offset=".86" stop-color="rgba(255, 255, 255, .47)" stop-opacity=".47"/>
      <stop offset=".91" stop-color="rgba(255, 255, 255, .61)" stop-opacity=".61"/>
      <stop offset=".95" stop-color="rgba(255, 255, 255, .78)" stop-opacity=".78"/>
      <stop offset=".99" stop-color="rgba(255, 255, 255, .96)" stop-opacity=".96"/>
      <stop offset="1" stop-color="#fff"/>
    </radialGradient>
    <radialGradient id="Degradado_sin_nombre_8" data-name="Degradado sin nombre 8" cx="126.62" cy="-7.69" fx="126.62" fy="-7.69" r="153.95" gradientUnits="userSpaceOnUse">
      <stop offset="0" stop-color="#fff"/>
      <stop offset=".07" stop-color="rgba(255, 255, 255, .89)" stop-opacity=".89"/>
      <stop offset=".27" stop-color="rgba(255, 255, 255, .63)" stop-opacity=".63"/>
      <stop offset=".46" stop-color="rgba(255, 255, 255, .4)" stop-opacity=".4"/>
      <stop offset=".63" stop-color="rgba(255, 255, 255, .23)" stop-opacity=".23"/>
      <stop offset=".78" stop-color="rgba(255, 255, 255, .1)" stop-opacity=".1"/>
      <stop offset=".91" stop-color="rgba(255, 255, 255, .03)" stop-opacity=".03"/>
      <stop offset="1" stop-color="#fff" stop-opacity="0"/>
    </radialGradient>
    <clipPath id="clippath">
      <rect class="cls-2" x="22.16" y="31.72" width="112.06" height="94.55"/>
    </clipPath>
  </defs>
  <g id="Layer_12" data-name="Layer 12">
    <g id="Artwork">
      <g>
        <g>
          <rect class="cls-3" x="0" y="0" width="154.29" height="159.44" rx="27.94" ry="27.94"/>
          <rect class="cls-4" x="0" y="0" width="154.29" height="159.44" rx="27.94" ry="27.94"/>
        </g>
        <g>
          <path class="cls-1" d="M25.44,65.95c1.81,0,3.28-1.47,3.28-3.28v-7.21h8.02c1.81,0,3.28-1.47,3.28-3.28s-1.47-3.28-3.28-3.28h-11.3c-1.81,0-3.28,1.47-3.28,3.28v10.49c0,1.81,1.47,3.28,3.28,3.28h0Z"/>
          <path class="cls-1" d="M36.08,119.45h-7.19v-8.04c0-1.81-1.47-3.28-3.28-3.28s-3.28,1.47-3.28,3.28v11.32c0,1.81,1.47,3.28,3.28,3.28h10.47c1.81,0,3.28-1.47,3.28-3.28s-1.47-3.28-3.28-3.28h0Z"/>
          <path class="cls-1" d="M130.86,108.96c-1.81,0-3.28,1.47-3.28,3.28v7.21h-8.02c-1.81,0-3.28,1.47-3.28,3.28s1.47,3.28,3.28,3.28h11.3c1.81,0,3.28-1.47,3.28-3.28v-10.49c0-1.81-1.47-3.28-3.28-3.28h0Z"/>
          <g class="cls-5">
            <path class="cls-1" d="M106.56,44.49l-25.89,25.95,15.18,15.2,25.89-25.95-15.18-15.2Z"/>
            <path class="cls-1" d="M133.27,48.13c1.28-1.28,1.28-3.36,0-4.64l-10.53-10.56c-.61-.62-1.45-.96-2.32-.96s-1.71.35-2.32.96l-6.89,6.91,15.18,15.2,6.89-6.91Z"/>
          </g>
          <path class="cls-1" d="M70.52,85.71c-.76,1.29-.56,2.93.5,3.99l1.01,1.01-1.71,1.71h-8.37c-.86-1.59-1.84-3.56-2.75-5.57-1.01-2.23-3.16-3.66-5.6-3.74-2.45-.08-4.68,1.22-5.83,3.38l-4.43,8.33c.51-7.03,1.16-13.07,1.94-17.94.46-2.9-1.03-5.65-3.71-6.84-2.69-1.19-5.73-.45-7.57,1.84-3.58,4.47-6.42,9.49-7.78,13.78-.55,1.73.41,3.57,2.14,4.12,1.73.55,3.57-.41,4.12-2.14,1.06-3.33,3.36-7.44,6.22-11.12-.79,5.13-1.45,11.41-1.96,18.68-.21,3.04,1.68,5.75,4.61,6.59.6.17,1.2.25,1.79.25,2.3,0,4.46-1.25,5.6-3.39l4.66-8.76c1.3,2.84,2.73,5.62,3.85,7.49.59.99,1.66,1.6,2.81,1.6h11.64c.87,0,1.71-.35,2.32-.96l2.66-2.66.24.24c.63.64,1.48.96,2.32.96.6,0,1.21-.17,1.75-.51l9.81-6.19-14.27-14.29-5.99,10.14Z"/>
        </g>
      </g>
    </g>
  </g>
</svg>