<?xml version="1.0" encoding="UTF-8"?>
<svg id="Layer_2" data-name="Layer 2" xmlns="http://www.w3.org/2000/svg" viewBox="0 0 475 30.91">
  <defs>
    <style>
      .cls-1 {
        fill: #f2f2f2;
        stroke-width: 0px;
      }
    </style>
  </defs>
  <g id="Desktop">
    <g id="Bento">
      <g>
        <path class="cls-1" d="m1.96,30.29H0V.62h1.96v29.67Z"/>
        <path class="cls-1" d="m32.92.62c2.9,0,5.19.31,6.87.93,1.68.62,2.9,1.62,3.66,2.99.73,1.4,1.1,3.35,1.1,5.84,0,2.71-.61,4.81-1.84,6.29-1.23,1.48-3.17,2.5-5.81,3.04l8.76,10.58h-2.49l-8.66-10.29h-10.67v10.29h-1.96V.62h11.05Zm8.76,5c-.61-1.13-1.58-1.94-2.92-2.42-1.53-.45-3.46-.67-5.79-.67h-9.14v15.55h9.86c3.06,0,5.31-.62,6.75-1.87,1.44-1.24,2.15-3.19,2.15-5.84,0-2.04-.3-3.63-.91-4.76Z"/>
        <path class="cls-1" d="m73.74.62c2.9,0,5.19.31,6.87.93,1.67.62,2.89,1.62,3.66,2.99.73,1.4,1.1,3.35,1.1,5.84,0,2.71-.61,4.81-1.84,6.29-1.23,1.48-3.17,2.5-5.81,3.04l8.76,10.58h-2.49l-8.66-10.29h-10.67v10.29h-1.96V.62h11.05Zm8.76,5c-.61-1.13-1.58-1.94-2.92-2.42-1.53-.45-3.46-.67-5.79-.67h-9.14v15.55h9.86c3.06,0,5.31-.62,6.75-1.87,1.44-1.24,2.15-3.19,2.15-5.84,0-2.04-.3-3.63-.91-4.76Z"/>
        <path class="cls-1" d="m123.08,2.44h-17.9v13.54h15.31l1.91,1.91h-17.23v10.38h18.42v1.91h-20.39V.53h19.86v1.91Z"/>
        <path class="cls-1" d="m160.69,23.35h-17.8l-3.21,6.94h-2.15L151.98,0l14.12,30.29h-2.2l-3.21-6.94Zm-.91-1.91l-7.7-17.18-8.28,17.18h15.98Z"/>
        <path class="cls-1" d="m184.05.62l-.38,27.76h18.18v1.91h-20.15l.38-29.67h1.96Z"/>
        <path class="cls-1" d="m249.41,30.29h-1L234.87.62h2.2l11.82,26.08,12.39-26.08h2.15l-14.02,29.67Z"/>
        <path class="cls-1" d="m281.29,30.29h-1.96V.62h1.96v29.67Z"/>
        <path class="cls-1" d="m299.61,26.27l.86.29v-.34c.06,0,.18.08.34.24.16.16.38.33.67.53,1.08.64,2.28,1.13,3.59,1.48,1.31.35,2.65.53,4.02.53,2.97,0,5.22-.53,6.77-1.58,1.55-1.05,2.32-2.57,2.32-4.55,0-2.14-1.08-3.67-3.25-4.59-.8-.35-2.2-.81-4.21-1.39l-1.34-.38c-3.67-1.08-6.33-2.33-7.99-3.73-1.66-1.4-2.49-3.11-2.49-5.12,0-2.33.93-4.19,2.8-5.58,1.87-1.39,4.33-2.08,7.39-2.08,1.85,0,3.57.18,5.17.55,1.6.37,2.92.9,3.97,1.6l1.15.81c.13.13.16.32.1.57l-.67.96-.86-.29v.29s-.1-.06-.19-.19c-.1-.1-.3-.24-.62-.43-1.02-.64-2.23-1.12-3.64-1.46-1.4-.34-2.86-.5-4.36-.5-2.49,0-4.49.53-6.01,1.58-1.52,1.05-2.27,2.42-2.27,4.12,0,1.5.71,2.81,2.13,3.92,1.42,1.12,3.64,2.12,6.68,3.02l1.58.43c2.2.61,3.88,1.16,5.05,1.68s2.1,1.25,2.8,2.23,1.05,2.31,1.05,4c0,2.55-.97,4.53-2.9,5.93-1.93,1.4-4.65,2.11-8.16,2.11-1.6,0-3.16-.19-4.69-.57s-2.86-.92-3.97-1.63c-.8-.48-1.24-.78-1.34-.91-.16-.13-.22-.34-.19-.62l.72-.91Z"/>
        <path class="cls-1" d="m340.31,27.47c-2.03-2.17-3.04-5.31-3.04-9.43V.62h1.96v17.42c0,7.18,3.29,10.77,9.86,10.77,2.42,0,4.31-.32,5.67-.96s2.39-1.69,3.09-3.16c.73-1.66,1.1-3.88,1.1-6.65V.62h1.96v17.42c0,3.1-.44,5.58-1.32,7.47s-2.21,3.24-4,4.07c-1.76.77-3.92,1.15-6.51,1.15-3.83,0-6.76-1.08-8.78-3.25Z"/>
        <path class="cls-1" d="m398.91,23.35h-17.8l-3.21,6.94h-2.15l14.45-30.29,14.12,30.29h-2.2l-3.21-6.94Zm-.91-1.91l-7.7-17.18-8.28,17.18h15.98Z"/>
        <path class="cls-1" d="m422.26.62l-.38,27.76h18.19v1.91h-20.15l.38-29.67h1.96Z"/>
        <path class="cls-1" d="m454.47,26.27l.86.29v-.34c.06,0,.18.08.34.24.16.16.38.33.67.53,1.08.64,2.28,1.13,3.59,1.48,1.31.35,2.65.53,4.02.53,2.97,0,5.22-.53,6.77-1.58,1.55-1.05,2.32-2.57,2.32-4.55,0-2.14-1.08-3.67-3.25-4.59-.8-.35-2.2-.81-4.21-1.39l-1.34-.38c-3.67-1.08-6.33-2.33-7.99-3.73-1.66-1.4-2.49-3.11-2.49-5.12,0-2.33.93-4.19,2.8-5.58,1.87-1.39,4.33-2.08,7.39-2.08,1.85,0,3.57.18,5.17.55,1.6.37,2.92.9,3.97,1.6l1.15.81c.13.13.16.32.1.57l-.67.96-.86-.29v.29s-.1-.06-.19-.19c-.1-.1-.3-.24-.62-.43-1.02-.64-2.23-1.12-3.64-1.46-1.4-.34-2.86-.5-4.36-.5-2.49,0-4.49.53-6.01,1.58-1.52,1.05-2.27,2.42-2.27,4.12,0,1.5.71,2.81,2.13,3.92,1.42,1.12,3.64,2.12,6.68,3.02l1.58.43c2.2.61,3.88,1.16,5.05,1.68s2.1,1.25,2.8,2.23,1.05,2.31,1.05,4c0,2.55-.97,4.53-2.9,5.93-1.93,1.4-4.65,2.11-8.16,2.11-1.6,0-3.16-.19-4.69-.57s-2.86-.92-3.97-1.63c-.8-.48-1.24-.78-1.34-.91-.16-.13-.22-.34-.19-.62l.72-.91Z"/>
      </g>
    </g>
  </g>
</svg>