<?xml version="1.0" encoding="UTF-8"?>
<svg id="Layer_1" data-name="Layer 1" xmlns="http://www.w3.org/2000/svg" viewBox="0 0 150 100">
  <defs>
    <style>
      .cls-1 {
        fill: #919191;
      }

      .cls-1, .cls-2, .cls-3, .cls-4 {
        stroke-width: 0px;
      }

      .cls-2 {
        fill: #333;
      }

      .cls-3 {
        fill: #fff;
      }

      .cls-4 {
        fill: #575757;
      }
    </style>
  </defs>
  <g id="Layer_2-2" data-name="Layer 2-2">
    <g>
      <path class="cls-3" d="m0,30.77v16.09h16.09v-16.09H0Zm.5.5h14.71s-.87,1.61-2.22,3.65c-2.4,3.64-5.93,8.45-12.49,8.06,0,0,0-11.71,0-11.71Zm15.09,15.09H.5v-2.49c10.26.95,15.09-12.41,15.09-12.41v14.89h0Z"/>
      <path class="cls-2" d="m5.62,35.27c-2.04,0-3.69,1.64-3.69,3.68,0,1.68,1.12,3.09,2.67,3.53,1.83-.59,3.36-1.65,4.65-2.87.04-.21.06-.43.06-.66,0-2.03-1.65-3.68-3.69-3.68"/>
      <path class="cls-4" d="m8.4,38.95c0,1.52-1.24,2.76-2.77,2.76s-2.77-1.24-2.77-2.76,1.24-2.75,2.77-2.75,2.77,1.23,2.77,2.75"/>
      <path class="cls-1" d="m7.47,38.95c0,1.02-.83,1.83-1.85,1.83s-1.84-.82-1.84-1.83.82-1.84,1.84-1.84,1.85.82,1.85,1.84"/>
      <path class="cls-3" d="m6.55,38.95c0,.51-.42.92-.92.92s-.92-.41-.92-.92.42-.92.92-.92.92.41.92.92"/>
      <path class="cls-3" d="m25.31,40.01h2.39c.84,0,1.41.14,1.75.41.33.26.5.62.5,1.06,0,.47-.17.85-.5,1.13-.33.28-.91.42-1.72.42h-2.4m-4.78,3.22h8.16c.34,0,1.06-.07,2.11-.2.81-.1,1.4-.26,1.8-.49.64-.36,1.15-.85,1.51-1.46.37-.61.56-1.31.56-2.08,0-.96-.26-1.75-.77-2.37s-1.33-1.07-2.42-1.33c.72-.23,1.26-.58,1.65-.99.57-.63.85-1.39.85-2.28,0-1.05-.39-1.94-1.19-2.65-.79-.72-1.92-1.07-3.4-1.07h-8.85v14.95-.02Zm4.77-11.9h2.09c.71,0,1.21.12,1.51.37.27.24.42.58.42,1.02,0,.47-.15.82-.42,1.07-.3.25-.82.37-1.55.37h-2.05s0-2.82,0-2.82Z"/>
      <path class="cls-3" d="m40.75,46.25v-6.07h.41c.43,0,.82.11,1.16.34.24.18.52.56.85,1.16l2.51,4.57h5.34l-2.3-4.33c-.12-.22-.33-.52-.66-.93s-.57-.67-.76-.79c-.26-.18-.67-.37-1.22-.55.71-.16,1.26-.36,1.66-.59.64-.37,1.14-.87,1.5-1.46.37-.61.55-1.31.55-2.15,0-.96-.23-1.75-.72-2.41-.47-.67-1.1-1.12-1.86-1.36-.77-.23-1.9-.37-3.35-.37h-7.87v14.95m4.76-11.93h2.06c.86,0,1.44.12,1.76.39.31.25.47.62.47,1.1,0,.33-.1.62-.29.87-.2.26-.45.41-.76.47-.62.14-1.04.21-1.25.21h-1.98v-3.04h0Z"/>
      <path class="cls-3" d="m62.36,46.25h4.95l-5.71-14.95h-5.21l-5.74,14.95h4.83l.78-2.46h5.34m-4.34-3.23l1.68-5.37,1.66,5.37h-3.35Z"/>
      <path class="cls-3" d="m77.61,40.09l4.16,1.18c-.27,1.1-.72,2.02-1.32,2.75-.6.73-1.34,1.28-2.23,1.66-.89.37-2.01.56-3.39.56-1.66,0-3.02-.22-4.08-.68-1.05-.46-1.96-1.26-2.72-2.4-.77-1.15-1.15-2.62-1.15-4.41,0-2.39.67-4.23,2.01-5.51,1.35-1.29,3.24-1.93,5.7-1.93,1.93,0,3.44.37,4.54,1.11,1.11.74,1.92,1.87,2.46,3.4l-4.19.89c-.15-.44-.3-.77-.46-.97-.26-.35-.58-.61-.97-.8-.38-.18-.82-.28-1.27-.28-1.07,0-1.89.41-2.45,1.21-.43.61-.65,1.55-.65,2.84,0,1.6.26,2.7.77,3.29.51.59,1.24.89,2.17.89s1.58-.24,2.05-.72.8-1.17,1.01-2.08"/>
      <path class="cls-3" d="m91.63,40.01h2.39c.84,0,1.41.14,1.76.41.33.26.48.62.48,1.06,0,.47-.17.85-.5,1.13-.33.28-.91.42-1.72.42h-2.41m-4.76,3.22h8.16c.35,0,1.06-.07,2.11-.2.8-.1,1.4-.26,1.8-.49.63-.36,1.14-.85,1.51-1.46.37-.61.55-1.31.55-2.08,0-.96-.26-1.75-.77-2.37-.52-.62-1.33-1.07-2.43-1.33.72-.23,1.26-.58,1.65-.99.57-.63.84-1.39.84-2.28,0-1.05-.39-1.94-1.18-2.65-.79-.72-1.91-1.07-3.39-1.07h-8.85v14.95-.02Zm4.77-11.9h2.09c.72,0,1.21.12,1.51.37.28.24.42.58.42,1.02,0,.47-.14.82-.42,1.07-.29.25-.8.37-1.54.37h-2.06v-2.82Z"/>
      <path class="cls-3" d="m112.01,46.25h4.96l-5.7-14.95h-5.22l-5.73,14.95h4.83l.77-2.46h5.34m-4.35-3.23l1.68-5.37,1.66,5.37h-3.34Z"/>
      <polyline class="cls-3" points="117.21 31.3 121.61 31.3 127.4 39.57 127.4 31.3 131.87 31.3 131.87 46.25 127.4 46.25 121.66 38.03 121.66 46.25 117.21 46.25"/>
      <polyline class="cls-3" points="133.76 31.3 138.49 31.3 138.49 36.95 143.44 31.3 149.74 31.3 144.15 36.94 150 46.25 144.17 46.25 140.95 40.15 138.49 42.63 138.49 46.25 133.76 46.25"/>
      <path class="cls-3" d="m109.5,56.42h-.03c-.27,0-.5.1-.67.28-.28.29-.31.72-.31.89v.23c-.26-.32-.54-.6-.88-.79-1.19-.62-2.47-.2-2.71-.11l-.08.1c-2.03-1.52-3.85-.12-4.31.27-.42-.21-1.25-.6-1.31-.62l.07.02c-.55-.36-.92-.27-1.15-.16-.41.24-.47.74-.49.98-.45-.69-.89-1.07-1.33-1.14-.37-.05-.6.11-.71.21l-.06.02h-.04l-.03.03c-.63.51-1.01,3.85-1.18,6.02-.32-.2-.67-.4-1.03-.59.31-.53.54-1.16.69-1.89.02-.12.49-2.91-1.53-3.57h-.03c-.32-.07-1.38-.19-2.27.43-.61.43-.98,1.11-1.12,2.03,0,.02-.04.95.58,1.51.37.32.85.43,1.43.33.12-.02.23-.08.3-.18.07-.1.1-.23.07-.36-.02-.12-.07-.22-.18-.29-.1-.07-.23-.11-.36-.08-.2.03-.47.04-.64-.12-.19-.17-.27-.47-.27-.72.09-.62.32-1.07.72-1.35.53-.38,1.22-.33,1.51-.29.76.25.92,1.14.92,1.85,0,.22-.02.44-.05.64h0c-.14.7-.37,1.3-.67,1.79l-.34.43-.05.06c-.81.86-1.71.8-1.72.8-3.5-.42-3.7-6.47-3.7-6.53,0-.27-.22-.47-.48-.47-.13,0-.25.06-.33.15s-.12.21-.12.33c0,.28.21,6.92,4.54,7.46h.02c.24.02,1.51,0,2.55-1.17.87.47,1.51.87,1.59.97.12.16.33.23.52.17.19-.07.32-.22.34-.4.24-3.35.67-5.96.91-6.21l.09-.05h0s.55.12,1.41,2.13l-.12,4.49c0,.26.21.47.46.48.12,0,.24-.04.33-.12.09-.09.14-.21.15-.32l.11-4.2.02-.44.05-1.68c0-.1,0-.18.03-.24.04.02.11.05.21.11l.02.02c.27.12.91.42,1.31.62-.04.22-.08.45-.08.66,0,.69.23,1.29.67,1.71l-.02-.02c.12.16.29.42.44.7l.15.31c.06.13.07.21.07.23,0,.22-.07.62-.26.74-.19.12-.59,0-1.1-.31-.22-.13-.51-.07-.64.15-.14.22-.07.52.16.65.85.51,1.55.62,2.06.31.68-.4.72-1.31.72-1.59h0v-.02c-.02-.19-.1-.42-.23-.71.02-.22.1-.47.31-.5.02,0,1.02-.17,1.63.98.05.09.13.16.23.2-.02.08-.03.17-.04.26-.47.22-.81.52-.97.89-.37.83.17,1.67.17,1.68l.09.1-.02-.03c.42.42.82.47,1.1.45.77-.08,1.22-.86,1.23-.87.06-.09.08-.22.05-.34-.02-.12-.1-.22-.21-.29-.22-.14-.5-.08-.64.14-.1.15-.33.4-.53.42-.08.02-.18-.04-.29-.13-.04-.07-.13-.27-.13-.49,0-.09.02-.17.05-.26.13-.3.58-.54,1.25-.67.15,0,1.09,0,1.56.57.32.39.37,1.01.14,1.81,0,.02-.7,1.71-5.22.6-.16-.04-.33,0-.45.12s-.17.28-.12.45c.05.18,1.29,4.27,9.33,2.87.26-.04.43-.29.38-.54-.05-.26-.29-.42-.55-.38-4.93.87-6.97-.47-7.77-1.39,4.36.77,5.2-1.2,5.28-1.43.32-1.14.21-2.05-.32-2.69-.77-.95-2.11-.92-2.38-.92h0c.37-1.32.12-2.9-.08-3.76l.11-.02-.03.02h.02c.18-.07,1.14-.37,1.93.06.59.31,1,.94,1.21,1.88l.11.15-.02,4.21c0,.25.2.47.46.47.27,0,.48-.21.48-.47l.03-6.53c0-.07.02-.17.04-.22.67.12,1.44.28,1.7.42.1.06.22.07.34.04.12-.03.22-.12.29-.22.12-.24.02-.52-.19-.64-.57-.3-2.05-.52-2.11-.53m-5.04,4c-.75-.88-1.75-.99-2.22-.91-.31.05-.54.23-.73.47l-.04-.07v.02l-.05-.07h0-.02c-.63-.58-.35-1.61-.31-1.77h0l.02-.06v-.02c.32-.3,1.58-1.31,3.04-.31.12.43.34,1.39.34,2.38,0,.12-.02.23-.03.36m45.22-3.93c-1.29-.86-2.36-.28-2.74.13l-.07.12-.02.04c-1.55-.85-4.14-.48-4.16-.47-1.34.16-1.99.36-2.19.42-1.9-.72-3.23-.02-3.83.42-.55-.56-1.12-.84-1.67-.81-.72.05-1.11.59-1.15.64l-.06.1v.02c-1.35-1.17-3.5-.77-4.55-.45l.04-.1-.04.06.07-.11c.12-.37.81-2.17,2.35-2.67,1.17-.37,2.6.08,4.25,1.35.09.07.21.11.34.1.12-.02.24-.08.32-.18.16-.21.12-.5-.08-.66-1.91-1.47-3.64-1.97-5.12-1.5-2.16.7-2.93,3.21-2.94,3.25-.22.45-.42,1.21-.6,2.27-.64-1.33-1.24-2.03-1.86-2.12-.36-.05-.57.09-.7.21l-.07.02h-.04l-.03.03c-.48.39-.87,2.42-1.17,6.02-.27-.16-.61-.36-1.03-.59.3-.52.53-1.12.69-1.89.07-.5.36-2.95-1.53-3.57h-.02c-.22-.05-1.36-.22-2.28.43-.62.43-.99,1.12-1.12,2.03v.02c0,.16.02.98.59,1.48.37.32.85.43,1.42.33.25-.03.43-.27.39-.53-.02-.12-.08-.23-.18-.31s-.23-.11-.36-.08c-.2.03-.48.04-.66-.12-.26-.23-.27-.67-.27-.72.08-.62.32-1.07.72-1.35.54-.38,1.23-.33,1.51-.29.79.26.91,1.26.91,1.85,0,.22-.02.44-.04.64h0c-.15.71-.37,1.31-.67,1.79l.02-.02-.35.44-.07.09c-.79.82-1.69.77-1.7.77-3.5-.42-3.7-6.47-3.71-6.53,0-.27-.22-.47-.48-.47-.26,0-.47.22-.46.47,0,.29.24,6.93,4.54,7.46h.02c.15,0,1.47.02,2.55-1.17.89.48,1.51.87,1.58.97.12.16.34.22.52.17.2-.07.33-.22.34-.41.24-3.35.67-5.96.91-6.2l-.09.05c.07,0,.12-.06.18-.1h0s.59.12,1.54,2.4c.04.11.13.17.24.23-.15,1.08-.27,2.3-.37,3.64v.14c0,.25.18.46.42.47.27,0,.48-.18.5-.44,0-.04.28-3.83.76-5.98h.03c.11-.05,2.39-.9,3.81-.2-.72.46-1.94,1.36-2.62,2.5,0,0-.37.52-.37,1.15,0,.07,0,.16.02.27.07.39.3.71.63.92.32.22,1.94,1.38,3.13,1.76.17.03.32,0,.42-.08.12-.08.18-.22.18-.37v-.12c0-.47.02-4.59.5-6.11.05-.06.19-.19.42-.21.24,0,.55.17.89.5-.04.74-.29,5.07-.3,5.27.02.47.34,1.34,1.46,1.34h.07c.44-.07,2.63-.51,3.25-1.7.12-.23.17-.45.17-.69,0-.26-.07-.52-.2-.77l-.08-.12s-1.87-1.91-3.48-2.39l.02-.32v-.19l.12-.06s1.18-1.36,3.35-.46c.12.04.24.05.35,0h.03v-.02s.68-.25,2.1-.42c.12-.02,2.62-.32,3.74.46-.12.54-.17,1.13-.22,1.66-.27-.22-.57-.37-.88-.37-.43.02-.84.27-1.21.74-.17-.29-.37-.52-.62-.66-.46-.26-.9-.2-1.11-.15h-.04v.02c-1.13.22-1.51,2.11-1.61,2.94-.17,1.72.98,1.9,1.03,1.91,1.08.07,1.62-.67,1.76-1.08.08-.25-.04-.52-.28-.6-.26-.08-.52.04-.61.28,0,.02-.17.48-.77.46-.03-.02-.28-.13-.21-.86.12-.97.52-2.1.87-2.15l.08-.02s.22-.06.44.07c.24.14.42.47.53.93.04.19.21.34.4.36.21.02.4-.08.48-.27.14-.33.57-.98.91-1,.2,0,.46.25.71.71l.07.07c0,1.26.06,2.31.07,2.36.02.26.24.46.5.43.26-.02.44-.22.44-.47l-.02-.11.02.08v-.04c-.04-.64-.06-1.32-.06-1.96,0-1.83.16-3.14.47-3.8.16-.15.66-.48,1.45.05.09.07.22.09.35.07.12-.02.24-.09.3-.2.13-.2.09-.48-.12-.64m-16.42,6.51c-1.04-.49-2.22-1.34-2.27-1.38-.14-.1-.22-.2-.25-.32v-.1c0-.18.07-.42.22-.64h0v-.02c.66-1.11,2.03-2.02,2.62-2.39-.26,1.58-.32,3.83-.33,4.85m6.37-1.36c.06.12.09.22.09.32s-.02.17-.06.26c-.32.62-1.7,1.06-2.51,1.2-.39,0-.48-.24-.5-.38l.2-3.39c1.2.46,2.61,1.82,2.8,2m-5.75-4.59v-.02l.02-.02-.02.03Z"/>
    </g>
  </g>
</svg>