<?xml version="1.0" encoding="utf-8"?>
<!-- Generator: Adobe Illustrator 28.0.0, SVG Export Plug-In . SVG Version: 6.00 Build 0)  -->
<svg version="1.1" id="Layer_1" xmlns="http://www.w3.org/2000/svg" xmlns:xlink="http://www.w3.org/1999/xlink" x="0px" y="0px"
	 viewBox="0 0 16 16" style="enable-background:new 0 0 16 16;" xml:space="preserve">
<style type="text/css">
	.st0{fill:#161616;}
</style>
<g>
	<g>
		<path class="st0" d="M8.7,8.7c1.2,0,2.1-0.8,2.1-1.9V3.3c0-1-1-1.9-2.1-1.9H6.8c-0.2,0-0.3,0.1-0.3,0.3v6.7c0,0.2,0.1,0.3,0.3,0.3
			L8.7,8.7z"/>
		<path class="st0" d="M12.2,15.5l-0.6,0.4c-0.2,0.1-0.4,0.1-0.5-0.1L8,11c-0.1-0.2-0.1-0.4,0.1-0.5l0.6-0.4C8.9,10,9.1,10,9.2,10.2
			l3.1,4.9C12.4,15.2,12.4,15.4,12.2,15.5z"/>
		<path class="st0" d="M4.7,15.9H4c-0.2,0-0.4-0.2-0.4-0.4V6.1c0-0.2,0.2-0.4,0.4-0.4h0.7c0.2,0,0.4,0.2,0.4,0.4v9.4
			C5.1,15.7,4.9,15.9,4.7,15.9z"/>
		<path class="st0" d="M4.7,4.3H4c-0.2,0-0.4-0.2-0.4-0.4V0.4C3.6,0.2,3.8,0,4,0h0.7c0.2,0,0.4,0.2,0.4,0.4v3.5
			C5.1,4.1,4.9,4.3,4.7,4.3z"/>
	</g>
</g>
</svg>
