<?xml version="1.0" encoding="utf-8"?>
<!-- Generator: Adobe Illustrator 28.0.0, SVG Export Plug-In . SVG Version: 6.00 Build 0)  -->
<svg version="1.1" id="Layer_1" xmlns="http://www.w3.org/2000/svg" xmlns:xlink="http://www.w3.org/1999/xlink" x="0px" y="0px"
	 viewBox="0 0 88 88" style="enable-background:new 0 0 88 88;" xml:space="preserve">
<style type="text/css">
	.st0{clip-path:url(#SVGID_00000005249047827696407310000016744219935662258060_);}
	.st1{fill-rule:evenodd;clip-rule:evenodd;fill:#FFFFFF;}
</style>
<g>
	<defs>
		<path id="SVGID_1_" d="M79.3,88.2H7.7c-4.5,0-8.2-3.7-8.2-8.2V8.5c0-4.5,3.7-8.2,8.2-8.2h71.5c4.5,0,8.2,3.7,8.2,8.2V80
			C87.5,84.5,83.8,88.2,79.3,88.2z"/>
	</defs>
	<clipPath id="SVGID_00000183938048675928933930000013323317364653506971_">
		<use xlink:href="#SVGID_1_"  style="overflow:visible;"/>
	</clipPath>
	<g style="clip-path:url(#SVGID_00000183938048675928933930000013323317364653506971_);">
		<g>
			<path class="st1" d="M61.8,16.1c0.6-0.1,1.1-0.1,1.7,0C62.9,16.1,62.4,16.1,61.8,16.1z"/>
		</g>
		<g>
			<path class="st1" d="M66.8,21c0.2,0.1,0.3,0.2,0.4,0.4C67,21.3,66.9,21.2,66.8,21z"/>
		</g>
		<g>
			<path class="st1" d="M19,22.1c0,0.2-0.1,0.4-0.2,0.6C18.8,22.4,18.9,22.2,19,22.1z"/>
		</g>
		<g>
			<path class="st1" d="M71.7,22.3c0.1,0.1,0.2,0.3,0.2,0.6C71.8,22.7,71.7,22.5,71.7,22.3z"/>
		</g>
		<g>
			<path class="st1" d="M22.2,23.7c0,0.3,0,0.6-0.1,0.8C22.1,24.2,22.1,24,22.2,23.7z"/>
		</g>
		<g>
			<path class="st1" d="M72.1,24.5c0.1,0.5,0.1,1.1,0,1.7c0,0.3-0.1,0.5-0.2,0.8C72.1,26.1,72.2,25.3,72.1,24.5z"/>
		</g>
		<g>
			<path class="st1" d="M72,27c0,0.3-0.1,0.6-0.2,0.9C71.8,27.6,71.9,27.3,72,27z"/>
		</g>
		<g>
			<path class="st1" d="M18.8,27.8c0.1,0.2,0.2,0.4,0.2,0.6C18.8,28.2,18.8,28.1,18.8,27.8z"/>
		</g>
		<g>
			<path class="st1" d="M20.8,31.9c0,0,0.1,0.1,0.1,0.1c0,0.2-0.1,0.3-0.1,0.5C20.8,32.3,20.8,32.1,20.8,31.9z"/>
		</g>
		<g>
			<path class="st1" d="M70,33.1c0.1,0.1,0.2,0.3,0.3,0.5C70.1,33.4,70,33.3,70,33.1z"/>
		</g>
		<g>
			<path class="st1" d="M62.6,33.6c0.3,0.2,0.5,0.4,0.7,0.7C63,34,62.8,33.8,62.6,33.6z"/>
		</g>
		<g>
			<path class="st1" d="M50.3,34.3c-0.1,0.4-0.1,0.8-0.1,1.2c-0.1-0.4-0.1-0.7,0-1.1C50.2,34.4,50.3,34.3,50.3,34.3z"/>
		</g>
		<g>
			<path class="st1" d="M35,35.6c0.9-0.1,1.5,0.2,1.9,1c0,1.3-0.6,1.8-1.9,1.7c-1-0.4-1.2-1.1-0.8-2.1C34.4,35.8,34.6,35.7,35,35.6z
				"/>
		</g>
		<g>
			<path class="st1" d="M56.5,36.4c0.1,0.3,0.1,0.5,0.1,0.8c-0.3,0.9-0.9,1.2-1.9,1c-0.5-0.1-0.8-0.4-1-0.9
				c-0.1-0.2-0.1-0.4-0.1-0.6c0.1-0.6,0.4-1,1-1.1c0.6-0.1,1.2,0,1.7,0.4C56.4,36.1,56.5,36.3,56.5,36.4z"/>
		</g>
		<g>
			<path class="st1" d="M64.4,35.8c0.2,0.2,0.3,0.5,0.4,0.8C64.6,36.4,64.4,36.1,64.4,35.8z"/>
		</g>
		<g>
			<path class="st1" d="M19.3,36.4c0,0.2-0.1,0.4-0.2,0.6C19,36.7,19.1,36.5,19.3,36.4z"/>
		</g>
		<g>
			<path class="st1" d="M56.5,36.4c0,0,0.1,0,0.1,0.1c0.1,0.3,0,0.5,0,0.8C56.6,36.9,56.6,36.7,56.5,36.4z"/>
		</g>
		<g>
			<path class="st1" d="M53.7,36.7c0,0.2,0,0.4,0.1,0.6c0,0-0.1,0-0.1-0.1C53.6,37.1,53.6,36.9,53.7,36.7z"/>
		</g>
		<g>
			<path class="st1" d="M18.9,37.5c-0.1,0.5-0.2,0.9-0.3,1.3C18.6,38.3,18.7,37.9,18.9,37.5z"/>
		</g>
		<g>
			<path class="st1" d="M71.7,37.6c0,0,0.1,0,0.1,0.1c0.1,0.4,0.2,0.8,0.2,1.2C71.9,38.5,71.8,38,71.7,37.6z"/>
		</g>
		<g>
			<path class="st1" d="M65.2,37.8c0.1,0.3,0.2,0.5,0.2,0.8C65.3,38.3,65.2,38.1,65.2,37.8z"/>
		</g>
		<g>
			<path class="st1" d="M24.9,38.1c-0.1,0.5-0.2,1.1-0.3,1.6C24.6,39.1,24.7,38.6,24.9,38.1z"/>
		</g>
		<g>
			<path class="st1" d="M65.4,38.6c0.2,0.5,0.2,1.1,0.2,1.7C65.5,39.7,65.4,39.1,65.4,38.6z"/>
		</g>
		<g>
			<path class="st1" d="M18.2,40.9c-0.1,0.7-0.1,1.5-0.2,2.2c0,0,0-0.1-0.1-0.1C18,42.3,18.1,41.6,18.2,40.9z"/>
		</g>
		<g>
			<path class="st1" d="M34.1,44.4c-0.1,0.3-0.2,0.5-0.3,0.8C33.9,44.9,34,44.7,34.1,44.4z"/>
		</g>
		<g>
			<path class="st1" d="M56,44.2c0.1,0.1,0.2,0.3,0.2,0.5C56,44.5,56,44.4,56,44.2z"/>
		</g>
		<g>
			<path class="st1" d="M56.3,45.2c0.2,0.3,0.3,0.6,0.3,0.9C56.5,45.8,56.4,45.5,56.3,45.2z"/>
		</g>
		<g>
			<path class="st1" d="M72.6,43.5c0.1,0.8,0.1,1.7,0,2.5c0,0.5-0.1,1-0.2,1.4C72.5,46.2,72.6,44.9,72.6,43.5z"/>
		</g>
		<g>
			<path class="st1" d="M18,45.7c0.1,0.3,0.1,0.6,0.1,1c0-0.3-0.1-0.5-0.1-0.8C18,45.9,18,45.8,18,45.7z"/>
		</g>
		<g>
			<path class="st1" d="M72.4,47.5c0,0.3,0,0.5-0.1,0.8C72.3,48,72.3,47.8,72.4,47.5z"/>
		</g>
		<path class="st1" d="M72.6,43.5c0-1.6-0.2-3.1-0.6-4.7c-0.1-0.4-0.2-0.8-0.3-1.2c-0.2-0.7-0.4-1.3-0.6-2c-0.3-0.7-0.5-1.4-0.8-2.1
			c-0.1-0.1-0.2-0.3-0.3-0.5c0-0.2-0.1-0.3-0.2-0.5c0-0.3,0-0.7,0-1c0.4-0.6,0.8-1.1,1.2-1.7c0.2-0.4,0.3-0.7,0.6-1
			c0.1-0.3,0.2-0.6,0.3-0.9c0-0.3,0.1-0.6,0.2-0.9c0,0,0-0.1,0-0.1c0.1-0.8,0.2-1.6,0.1-2.4c-0.1-0.5-0.1-1.1-0.3-1.6
			c-0.1-0.2-0.2-0.4-0.2-0.6c0-0.1-1-2.5-2.2-3.6c-1.7-1.6-3.7-2.4-6-2.6c-0.6,0.1-1.1,0.1-1.7,0c-2,0.1-3.8,0.8-5.4,2.1
			c-0.7,0.4-1.4,0.5-2.1,0.4c-6.1-2.2-12.2-2.2-18.2,0c-0.6,0.1-1.3,0-1.8-0.3c-0.5-0.4-0.9-0.8-1.5-1.1c-2-1-4.1-1.4-6.3-1.1
			c-3.6,0.6-6.1,2.6-7.4,6c0,0.2-0.1,0.4-0.2,0.6c-0.5,1.8-0.5,3.5-0.1,5.2c0.1,0.2,0.2,0.4,0.2,0.6c0.4,1.1,1,2.1,1.7,3
			c0.1,0.2,0.1,0.4,0.1,0.6c0,0,0.1,0.1,0.1,0.1c0,0.2-0.1,0.3-0.1,0.5c-0.6,1.3-1.1,2.5-1.5,3.9c0,0.2-0.1,0.4-0.2,0.6
			c0,0.2-0.1,0.4-0.1,0.6c-0.1,0.5-0.2,0.9-0.3,1.3c-0.2,0.7-0.3,1.4-0.3,2.1c-0.1,0.7-0.1,1.5-0.2,2.2c-0.1,0.9-0.1,1.7,0,2.6
			c0.1,0.3,0.1,0.6,0.1,1c0.2,1.7,0.5,3.4,1,5c0.1,0.3,0.3,0.6,0.3,1c1.1,3,2.8,5.7,4.9,8.1c0.2,0.1,0.3,0.2,0.3,0.4
			c3.5,3.6,7.8,6,12.7,7.3c7.6,1.9,15,1.1,22-2.3c6.1-3.3,10.3-8.3,12.4-14.9c0-0.3,0.1-0.5,0.2-0.8c0-0.3,0.1-0.6,0.2-0.9
			c0-0.4,0.1-0.9,0.2-1.3c0-0.3,0.1-0.5,0.1-0.8C72.5,46.2,72.6,44.9,72.6,43.5z M41.6,43.7c0.7-0.3,1.4-0.5,2.1-0.6
			c0.8,0,1.7,0,2.5,0c0.6,0,1.3,0.2,1.9,0.3c0.3,0.1,0.6,0.3,0.8,0.6c0.1,0.2,0.1,0.4,0,0.6c-1.2,1.9-2.9,2.7-5.1,2.2
			c-1.1-0.4-1.9-1-2.6-2C41.1,44.5,41.2,44.1,41.6,43.7z M23.8,27.9c-0.3,0.1-0.6,0-0.9-0.2c-0.6-1-0.9-2-0.9-3.1
			c0.1-0.3,0.1-0.5,0.1-0.8c0.1-0.8,0.5-1.5,0.9-2.1c2.2-2.3,4.7-2.7,7.5-1.2c0.1,0.2,0.3,0.3,0.4,0.4c0,0.1,0.1,0.3,0.1,0.4
			c-0.1,0.2-0.2,0.3-0.3,0.4c-1.3,0.8-2.5,1.6-3.6,2.6C26.1,25.4,24.9,26.6,23.8,27.9z M34.1,44.4c-0.2,0.2-0.3,0.5-0.3,0.8
			c-0.2,1-0.7,1.8-1.4,2.6c-0.4,0.3-0.8,0.5-1.3,0.6c-1.2,0.2-2.3,0-3.3-0.7c-1.4-1.1-2.4-2.5-3-4.2c-0.3-1.3-0.4-2.5-0.2-3.8
			c0.1-0.5,0.2-1,0.3-1.6c0.5-2.1,1.7-3.8,3.4-5.1c1.3-0.9,2.7-1.6,4.2-2c1.1-0.2,2.2-0.2,3.2-0.1c2,0.3,3.3,1.3,4,3.1
			c0.2,0.9,0.2,1.7-0.1,2.6c-0.6,0.9-1.2,1.7-2,2.4c-1,1.2-1.9,2.4-2.8,3.6C34.6,43.2,34.4,43.8,34.1,44.4z M52.9,51
			c-0.2,1-0.6,1.8-1.2,2.5c-2.5,2.6-5.5,3.5-9.1,2.7c-1.3-0.4-2.5-1-3.5-2c-0.1-0.2-0.2-0.3-0.4-0.3c-0.8-0.9-1.3-1.9-1.5-3.1
			c0-0.4,0-0.8,0.1-1.2c0.1-0.4,0.3-0.6,0.6-0.7c0.1,0,0.2,0,0.3,0c1.8,0.4,3.7,0.8,5.6,0.9c1.8,0.1,3.5,0,5.2-0.3
			c0.9-0.2,1.8-0.4,2.8-0.6c0.5,0,0.8,0.2,1,0.6c0,0.2,0,0.3,0.1,0.5C53,50.3,53,50.6,52.9,51z M62.1,47.8c-1.2,0.7-2.4,0.8-3.7,0.4
			c-0.9-0.5-1.4-1.2-1.7-2.1c0-0.3-0.2-0.6-0.3-0.9c0-0.2-0.1-0.4-0.1-0.6c0-0.2-0.1-0.4-0.2-0.5c-0.4-1-1-1.9-1.6-2.8
			c-0.4-0.5-0.8-1-1.2-1.5c-0.8-0.9-1.7-1.8-2.5-2.8c-0.2-0.5-0.4-1-0.4-1.5c0-0.4,0-0.8,0.1-1.2c0.2-1,0.6-1.7,1.4-2.3
			c0.8-0.7,1.8-1.1,2.9-1.2c3-0.1,5.7,0.8,8,2.8c0.2,0.3,0.4,0.5,0.7,0.7c0.1,0.2,0.3,0.3,0.4,0.5c0.3,0.3,0.5,0.7,0.7,1.1
			c0.1,0.3,0.2,0.5,0.4,0.8c0.2,0.4,0.3,0.8,0.4,1.2c0,0.3,0.1,0.6,0.2,0.8c0.1,0.6,0.1,1.1,0.2,1.7C65.8,43.4,64.6,45.9,62.1,47.8z
			 M68.2,26.5c-0.2,0.3-0.4,0.7-0.6,1c-0.3,0.4-0.7,0.4-1.1,0.1c-1.9-2.4-4.2-4.5-6.8-6.1c-0.2-0.1-0.3-0.3-0.3-0.5
			c0-0.1,0-0.2,0.1-0.2c1.2-1.1,2.7-1.5,4.3-1.3c1.2,0.2,2.2,0.7,3,1.4c0.1,0.2,0.3,0.3,0.4,0.4c0.4,0.4,0.7,0.8,0.9,1.3
			C68.5,24,68.5,25.3,68.2,26.5z"/>
		<g>
			<path class="st1" d="M52.9,49.5C53,49.7,53,49.8,53,50C52.9,49.9,52.9,49.7,52.9,49.5z"/>
		</g>
		<g>
			<path class="st1" d="M72.1,49.6c0,0.3-0.1,0.6-0.2,0.9C71.9,50.2,71.9,49.9,72.1,49.6z"/>
		</g>
		<g>
			<path class="st1" d="M37.3,49.6c0,0.4-0.1,0.8-0.1,1.2c0-0.1-0.1-0.3-0.1-0.4C37.1,50.1,37.2,49.8,37.3,49.6z"/>
		</g>
		<g>
			<path class="st1" d="M53,50c0.1,0.3,0.1,0.6-0.1,1C53,50.6,53,50.3,53,50z"/>
		</g>
		<g>
			<path class="st1" d="M71.9,50.5c0,0.3-0.1,0.5-0.2,0.8C71.7,51,71.7,50.7,71.9,50.5z"/>
		</g>
		<g>
			<path class="st1" d="M19,51.7c0.1,0.3,0.3,0.6,0.3,1C19.2,52.4,19.1,52.1,19,51.7z"/>
		</g>
		<g>
			<path class="st1" d="M38.7,53.9c0.2,0.1,0.3,0.2,0.4,0.3C39,54.2,38.8,54,38.7,53.9z"/>
		</g>
		<g>
			<path class="st1" d="M24.3,60.8c0.2,0.1,0.3,0.2,0.3,0.4C24.5,61.1,24.3,60.9,24.3,60.8z"/>
		</g>
	</g>
</g>
</svg>
