<?xml version="1.0" encoding="UTF-8"?>
<svg id="Layer_2" data-name="Layer 2" xmlns="http://www.w3.org/2000/svg" xmlns:xlink="http://www.w3.org/1999/xlink" viewBox="0 0 154.29 159.44">
  <defs>
    <style>
      .cls-1 {
        fill: #fff;
        opacity: .31;
      }

      .cls-1, .cls-2, .cls-3 {
        stroke-width: 0px;
      }

      .cls-2 {
        fill: url(#Degradado_sin_nombre_7);
        opacity: .35;
      }

      .cls-3 {
        fill: url(#Degradado_sin_nombre_8);
        opacity: .32;
      }
    </style>
    <radialGradient id="Degradado_sin_nombre_7" data-name="Degradado sin nombre 7" cx="76.22" cy="77.68" fx="76.22" fy="77.68" r="114.24" gradientUnits="userSpaceOnUse">
      <stop offset="0" stop-color="#fff" stop-opacity="0"/>
      <stop offset=".37" stop-color="rgba(255, 255, 255, 0)" stop-opacity="0"/>
      <stop offset=".51" stop-color="rgba(255, 255, 255, .03)" stop-opacity=".03"/>
      <stop offset=".6" stop-color="rgba(255, 255, 255, .08)" stop-opacity=".08"/>
      <stop offset=".68" stop-color="rgba(255, 255, 255, .15)" stop-opacity=".15"/>
      <stop offset=".75" stop-color="rgba(255, 255, 255, .23)" stop-opacity=".23"/>
      <stop offset=".8" stop-color="rgba(255, 255, 255, .34)" stop-opacity=".34"/>
      <stop offset=".86" stop-color="rgba(255, 255, 255, .47)" stop-opacity=".47"/>
      <stop offset=".91" stop-color="rgba(255, 255, 255, .61)" stop-opacity=".61"/>
      <stop offset=".95" stop-color="rgba(255, 255, 255, .78)" stop-opacity=".78"/>
      <stop offset=".99" stop-color="rgba(255, 255, 255, .96)" stop-opacity=".96"/>
      <stop offset="1" stop-color="#fff"/>
    </radialGradient>
    <radialGradient id="Degradado_sin_nombre_8" data-name="Degradado sin nombre 8" cx="126.62" cy="-7.69" fx="126.62" fy="-7.69" r="153.95" gradientUnits="userSpaceOnUse">
      <stop offset="0" stop-color="#fff"/>
      <stop offset=".07" stop-color="rgba(255, 255, 255, .89)" stop-opacity=".89"/>
      <stop offset=".27" stop-color="rgba(255, 255, 255, .63)" stop-opacity=".63"/>
      <stop offset=".46" stop-color="rgba(255, 255, 255, .4)" stop-opacity=".4"/>
      <stop offset=".63" stop-color="rgba(255, 255, 255, .23)" stop-opacity=".23"/>
      <stop offset=".78" stop-color="rgba(255, 255, 255, .1)" stop-opacity=".1"/>
      <stop offset=".91" stop-color="rgba(255, 255, 255, .03)" stop-opacity=".03"/>
      <stop offset="1" stop-color="#fff" stop-opacity="0"/>
    </radialGradient>
  </defs>
  <g id="Layer_12" data-name="Layer 12">
    <g id="Graphic_Design" data-name="Graphic Design">
      <g>
        <g>
          <rect class="cls-2" width="154.29" height="159.44" rx="27.94" ry="27.94"/>
          <rect class="cls-3" width="154.29" height="159.44" rx="27.94" ry="27.94"/>
        </g>
        <path class="cls-1" d="M89.25,20.27l-8.44,7.43c-1.15,1.01-1.26,2.76-.25,3.9l1.83,2.08-16.99,14.95c-2.98-1.65-6.8-1.39-9.5.99s-3.45,6.13-2.19,9.3l-16.99,14.95-1.83-2.08c-1.01-1.15-2.76-1.26-3.9-.25l-8.44,7.43c-1.15,1.01-1.26,2.76-.25,3.9l7.31,8.3c1.01,1.15,2.76,1.26,3.9.25l8.44-7.43c1.15-1.01,1.26-2.76.25-3.9l-1.85-2.1,8.53-7.5c-3.24,10.84-1.04,22.93,6.19,32.28-1.77,3.01-1.55,6.92.88,9.68,3.02,3.43,8.27,3.77,11.71.75,3.43-3.02,3.77-8.27.75-11.71-2.33-2.65-5.98-3.43-9.11-2.27-7.98-10.49-8.41-24.87-.92-35.68,2.8,1.09,6.09.66,8.5-1.46s3.25-5.33,2.53-8.24c11.67-6.06,25.88-3.8,35.27,5.45-1.54,2.95-1.23,6.68,1.1,9.32,3.02,3.43,8.27,3.77,11.71.75s3.77-8.27.75-11.71c-2.43-2.76-6.29-3.48-9.49-2.1-8.36-8.35-20.04-12.05-31.21-10.21l8.53-7.5,1.83,2.08c1.01,1.15,2.76,1.26,3.9.25l8.44-7.43c1.15-1.01,1.26-2.76.25-3.9l-7.31-8.3c-1.01-1.15-2.76-1.26-3.9-.25Z"/>
        <path class="cls-1" d="M117.06,106.56l-12.45,10.96c-3.68,3.24-4.57,8.54-2.73,12.82.71,1.65,2.94,1.98,4.29.8l24.21-21.31c1.35-1.19,1.3-3.44-.25-4.35-4.01-2.37-9.38-2.16-13.06,1.08Z"/>
        <path class="cls-1" d="M73.99,65.99l17.33,19.69c3.17-1.26,6.92-.51,9.3,2.19,3.02,3.43,2.69,8.69-.75,11.71-3.43,3.02-8.69,2.69-11.71-.75-2.38-2.7-2.65-6.52-.99-9.5l-17.33-19.69,5.21,38.7c.17,1.31,1.25,2.31,2.56,2.39,7.16.46,13.92,3.22,19.5,7.66.93-1.85,2.2-3.57,3.85-5.02l12.45-10.96c1.65-1.45,3.52-2.49,5.47-3.18-3.7-6.09-5.58-13.15-5.12-20.31.08-1.31-.77-2.51-2.05-2.85l-37.72-10.08Z"/>
      </g>
    </g>
  </g>
</svg>