<?xml version="1.0" encoding="utf-8"?>
<!-- Generator: Adobe Illustrator 28.0.0, SVG Export Plug-In . SVG Version: 6.00 Build 0)  -->
<svg version="1.1" id="Layer_1" xmlns="http://www.w3.org/2000/svg" xmlns:xlink="http://www.w3.org/1999/xlink" x="0px" y="0px"
	 viewBox="0 0 88 88" style="enable-background:new 0 0 88 88;" xml:space="preserve">
<style type="text/css">
	.st0{display:none;}
	.st1{display:inline;}
	.st2{display:inline;clip-path:url(#SVGID_00000160166737353545569710000003461911956749892517_);}
	.st3{fill:#FFFFFF;}
	.st4{display:inline;clip-path:url(#SVGID_00000002342941296383224750000011001098129032314036_);}
	.st5{display:inline;clip-path:url(#SVGID_00000133528663008291280760000005773623803653763007_);}
	.st6{font-family:'Aptos-Light';}
	.st7{font-size:5.7366px;}
	.st8{clip-path:url(#SVGID_00000029003486459803096390000014824245882768256940_);}
</style>
<g class="st0">
	<defs>
		<path id="SVGID_1_" d="M79.4,88.2H7.9c-4.5,0-8.2-3.7-8.2-8.2V8.5c0-4.5,3.7-8.2,8.2-8.2h71.5c4.5,0,8.2,3.7,8.2,8.2V80
			C87.6,84.5,83.9,88.2,79.4,88.2z"/>
	</defs>
	<clipPath id="SVGID_00000142863858953515736580000005139563782736829115_" class="st1">
		<use xlink:href="#SVGID_1_"  style="overflow:visible;"/>
	</clipPath>
	<g id="Layer_1-2" style="display:inline;clip-path:url(#SVGID_00000142863858953515736580000005139563782736829115_);">
		<g>
			<path class="st3" d="M57.1,33.5c-1.7,4.1-3.2,8-4.8,11.9c-1.2,3-2.5,6-3.7,9c-0.1,0.3-0.2,0.5-0.4,0.6h4.7
				c0.5-1.3,0.9-2.5,1.4-3.7c0.1-0.2,0.2-0.4,0.3-0.4c1.2,0,2.4,0,3.6,0c0.1,0,0.3,0.2,0.3,0.4c0.1,0.1,0,0.3,0,0.4
				c0.2,2.1,0.2,3-0.5,3.3H63V33.5H57.1L57.1,33.5z M55.7,47.2c1.1-3.1,2.2-6.2,3.2-9v9H55.7z"/>
			<path class="st3" d="M72.7,34.8c0.1-0.7,0.3-1.1,0.7-1.3h-5.1c-0.4,2.1-0.8,4.1-1.2,6.2c-0.9,4.9-1.9,9.7-2.8,14.6
				c-0.1,0.3-0.1,0.6-0.3,0.7h4.8c0.3-1.6,0.6-3.2,0.9-4.7C70.8,45.1,71.8,39.9,72.7,34.8L72.7,34.8z"/>
			<path class="st3" d="M84.4,47.9c-0.2-1-0.7-1.9-1.2-3c2-0.9,3.4-2.7,4-5c0.6-2.3,0.2-4.4-1.7-6.4H75.6
				c-1.4,7.2-2.8,14.3-4.1,21.4H76c0.5-2.6,0.9-5,1.4-7.4c0-0.3,0.4-0.7,0.6-0.7c0.5,0.1,1.2,0.2,1.5,0.6c0.4,0.5,0.5,1.2,0.6,1.8
				c0.1,1.7,0.1,3.4,0,5.2c0,0.2-0.1,0.4-0.3,0.5h5c-0.1-1.3-0.1-2.5-0.2-3.6C84.6,50.2,84.7,49,84.4,47.9L84.4,47.9z M81.9,41.3
				c-0.8,1.4-1.8,1.9-3.6,1.5c0.3-1.5,0.5-3,0.8-4.5c0.1-0.4,0.1-0.8,0.2-1.2c0.2-0.4,0.4-1.2,0.6-1.2c0.7,0,1.6,0.1,2.1,0.6
				C83.1,37.5,82.9,39.7,81.9,41.3L81.9,41.3z"/>
			<path class="st3" d="M20.5,38.9c-0.2-2.8,0.4-2.2-2.6-2.3c-0.6,0-0.9,0.2-1.1,0.8c-0.3,1.6-0.7,3.2-1.1,4.8
				c-0.3,1.3-0.5,2.6-0.8,3.9c-0.7-2.5-1.2-5-1.8-7.4c-0.6-2.6,0-2.1-2.7-2.2c-0.9,0-1.1,0.3-1.1,1.1c-0.3,4.4-0.6,8.7-1,13.1
				c0,0.6-0.2,1.2,0.7,1.2c1.7,0.1,2,0,2-1c0.2-2.7,0.3-5.4,0.4-8.1c0.6,2.6,1.3,5.2,1.8,7.8c0.2,0.8,0.5,1,1.3,1
				c0.7,0,1.3,0.1,1.5-0.9c0.5-2.6,1.2-5.1,1.8-7.7c0.1,2.3,0.2,4.5,0.3,6.7c0.1,2.4,0.4,2.6,2.9,2c0-0.6,0-1.2,0-1.8
				C21,46.3,20.9,42.6,20.5,38.9L20.5,38.9z"/>
			<path class="st3" d="M39.9,44.4c1.6-1.3,1.8-3.1,1.3-4.9c-0.4-1.6-1.7-2.5-3.3-2.6c-1.4-0.1-2.7,0-4.1,0c-0.9,0-1.1,0.4-1.1,1.2
				c0,4.3,0,8.7,0,13c0,0.3,0,0.6,0.1,1.1c0.6,0,1.1,0,1.6,0c1,0,1.5-0.5,1.5-1.5c0-1.5,0-3,0-4.5c1.2,0,1.5,0.6,1.7,1.4
				c0.3,1.2,0.4,2.5,0.7,3.7c0.1,0.3,0.3,0.8,0.5,0.8c1,0.1,1.9,0,3.1,0c-1.1-2.5-0.5-5.2-2.6-7.3C39.6,44.6,39.7,44.5,39.9,44.4
				L39.9,44.4z M36,43.4v-4.2c1.5-0.1,2.1,0.5,2.1,1.9C38.2,42.6,37.5,43.4,36,43.4z"/>
			<path class="st3" d="M26,36.6c-0.9,0-1.1,0.3-1.3,1.1c-0.5,2.6-1.1,5.2-1.7,7.8c-0.5,2.1-0.9,4.2-1.3,6.3c2.6,0.6,3,0.4,3.5-2
				c0-0.1,0.1-0.2,0.1-0.3c0-0.9,0.5-0.9,1.2-1c1.2-0.1,1.7,0.3,1.8,1.4c0,0.5,0.1,1,0.3,1.4c0.1,0.2,0.4,0.6,0.6,0.6
				c0.8,0.1,1.6,0,2.6,0c-0.9-4.5-1.7-8.7-2.5-13C28.7,36.6,28.6,36.6,26,36.6L26,36.6z M25.8,46c0.3-1.7,0.6-3.4,0.8-5
				c0.1,0,0.1,0,0.2,0c0.3,1.6,0.5,3.3,0.8,5H25.8L25.8,46z"/>
			<path class="st3" d="M5.2,43.1c-0.5-0.3-1.2-0.6-1.5-1.1c-0.4-0.5-0.7-1.3-0.5-1.7c0.2-0.5,1-0.9,1.5-0.9
				c0.6-0.1,1.3,0.2,2.1,0.3c0.1-0.7,0.3-1.4,0.4-2.1c0-0.2-0.2-0.6-0.4-0.7c-2.7-1.4-6.3,0.3-6.8,3.3c-0.4,2.1,0.6,3.5,2.2,4.7
				c0.6,0.4,1.2,0.8,1.7,1.2c0.7,0.6,1.2,1.3,0.7,2.2c-0.5,0.9-1.3,1-2.2,0.9c-0.7-0.1-1.4-0.3-2.2-0.5c0,0.2-0.1,0.4-0.1,0.6
				c-0.4,2.3-0.9,2.2,2,2.7c2.6,0.4,4.9-0.9,5.6-3C8.4,46.8,7.5,44.6,5.2,43.1z"/>
			<path class="st3" d="M49.3,39.6c0.8,0,1.2-0.2,1.1-1c0-0.3,0-0.6,0-0.9c0.1-0.8-0.3-1.1-1.1-1.1c-1.8,0-3.6,0-5.3,0
				c-2.4,0-2.5,0.2-2.2,2.6c0,0.1,0.1,0.2,0.1,0.4c0.3,0,0.6,0,1,0c1,0,1.5,0.5,1.5,1.5c0,3.3,0,6.5,0,9.8c0,0.9,0.3,1.3,1.2,1.2
				c0.2,0,0.4,0,0.6,0c1.5,0,1.5,0,1.5-1.4c0-3.1,0-6.2,0-9.4C47.6,39.6,47.6,39.6,49.3,39.6L49.3,39.6z"/>
		</g>
	</g>
</g>
<g class="st0">
	<defs>
		<path id="SVGID_00000007389612011720922440000015802754910743505305_" d="M79.3,88.2H7.8c-4.5,0-8.2-3.7-8.2-8.2V8.5
			c0-4.5,3.7-8.2,8.2-8.2h71.5c4.5,0,8.2,3.7,8.2,8.2V80C87.5,84.5,83.8,88.2,79.3,88.2z"/>
	</defs>
	<clipPath id="SVGID_00000048476098221771113570000008297622188479363238_" class="st1">
		<use xlink:href="#SVGID_00000007389612011720922440000015802754910743505305_"  style="overflow:visible;"/>
	</clipPath>
	<g id="Layer_2-2" style="display:inline;clip-path:url(#SVGID_00000048476098221771113570000008297622188479363238_);">
		<g>
			<g>
				<path class="st3" d="M0,53.4h2V54H0.7v1.1H2v0.6H0.7v1.7H0V53.4L0,53.4L0,53.4z"/>
				<path class="st3" d="M7.3,53.4H8v4H7.3V53.4z"/>
				<path class="st3" d="M13.4,53.4h0.9l1.3,3.1l0,0v-3.1h0.7v4h-0.9l-1.3-3.1l0,0v3.1h-0.7L13.4,53.4L13.4,53.4L13.4,53.4z"/>
				<path class="st3" d="M23.7,56.5h-1.4l-0.3,1h-0.7l1.3-4h0.8l1.3,4H24L23.7,56.5L23.7,56.5z M23.6,55.9L23.1,54l0,0l-0.6,1.9
					H23.6L23.6,55.9z"/>
				<path class="st3" d="M29.8,53.4h0.9l1.3,3.1l0,0v-3.1h0.7v4h-0.9l-1.3-3.1l0,0v3.1h-0.7L29.8,53.4L29.8,53.4L29.8,53.4z"/>
				<path class="st3" d="M40.7,57.3c-0.1,0.1-0.5,0.1-0.9,0.1c-1.2,0-1.8-0.9-1.8-2.1c0-1.2,0.6-2.1,1.8-2.1c1.2,0,0.7,0.1,0.9,0.2
					l0,0.7c-0.1-0.1-0.4-0.2-0.8-0.2c-0.6,0-1.1,0.4-1.1,1.5c0,1,0.5,1.5,1.1,1.5s0.6-0.1,0.8-0.2L40.7,57.3L40.7,57.3L40.7,57.3z"
					/>
				<path class="st3" d="M45.9,53.4H48V54h-1.4v1.1h1.3v0.6h-1.3v1.2H48v0.6h-2.2L45.9,53.4L45.9,53.4L45.9,53.4z"/>
			</g>
			<path class="st3" d="M40.5,37.5c-0.8-1.7-2-3.1-3.6-4.1c-1.6-1-3.3-1.6-5.2-1.6h-6.1c-0.8,0-1.5,0.7-1.5,1.5v18.4h7.7
				c1.1,0,2.1-0.2,3.2-0.5c2-0.7,3.6-1.9,4.8-3.7c1.3-1.8,1.9-3.7,1.9-5.8C41.5,39.8,41.2,38.9,40.5,37.5L40.5,37.5L40.5,37.5z
				 M34.9,45.5c-1,1.4-2.5,2-4.6,2h-1.2V36.2h1.2c2,0,3.6,0.7,4.6,2c0.8,1,1.2,2.2,1.2,3.6S35.7,44.5,34.9,45.5z"/>
			<path class="st3" d="M0,51.9h3.6c0.8,0,1.5-0.7,1.5-1.5V31.9H1.6c-0.8,0-1.5,0.7-1.5,1.5V51.9L0,51.9z"/>
			<path class="st3" d="M12.5,45.3h3.2c2.6,0,4.4-0.8,5.5-2.3c0.8-1.2,1.3-2.7,1.3-4.5S22,35.2,20.9,34c-1.2-1.4-3-2.1-5.4-2.1H8.8
				c-0.8,0-1.5,0.7-1.5,1.5v18.4h3.6c0.8,0,1.5-0.7,1.5-1.5V45.3L12.5,45.3z M16.5,40.3c-0.4,0.5-1.2,0.7-2.3,0.7h-1.7v-5h1.7
				c1,0,1.8,0.2,2.2,0.7c0.4,0.4,0.7,1,0.7,1.8C17.1,39.3,16.9,39.9,16.5,40.3L16.5,40.3z"/>
			<path class="st3" d="M57.8,48.4c-0.2-1.2-1.3-1.9-2.5-1.8c-0.5,0.1-1,0.2-1.5,0.2c-1.3,0-2.5-0.4-3.5-1.2c-1.3-1-1.9-2.4-1.9-4.2
				c0-1.8,0.6-3.2,1.9-4.2c1-0.8,2.2-1.2,3.5-1.2c1.3,0,1,0.1,1.4,0.2c1.2,0.2,2.4-0.6,2.6-1.8l0.5-2.4c-1.7-0.7-3.3-1-4.7-1
				c-2.5,0-4.8,0.8-6.8,2.4c-2.5,2.1-3.8,4.7-3.8,8.1s1.3,6,3.8,8c2,1.6,4.2,2.4,6.8,2.4c2.5,0,3-0.3,4.7-1L57.8,48.4L57.8,48.4z"/>
			<g>
				<path class="st3" d="M72.4,34.4h-0.7c-1.7,0-2.3,1.3-2.4,1.5c-6.9,17.9-19.9,21.6-19.9,21.6S64.5,53.4,72.4,34.4L72.4,34.4z"/>
				<g>
					<path class="st3" d="M79.2,31c-1.3,0-1.9,0.9-2.1,1.3h5.5c-7.3,19.8-23.9,24-30.4,24.9C59.3,56.2,78.3,51.8,87,31L79.2,31
						L79.2,31L79.2,31z"/>
					<path class="st3" d="M75.3,32.8h6.5c-9.3,24.1-32.4,24.7-32.4,24.7s15.7-4,23.7-23.2C73.1,34.2,73.7,32.8,75.3,32.8L75.3,32.8
						L75.3,32.8z"/>
				</g>
			</g>
		</g>
	</g>
</g>
<g class="st0">
	<defs>
		<path id="SVGID_00000076591052979448122560000008968489666622922899_" d="M77.9,88.2H6.4c-4.5,0-8.2-3.7-8.2-8.2V8.5
			c0-4.5,3.7-8.2,8.2-8.2h71.5c4.5,0,8.2,3.7,8.2,8.2V80C86.2,84.5,82.5,88.2,77.9,88.2z"/>
	</defs>
	<clipPath id="SVGID_00000150093939293661479870000015443371547224920733_" class="st1">
		<use xlink:href="#SVGID_00000076591052979448122560000008968489666622922899_"  style="overflow:visible;"/>
	</clipPath>
	
		<g id="Layer_2-2_00000178899756540755460460000008268349370816945071_" style="display:inline;clip-path:url(#SVGID_00000150093939293661479870000015443371547224920733_);">
		<g>
			<path class="st3" d="M22.1,51.1c-1.2,0.9-2.6,1.6-4.1,2.1c-1.5,0.5-3.1,0.8-4.7,0.8s-3.8-0.3-5.5-1c-1.7-0.7-3.2-1.6-4.5-2.8
				c-1.3-1.2-2.3-2.6-3.1-4.2c-0.7-1.6-1.1-3.3-1.1-5.1c0-1.8,0.4-3.5,1.1-5.1c0.7-1.6,1.7-3,3.1-4.2c1.3-1.2,2.8-2.2,4.5-2.8
				c1.7-0.7,3.6-1,5.5-1s0.2,0,0.3,0H14c1.6,0,3.2,0.2,4.7,0.7c1.5,0.4,2.8,1.1,4.1,1.8v4.9c-0.6-1.4-1.4-2.5-2.3-3.6
				c-1-1-2-1.8-3.3-2.4c-1.2-0.6-2.5-0.9-3.9-0.9s-2.9,0.3-4.2,1c-1.3,0.7-2.4,1.6-3.4,2.7c-1,1.2-1.7,2.5-2.3,4
				c-0.6,1.5-0.8,3.2-0.8,4.9c0,1.8,0.3,3.4,0.8,4.9c0.6,1.5,1.3,2.9,2.3,4s2.1,2.1,3.4,2.7c1.3,0.7,2.7,1,4.2,1h0
				c1.6,0,3.1-0.3,4.6-0.7c1.4-0.5,2.8-1.2,3.9-2L22.1,51.1L22.1,51.1L22.1,51.1L22.1,51.1L22.1,51.1z"/>
			<g>
				<polygon class="st3" points="46.9,30.4 46.9,34.4 42.8,30.4 				"/>
				<polygon class="st3" points="46.8,52.4 47.8,53.9 42.9,53.9 43.8,52.4 43.8,38.1 42.9,36.6 43.8,36.6 46.8,36.6 				"/>
			</g>
			<path class="st3" d="M65.5,52.4l0.9,1.5h-4.9l0.9-1.5v-9.1c0-1.5-0.3-2.9-0.9-4c-0.6-1.1-1.4-1.8-2.3-2.1l0,0c-0.1,0-0.2,0-0.3,0
				s-0.1,0-0.2,0l0,0c-0.6,0-1.3,0.1-1.9,0.3l-3.3,0.8l-0.2,0v14.1l1,1.5h-4.9l1-1.5V38.2l-1-1.5h3.9v1.1l3.4-0.8
				c0.7-0.2,1.3-0.3,2-0.3s0.9,0.1,1.4,0.1c1,0.2,2,0.6,2.7,1.3c0.8,0.6,1.4,1.4,1.9,2.3c0.5,0.9,0.7,1.9,0.7,3L65.5,52.4L65.5,52.4
				L65.5,52.4L65.5,52.4L65.5,52.4z"/>
			<path class="st3" d="M37.3,53.4l3.8-3L39.7,54H24.4l1.2-1.7V29.5l-1.2-1.7h5.9l-1.2,1.7v24H37.3L37.3,53.4z"/>
			<path class="st3" d="M83.1,38.2l-6.2,7.1l8.6,8.6h-5l0.4-0.6l-6.1-5.8l-2.7,3v1.9l1,1.5h-4.9l1-1.5V29.7l-1-1.5l4-0.6v22.1
				l10.2-11.6l0.3-1.5h2.7L83.1,38.2L83.1,38.2L83.1,38.2L83.1,38.2L83.1,38.2z"/>
		</g>
		<g>
			<g>
				<text transform="matrix(1 0 0 1 -1.3355 59.3335)" class="st3 st6 st7">M</text>
				<text transform="matrix(1 0 0 1 3.1098 59.3335)" class="st3 st6 st7">&amp;</text>
				<text transform="matrix(1 0 0 1 6.7543 59.3335)" class="st3 st6 st7">A</text>
			</g>
			<g>
				<text transform="matrix(1 0 0 1 16.3813 59.273)" class="st3 st6 st7">I</text>
				<text transform="matrix(1 0 0 1 17.7807 59.273)" class="st3 st6 st7">n</text>
				<text transform="matrix(1 0 0 1 20.8315 59.273)" class="st3 st6 st7">v</text>
				<text transform="matrix(1 0 0 1 23.2455 59.273)" class="st3 st6 st7">e</text>
				<text transform="matrix(1 0 0 1 26.1537 59.273)" class="st3 st6 st7">s</text>
				<text transform="matrix(1 0 0 1 28.8295 59.273)" class="st3 st6 st7">tment</text>
			</g>
			<g>
				<text transform="matrix(1 0 0 1 49.4223 59.3003)" class="st3 st6 st7">T</text>
				<text transform="matrix(1 0 0 1 51.8295 59.3003)" class="st3 st6 st7">r</text>
				<text transform="matrix(1 0 0 1 53.475 59.3003)" class="st3 st6 st7">ans</text>
				<text transform="matrix(1 0 0 1 62.2465 59.3003)" class="st3 st6 st7">f</text>
				<text transform="matrix(1 0 0 1 63.7934 59.3003)" class="st3 st6 st7">orm</text>
				<text transform="matrix(1 0 0 1 73.5014 59.3003)" class="st3 st6 st7">a</text>
				<text transform="matrix(1 0 0 1 76.4321 59.3003)" class="st3 st6 st7">tion</text>
			</g>
			<circle class="st3" cx="13.2" cy="59" r="0.3"/>
			<circle class="st3" cx="46.5" cy="59" r="0.3"/>
		</g>
	</g>
</g>
<g>
	<defs>
		<path id="SVGID_00000142882730165052718990000011269072873568320391_" d="M79.3,88.2H7.7c-4.5,0-8.2-3.7-8.2-8.2V8.5
			c0-4.5,3.7-8.2,8.2-8.2h71.5c4.5,0,8.2,3.7,8.2,8.2V80C87.5,84.5,83.8,88.2,79.3,88.2z"/>
	</defs>
	<clipPath id="SVGID_00000106140619891187599550000004928585845117474981_">
		<use xlink:href="#SVGID_00000142882730165052718990000011269072873568320391_"  style="overflow:visible;"/>
	</clipPath>
	
		<g id="Layer_1-2_00000165218933775059460890000000325998897051829154_" style="clip-path:url(#SVGID_00000106140619891187599550000004928585845117474981_);">
		<g>
			<path class="st3" d="M16.8,53.8c-1-0.4-1.9-0.8-2.7-1.3c-1.1-0.5-2.2-1-3.3-1.5c-0.4-0.2-0.5-0.4-0.5-0.8c0-3.8,0-7.5,0-11.3
				c0-0.3,0-0.5,0-1c-0.5,0.4-0.8,0.7-1.2,1c-1.1,0.9-2.2,1.8-3.3,2.7c-0.1,0.1-0.4,0.2-0.6,0.1c-2-0.9-4-1.8-5.9-2.8
				c-0.1,0-0.1-0.1-0.3-0.2c0.9-0.8,1.8-1.5,2.7-2.3c2.7-2.3,5.5-4.5,8.2-6.8c0.3-0.3,0.6-0.4,1-0.2c1.8,0.9,3.6,1.7,5.4,2.5
				c0.4,0.2,0.6,0.4,0.6,0.9c0,1.6,0,3.2,0,4.9c0,0.2,0,0.4,0,0.6c0.2-0.1,0.3-0.2,0.4-0.2c1.3-1.1,2.7-2.2,4-3.3
				c0.3-0.2,0.5-0.3,0.9-0.1c1.9,0.9,3.7,1.8,5.6,2.6c0.3,0.2,0.4,0.3,0.4,0.7c0,6.8,0,13.6,0,20.4c0,0.2,0,0.3,0,0.5
				c-0.3-0.1-0.4-0.2-0.6-0.3c-1.8-0.8-3.6-1.7-5.4-2.5c-0.4-0.2-0.5-0.4-0.5-0.8c0-3.8,0-7.6,0-11.4c0-0.2,0-0.5,0-0.9
				c-0.4,0.3-0.7,0.6-1,0.8c-1.1,0.9-2.2,1.8-3.3,2.7c-0.3,0.2-0.4,0.5-0.4,0.9c0,1.8,0,3.6,0,5.4C16.9,53.3,16.9,53.5,16.8,53.8
				L16.8,53.8z"/>
			<path class="st3" d="M41.6,42.9c0.7-1.1,1.3-2.2,1.9-3.2c0.4-0.6,0.7-1.2,1.1-1.8c0.1-0.2,0.3-0.3,0.5-0.3c1.3,0,1-0.1,1,1
				c0,2.2,0,4.4,0,6.6c0,0.5-0.1,0.8-0.7,0.7c-0.3,0-0.5,0-0.9,0v-5.1c0,0-0.1,0-0.1,0c-0.2,0.4-0.5,0.8-0.7,1.2
				c-0.5,0.9-1,1.7-1.6,2.6c-0.3,0.5-0.9,0.5-1.2,0c-0.8-1.2-1.5-2.5-2.4-3.7v5H37c0-0.2,0-0.4,0-0.6c0-2.3,0-4.6,0-6.9
				c0-0.2,0.1-0.6,0.2-0.7c0.5-0.2,1.1,0,1.3,0.3c0.9,1.5,1.8,3,2.7,4.5C41.4,42.6,41.4,42.7,41.6,42.9L41.6,42.9z"/>
			<path class="st3" d="M62.6,45.8c0-1.1,0-2.2,0-3.2c0-0.9,0-1.7,0-2.6c0-0.4,0.1-0.5,0.5-0.5c0.3,0,0.6,0,0.9,0
				c0,0.2,0.1,0.4,0.1,0.6c1.7-1,2.8-0.9,4.1,0.3c0.7-0.6,1.4-0.9,2.3-0.9c1.6,0,2.5,0.9,2.6,2.5c0.1,1.2,0,2.4,0,3.6
				c0,0.1-0.2,0.3-0.3,0.3c-0.4,0-0.8,0-1.2,0c0-0.6,0-1.2,0-1.8c0-0.6,0-1.1,0-1.7c0-1-0.5-1.6-1.3-1.6c-0.9,0-1.5,0.7-1.6,1.6
				c0,1,0,2,0,2.9c0,0.4-0.2,0.6-0.6,0.5c-0.3,0-0.6,0-1,0c0-0.6,0-1.1,0-1.7c0-0.6,0-1.2,0-1.9c0-0.9-0.5-1.4-1.3-1.5
				c-0.8-0.1-1.5,0.5-1.6,1.4c-0.1,0.9,0,1.7-0.1,2.6c0,1.3,0.1,1.1-1.1,1.1C62.9,45.9,62.8,45.8,62.6,45.8z"/>
			<path class="st3" d="M59.5,45.8c0-0.2,0-0.4,0-0.6c-0.7,0.6-1.5,0.8-2.4,0.7c-0.9-0.1-1.6-0.4-2.2-1.1c-0.9-1.2-0.9-3.1,0-4.2
				c1-1.2,2.5-1.4,4.5-0.5c0-0.8,0-1.6,0-2.4c0-0.5,0.2-0.7,0.7-0.6c1.1,0,0.9-0.1,0.9,0.9c0,2.4,0,4.8,0,7.2c0,0.2,0,0.4,0,0.7
				H59.5z M59.4,42.7c0-1.1-0.7-1.9-1.8-1.9c-1.1,0-1.8,0.8-1.8,1.9c0,1.1,0.8,1.9,1.8,1.9C58.7,44.6,59.4,43.8,59.4,42.7L59.4,42.7
				z"/>
			<path class="st3" d="M75.8,43.2c0.2,1.4,1.8,1.8,3.6,0.7c0.3,0.3,0.5,0.6,0.8,0.9c-0.5,0.7-1.2,0.9-1.9,1.1
				c-2,0.3-3.8-0.7-4.1-2.5c-0.2-1.3,0.1-2.5,1.2-3.3c1.1-0.8,2.3-0.9,3.6-0.3c1.2,0.6,1.7,1.6,1.7,2.9c0,0.4-0.2,0.5-0.6,0.5
				C78.7,43.2,77.3,43.2,75.8,43.2L75.8,43.2z M75.8,42.1h3.2c-0.1-0.8-0.7-1.3-1.6-1.4C76.6,40.7,75.9,41.3,75.8,42.1z"/>
			<path class="st3" d="M51.6,42.1c-0.2-1.4-1.4-1.7-3.4-0.7c-0.2-0.3-0.3-0.6-0.5-0.9c0-0.1,0-0.3,0.1-0.4c1.3-0.7,2.7-0.9,4.1-0.3
				c0.9,0.4,1.2,1.2,1.2,2.1c0,1.2,0,2.4,0,3.6c0,0.3-0.1,0.4-0.5,0.4c-0.9,0-0.9,0-1.2-0.5c-0.8,0.5-1.7,0.6-2.6,0.4
				c-1-0.2-1.6-1-1.6-1.9c0-1,0.7-1.6,1.7-1.8c0.6-0.1,1.2-0.1,1.8-0.1C51.2,42.1,51.4,42.1,51.6,42.1L51.6,42.1z M51.6,43.2
				c-0.6,0-1.2-0.1-1.8,0c-0.3,0-0.6,0.3-0.7,0.5c-0.1,0.1,0,0.5,0.2,0.7c0.3,0.4,1.2,0.4,1.7,0.2C51.5,44.3,51.7,43.9,51.6,43.2
				L51.6,43.2z"/>
			<path class="st3" d="M37,56.7c0-0.2,0-0.4,0-0.6c0-2.3,0-4.7,0-7c0-0.5,0.2-0.6,0.6-0.6c1.3,0.1,2.6-0.1,3.9,0.2
				c2.3,0.4,3.5,2.2,3.2,4.7c-0.2,1.9-1.8,3.4-3.9,3.4C39.6,56.7,38.3,56.7,37,56.7L37,56.7z M38,55.9c1.2-0.1,2.4-0.1,3.6-0.3
				c1.3-0.3,2.2-1.5,2.3-2.8c0.1-1.5-0.6-2.7-1.9-3.3c-1.2-0.5-2.4-0.2-3.7-0.3c-0.1,0-0.2,0.2-0.2,0.3C38,51.7,38,53.7,38,55.9z"/>
			<path class="st3" d="M83.3,45.9c-0.5,0-0.9,0-1.3,0c-0.1,0-0.3-0.2-0.3-0.4c0-1.9,0-3.7,0-5.6c0-0.3,0.1-0.4,0.4-0.4
				c0.2,0,0.3,0,0.5,0c0.4,0,0.7,0.1,0.6,0.6c0.9-0.6,1.8-0.8,2.8-0.6c1.1,0.3,1.8,0.9,1.8,2c0.1,1.4,0,2.8,0,4.3
				c-0.4,0-0.9,0-1.3,0c-0.1,0-0.3-0.3-0.3-0.4c0-1,0-2,0-2.9c0-1.1-0.5-1.6-1.3-1.7c-0.9-0.1-1.6,0.5-1.7,1.5
				c-0.1,0.9,0,1.8-0.1,2.7C83.3,45.3,83.3,45.5,83.3,45.9L83.3,45.9z"/>
			<path class="st3" d="M49.8,57.5c0.9,0.2,1.7,0.6,2.5,0.6c1.7,0.1,2.5-0.9,2.2-2.7c-0.8,0.9-1.8,1.1-3,0.9
				c-0.8-0.1-1.4-0.5-1.9-1.1c-0.9-1.2-0.8-3,0.2-4c0.9-0.9,3-1.4,4.7,0.1c0-0.3,0-0.6,0.1-0.9c0.8-0.2,0.9-0.1,0.9,0.6
				c0,1.6,0,3.2,0,4.8c0,0.6-0.2,1.3-0.4,1.8c-0.5,1-1.5,1.2-2.5,1.3c-0.9,0-1.7-0.1-2.5-0.5C49.4,58.1,49.3,58.1,49.8,57.5
				L49.8,57.5z M52.3,55.6c1.3,0,2.3-0.9,2.3-2.2c0-1.3-1-2.2-2.3-2.2c-1.3,0-2.2,0.9-2.2,2.2C50,54.7,50.9,55.6,52.3,55.6
				L52.3,55.6z"/>
			<path class="st3" d="M70.3,56.7c-0.6,0.1-1,0.1-0.9-0.6c-0.9,0.7-1.9,0.9-2.9,0.6c-0.9-0.3-1.4-0.9-1.4-1.8
				c0-0.9,0.5-1.4,1.5-1.6c0.5-0.1,1.1-0.1,1.6-0.1c0.4,0,0.7,0,1.1,0c0.4-1-0.4-2-1.7-1.9c-0.6,0.1-1.3,0.4-1.9,0.6
				c-0.4-0.5-0.4-0.6,0.3-1c0.9-0.4,1.8-0.6,2.8-0.3c0.9,0.2,1.6,0.9,1.6,1.8C70.3,53.7,70.3,55.2,70.3,56.7L70.3,56.7z M68.2,53.8
				C68.2,53.8,68.2,53.8,68.2,53.8c-0.5,0-1,0-1.5,0.1c-0.3,0.1-0.6,0.4-0.7,0.7c-0.2,0.4,0,0.8,0.4,1.1c0.9,0.6,2.4,0.2,2.8-0.8
				c0.3-0.8,0.1-1.1-0.7-1.1C68.5,53.8,68.3,53.8,68.2,53.8L68.2,53.8z"/>
			<path class="st3" d="M63.8,55.7c0.5,0.5,0.4,0.7-0.2,1c-1.5,0.5-2.6-0.3-2.6-1.8c0-1,0-2,0-2.9c0-0.5-0.1-0.6-0.6-0.6
				c-0.3,0-0.5,0-0.5-0.4c0-0.4,0.2-0.4,0.5-0.4c0.5,0.1,0.6-0.1,0.6-0.6c0-0.8,0-0.8,0.9-0.7c0,0.3,0,0.6,0,0.9
				c0,0.3,0.1,0.4,0.4,0.4c0.4,0,0.7,0,1.1,0c0.3,0,0.5,0.1,0.4,0.4c0,0.2-0.2,0.3-0.4,0.4c-0.4,0.1-0.7,0-1.1,0
				c-0.3,0-0.4,0.1-0.4,0.5c0,1,0,2,0,3c0,1.1,0.7,1.5,1.7,1.1C63.6,55.7,63.7,55.7,63.8,55.7L63.8,55.7z"/>
			<path class="st3" d="M73.1,56.7h-0.9c0-0.2,0-0.4,0-0.5c0-2.5,0-5.1,0-7.6c0-0.3,0-0.6,0.5-0.6c0.5,0,0.5,0.3,0.5,0.6
				c0,2.5,0,5.1,0,7.6C73.1,56.3,73.1,56.5,73.1,56.7L73.1,56.7z"/>
			<path class="st3" d="M46.5,56.7c0-2,0-4,0-5.9c0-0.1,0.3-0.3,0.4-0.3c0.2,0,0.5,0,0.5,0.3c0,1.9,0,3.7,0,5.6
				C47.4,57,46.9,56.6,46.5,56.7z"/>
			<path class="st3" d="M58.4,56.7h-0.9c0-1.1,0-2.3,0-3.4c0-0.7,0-1.5,0-2.2c0-0.8,0-0.8,0.9-0.6V56.7L58.4,56.7z"/>
			<path class="st3" d="M46.9,49.2c-0.4,0-0.6-0.3-0.6-0.7c0-0.4,0.3-0.6,0.7-0.6c0.4,0,0.6,0.3,0.6,0.6
				C47.6,49,47.3,49.2,46.9,49.2L46.9,49.2z"/>
			<path class="st3" d="M58,47.9c0.4,0,0.7,0.2,0.7,0.6c0,0.4-0.3,0.6-0.7,0.6c-0.4,0-0.6-0.2-0.6-0.6C57.4,48.2,57.6,47.9,58,47.9
				L58,47.9z"/>
		</g>
	</g>
</g>
</svg>
