<?xml version="1.0" encoding="UTF-8"?>
<svg id="Layer_2" data-name="Layer 2" xmlns="http://www.w3.org/2000/svg" viewBox="0 0 188.5 51.76">
  <defs>
    <style>
      .cls-1 {
        fill: #fff;
        stroke-width: 0px;
      }
    </style>
  </defs>
  <g id="Layer_2-2" data-name="Layer 2">
    <path class="cls-1" d="M153.2,29.3c-2.25,6.62-4.66,13.23-6.91,19.85h0c-2.41-6.62-4.66-13.23-6.91-19.85h-.91c2.55,7.23,4.96,14.28,7.52,21.35h.75c2.41-6.62,4.66-13.07,7.07-19.71,1.2,3.32,2.41,6.62,3.46,9.78,1.2,3.32,2.25,6.62,3.46,9.93h.59c.59-1.2,7.52-21.05,7.52-21.35h-.75c-2.25,6.62-4.66,13.07-6.91,19.71h0c-2.25-6.62-4.66-13.23-6.91-19.85h-.59l-.45.16-.02-.02ZM30.78,31.55h-.16c-1.2-.91-2.41-1.5-3.75-1.8-2.11-.59-4.21-.75-6.32-.45-1.36.16-2.71.45-4.07,1.05-.75.3-1.5.91-1.96,1.5-.3.45-.59.91-.75,1.5-.45,1.8,0,3.46,1.5,4.66.3.3.75.59,1.05.75.91.45,1.66.75,2.55,1.05,1.66.45,3.32.91,4.82,1.36,1.2.3,2.55.59,3.61,1.2,1.05.45,1.8,1.05,2.41,1.96.91,1.36.91,3.16-.3,4.36-.59.59-1.36,1.05-2.11,1.36-1.2.45-2.55.75-3.75.91-3.32.16-6.46-.45-9.32-2.25,0,0-.16,0-.3-.16l-.59.59c.59.3,1.05.59,1.5.91,3.61,1.8,7.52,2.11,11.43,1.2,1.36-.3,2.71-.91,3.75-1.96,1.2-1.05,1.5-2.41,1.2-4.07-.3-1.2-.91-1.96-1.8-2.71-.75-.59-1.8-1.05-2.71-1.36-1.5-.45-3-.91-4.66-1.36-1.5-.45-3-.75-4.36-1.36-.91-.45-1.8-.91-2.41-1.66-.3-.45-.59-.75-.75-1.36-.3-1.36,0-2.55,1.05-3.61.75-.59,1.66-1.05,2.55-1.36,1.8-.59,3.75-.75,5.71-.45,2.25.3,4.36.91,6.16,2.25l.3.16c.16-.16.3-.3.45-.59v-.3l.02.05ZM188.07,31.55h-.16c-1.05-.75-2.11-1.36-3.32-1.66-3-.91-6.16-1.05-9.18-.16-1.36.3-2.55.91-3.46,1.96-.45.45-.91,1.05-1.05,1.66-.45,1.8,0,3.46,1.36,4.66.3.3.75.59,1.2.75.91.45,1.66.75,2.55,1.05,1.66.45,3.32.91,4.82,1.36,1.2.3,2.55.59,3.61,1.2,1.05.45,1.96,1.05,2.55,1.96.91,1.2.75,3-.3,4.21-.45.59-1.05.91-1.66,1.2-1.2.59-2.41.91-3.75,1.05-3.61.3-6.77-.3-9.93-2.25h-.3s-.3.16-.3.3l-.3.3c.45.3.91.59,1.36.75,3.75,1.8,7.82,2.25,11.89,1.2,1.2-.3,2.41-.91,3.46-1.8,1.2-1.2,1.5-2.55,1.2-4.07-.3-1.05-1.05-1.96-1.8-2.55s-1.66-1.05-2.71-1.36c-1.5-.45-3.16-.91-4.66-1.36s-3-.75-4.36-1.36c-.91-.45-1.8-.91-2.41-1.66-.3-.45-.59-.75-.75-1.36-.3-1.36,0-2.55,1.05-3.61.75-.59,1.66-1.05,2.55-1.36,1.8-.59,3.61-.75,5.57-.59,2.25.3,4.36.91,6.32,2.25,0,0,.16,0,.3.16.16-.16.3-.3.59-.45v-.45.07ZM20.71,10.37h0c-.59-.45-1.2-.75-1.66-1.36-.3-.45-.75-.75-1.36-.91-.45,0-.91-.3-1.36-.45-.91-.45-1.8-1.05-2.71-1.5-.3,0-.45-.3-.59-.45,0,0-.16-.16-.3-.3.16,1.05.91,1.66,1.66,2.25.45.45,1.05.75,1.5,1.05h0c.16.3.45.45.75.59.3,0,.59.16.75.3v.75c.3,0,.3.3.3.59,0,0,.16.3.3.3.16.16.3.3.59.45.16,0,.45,0,.45.16.16.16.3.3.59.3,0,0,.3,0,.45.16,0,.45-.16.75-.3,1.05,0,.3-.16.45-.45.75s-.59.75-.91,1.05c0,0-.16.3-.3.45.45.3.75.59,1.36.3.16,0,.45,0,.75-.16.3,0,.45-.16.3-.45v-.75c.16-.16.3-.3.45-.45h.59c.16-.3.45-.3.75-.45.3,0,.59-.3.75-.45.16,0,.3-.3.45-.45.45-.45.91-.59,1.5-.45.3,0,.45,0,.75.16h.45c-.45-.75-.91-1.36-1.8-1.36h-1.5v-.91c0-1.05,0-1.96.3-2.86,0-.45,0-.75-.3-1.05-.75-.59-1.36-1.2-2.11-1.8-.59-.45-1.2-.59-1.96-.75h-.16s.16.3.3.3c-.09.2,0,.45.3.75,0,0,0,.16-.3.3.16.16.45.3.45.45,0,.45,0,.75.45,1.05v.3c.3.3.59.59.91.75v.75c-.3.3-.3.59,0,.91,0,.3.16.59.3.75l-.45.3.05.11ZM11.39,41.49c.3-.45.45-1.05.75-1.5s.16-.75,0-1.05c0-.3-.3-.59-.3-.91-.16-.45-.45-.91-.91-1.05-.59-.3-1.2-.45-1.8-.75-.16,0-.45-.3-.59-.3h0c.3,0,.75-.3,1.2-.45-.59-.3-1.05-.59-1.66-.59s-.75-.16-1.05-.45c-.75-.59-1.2-1.36-.91-2.41,0-.3,0-.45-.3-.59-.16,0-.3,0-.59-.16-.91-.3-1.8-.45-2.71-.75-.91-.16-1.66-.45-2.55-.59.3.3.59.59,1.05.75.3,0,.59.45.75.59l.3.3c.45,0,.59.45.91.75v.3c0,.16,0,.45.16.59.3.59.59,1.2.75,1.96v1.36c-.59.16-1.36.3-2.11.45-.3,0-.59.3-.75.59h.75c-.3.16-.45.3-.59.45h0c.59-.16,1.2-.3,1.66-.45,1.05-.59,1.96-.75,3.16-.75h.45c.59.45,1.2.75,1.96.91,1.05.45,1.66,1.2,1.96,2.25v.3c.3.3.45.59.75.91l.3.3h-.05ZM18.91,23.89c.16.3.3.59.59.59s.45.3.59.45.3.16.59,0c.3-.16.59-.45.91-.59.16,0,.3-.16.59-.16.45,0,.75-.16,1.2-.45.45-.16.75-.59,1.05-.75,0,0,.3-.16.45-.16h2.11c.91,0,1.96.3,2.86.3h2.41c0-.16-.3-.3-.45-.45-1.05-.3-1.8-.75-2.71-1.36-.3-.16-.59-.3-.91-.16-1.05,0-1.96.16-3,.3-.3-.45-.45-.59-1.05-.3-.75.16-1.5,0-2.11-.3-.45-.3-1.05-.59-1.5-.91-.45-.3-.91-.45-1.36-.45-2.11-.16-4.07-.45-6.02-.91h-.45c0,.3.3.45.45.59.91.45,1.96.91,2.86,1.36.3,0,.59.3.91.16.3,0,.45,0,.75.16.16,0,.3.16.45.3.75.3,1.8.45,2.41,1.2,0,0,.3,0,.3.16.16,0,.3.16.45.3,0,.3-.3.59-.59.59-.45,0-.91.16-1.36.3h-.45v.16l.02.05ZM39.96,10.96h0c-.45-.3-.91-.45-1.36-.75h-2.25c-.16-.16-.45-.16-.59,0h-.91c-.3-.16-.59-.3-.75-.45-.3,0-.45-.3-.75-.3-1.05-.16-2.11-.3-3.16-.45h-.16s0,.16.16.16c.75.3,1.36.75,2.11.91h.3c.3,0,.45.3.75.3.45,0,.75.45,1.2.75-.3.45-.91.3-1.2.59.3.3.45.45.75.59.3-.16.59-.45.91-.45.45,0,.75-.3,1.05-.59.16,0,.3-.16.59-.16h3.61l-.3-.16v.02ZM30.33,4.8c0,.59-.45.91-.75,1.36.3.3.59,0,.91,0,0-.39.2-.7.59-.91.3,0,.45-.3.75-.45.16,0,.3,0,.59-.16h.45c-.3-.59-.91-.45-1.36-.59v-1.36c0-.45,0-.75-.3-.91-.16,0-.3-.3-.59-.45-.3-.16-.59-.45-1.05-.45,0,.59.3,1.2.75,1.66l.16.3v.91c-.45-.3-.75-.59-1.2-.91-.45-.3-.91-.45-1.36-.59h0c-.3-.16-.45-.3-.91-.45.59.91,1.36,1.36,2.11,1.8.16.59.3.59,1.2,1.2h0v.02ZM17.25,13.37h-2.41c-.3,0-.45,0-.75-.16h-.45c-.45.16-.75,0-1.05-.3s-.59-.59-.75-.91c-.16-.16-.3-.45-.59-.59-.45-.3-.91-.45-1.36-.59,0,.16.16.3.3.45.45.59.75,1.2,1.2,1.66.3.3.45.75,1.05.91h.45c-.45.45-.91.45-1.36.59,0,.45.3.59.59.59h1.05s.3,0,.45-.16v-.45s.3-.3.45-.3h.45c.45.3.75.3,1.36,0,.59,0,1.05-.45,1.5-.75h-.16.02ZM17.25,27.51c-.75.16-1.5.3-2.41.59h-1.2c-.3.16-.59.16-.75,0-.45-.16-.75-.3-1.2-.59-.75-.45-1.36-.3-2.11-.3,0,.16.3.3.45.45.45.3.91.59,1.36.91.45.3.91.59,1.5.45h0c-.3.45-.75.59-1.05.91,0,.3.45.45.75.45s.75-.16,1.05-.3c0,0,.3-.16.3-.3v-.3l.16-.16c.3-.3.59-.45,1.05-.3h.59c.59-.3,1.2-.59,1.66-1.36l-.16-.16.02-.02ZM8.07,26.01c-.59,0-1.36-.16-1.96-.3-.3,0-.45,0-.59-.3h-.45c-.3,0-.45,0-.75-.3-.16-.3-.3-.59-.59-.91-.16-.3-.3-.45-.59-.59-.3-.16-.59-.3-1.05-.59,0,.3,0,.45.16.59.16.45.45.91.59,1.36.16.45.45.91,1.05.91-.45.45-.91.3-1.36.45,0,.3,0,.59.3.59h.75c.16,0,.45,0,.59-.16,0,0,0-.3.16-.45h.16c.3-.16.59-.3.91,0,0,0,.45.16.59.16.59,0,1.2-.3,1.66-.75l.45.3-.02-.02ZM27.94,18.94c.3,0,.59-.3.91-.3s.75,0,1.05-.16c.45.3,1.2.45,1.5.91,0,0,0,.3.16.45,0,.16.3.45.45.59,0-.16,0-.3.16-.45.3-.75,0-1.2-.59-1.5-.3,0-.45-.16-.75-.3.16,0,.3-.16.45-.3-.3,0-.45,0-.75-.16-.59,0-.91-.59-.75-1.2v-.3c-.75-.3-1.5-.45-2.41-.59v.16c.75.3,1.2.91,1.36,1.66,0,.45,0,.75-.45.75s-.45,0-.75.16c0,.16,0,.3.16.45l.3.16-.05-.05ZM2.52,18.03v.16c.45.16.91.45,1.5.59.45.16.91.3,1.36.45.3,0,.45.3.75.59-.45.16-.75.3-1.05.45.3.16.45.3.59.45.45-.16.75-.3,1.05-.45,0,0,.3,0,.3-.16.3-.3.75-.3,1.05-.3h2.41c-.45-.3-.91-.45-1.2-.75h-.16c-.59,0-1.2.16-1.8,0-.59.16-1.05,0-1.5-.45-.3-.16-.59-.3-.91-.3-.59,0-1.36-.16-1.96-.3h-.45.02ZM38.01,5.71h0c-.3,0-.59.3-.91.45.3.45.75.59,1.5.3,0-.45.3-.75.75-.59.75.3,1.36.16,1.96-.45h-.45c-.59,0-1.36.16-1.96-.16h-.91c-.16-.16-.45-.3-.59-.59-.3-.59-.91-.75-1.66-1.05.3.59.75,1.05,1.05,1.66.3.3.59.59.91.59l.3-.16h.02ZM39.96,1.8c-.3-.16-.75-.45-1.05-.59-.3-.16-.75-.3-1.05-.45h0c.3.3.75.45,1.05.75,0,0,.3,0,.3.16,0,.45.45.59.75.75-.16.3-.3.59-.45.91.3,0,.5-.05.59-.16v-.16c.45,0,.75-.59,1.36-.59-.16-.45-.59-.3-.75-.45v-.75c0-.59-.45-1.2-1.2-1.2,0,.3,0,.59.3.75.3.3.3.59.16.91v.16-.02ZM44.76,2.25h0s.3.16.45,0c.59-.3,1.2-.45,1.8-.3h.3c-.3-.3-.59-.45-.91-.45-.45,0-.91,0-1.2-.16-.45-.3-1.05-.3-1.66-.3.45.45,1.2.3,1.66.91,0,0-.3,0-.45.16v.16l.02-.02Z"/>
    <path class="cls-1" d="M85.36,41.49c2.11,3.16,4.21,6.16,6.32,9.32h-1.05l-.3-.3c-1.66-2.41-3.32-4.82-4.96-7.23-.3-.45-.59-.91-.91-1.36,0-.16-.3-.3-.45-.3h-9.03v9.18h-.75v-21.35h10.53c2.86,0,5.41,2.11,6.16,4.82.3,1.36,0,2.71-.59,3.91-1.05,1.66-2.41,2.55-4.21,3.16-.16,0-.3,0-.59.16h-.16l-.02-.02ZM75,40.74h9.32c1.66,0,3.16-.59,4.36-1.8,1.66-1.66,1.96-4.21.75-6.16-1.05-1.66-2.71-2.71-4.82-2.71h-9.62v10.68h0v-.02Z"/>
    <path class="cls-1" d="M111.85,50.81h-1.05s-.3-.3-.3-.45c-1.8-2.71-3.75-5.57-5.57-8.27-.16-.3-.45-.45-.91-.45h-8.73v9.32h-.75v-21.51h10.68c2.86,0,5.41,2.11,6.16,4.82.3,1.5,0,2.71-.59,4.07-1.05,1.66-2.41,2.55-4.21,3.16-.16,0-.3,0-.59.16,2.11,3.16,4.21,6.16,6.32,9.32l-.45-.16h-.02ZM95.3,40.74h9.62c1.5,0,3-.75,4.07-1.8,1.66-1.66,1.96-4.21.59-6.32-1.05-1.66-2.71-2.55-4.66-2.55h-9.62v10.68h0v-.02Z"/>
    <path class="cls-1" d="M125.21,51.26c-5.87,0-11.14-4.96-11.14-11.28s4.96-11.12,11.14-11.12,11.14,5.11,11.14,11.28-5.41,11.28-11.14,11.12ZM125.21,50.51c.75,0,1.66-.16,2.41-.3,6.62-1.66,10.23-9.78,6.02-16.1-2.41-3.46-6.62-5.11-10.68-4.21-5.27,1.2-9.03,6.46-7.82,12.32,1.05,4.82,5.27,8.27,10.07,8.41v-.16.02Z"/>
    <path class="cls-1" d="M30.78,31.55c-.16.16-.3.3-.45.59,0,0-.16,0-.3-.16-1.8-1.36-3.91-1.96-6.16-2.25-1.96-.3-3.91,0-5.71.45-.91.3-1.8.75-2.55,1.36-1.05,1.05-1.5,2.25-1.05,3.61,0,.45.45.91.75,1.36.75.75,1.5,1.2,2.41,1.66,1.36.59,2.86.91,4.36,1.36s3,.91,4.66,1.36c1.05.3,1.96.75,2.71,1.36.91.75,1.66,1.5,1.8,2.71.3,1.5,0,2.86-1.2,4.07-1.05,1.05-2.41,1.66-3.75,1.96-3.91.91-7.82.59-11.43-1.2-.45-.3-1.05-.59-1.5-.91l.59-.59s.16,0,.3.16c2.86,1.66,6.02,2.41,9.32,2.25,1.36,0,2.55-.3,3.75-.91.75-.3,1.5-.75,2.11-1.36,1.05-1.2,1.2-3,.3-4.36-.59-.91-1.5-1.5-2.41-1.96-1.2-.45-2.41-.91-3.61-1.2-1.66-.45-3.32-.75-4.82-1.36-.91-.3-1.8-.59-2.55-1.05-.45-.16-.75-.45-1.05-.75-1.5-1.2-1.96-2.86-1.5-4.66,0-.59.45-1.05.75-1.5.59-.59,1.2-1.2,1.96-1.5,1.2-.59,2.71-.91,4.07-1.05,2.11-.3,4.21,0,6.32.45,1.36.3,2.55,1.05,3.75,1.8h.16v.3l-.02-.05Z"/>
    <path class="cls-1" d="M188.07,31.55c-.16.16-.3.3-.59.45,0,0-.16,0-.3-.16-1.96-1.36-4.07-1.96-6.32-2.25-1.96-.16-3.75,0-5.57.59-.91.3-1.8.75-2.55,1.36-1.05,1.05-1.5,2.25-1.05,3.61,0,.45.45.91.75,1.36.75.75,1.5,1.2,2.41,1.66,1.36.59,2.86.91,4.36,1.36,1.5.45,3.16.91,4.66,1.36.91.3,1.8.75,2.71,1.36.91.75,1.66,1.5,1.8,2.55.3,1.5,0,3-1.2,4.07-.91.91-2.11,1.5-3.46,1.8-4.07,1.05-8.12.59-11.89-1.2-.45-.16-.91-.45-1.36-.75,0,0,.16-.3.3-.3l.3-.3h.3c3,1.8,6.32,2.55,9.93,2.25,1.36,0,2.55-.45,3.75-1.05.59-.3,1.2-.75,1.66-1.2,1.05-1.2,1.05-2.86.3-4.21-.59-.91-1.5-1.5-2.55-1.96-1.2-.45-2.41-.91-3.61-1.2-1.66-.45-3.32-.75-4.82-1.36-.91-.3-1.8-.59-2.55-1.05-.45-.16-.91-.45-1.2-.75-1.5-1.2-1.8-2.86-1.36-4.66.16-.59.59-1.2,1.05-1.66.91-1.05,2.25-1.5,3.46-1.96,3-.75,6.16-.75,9.18.16,1.2.3,2.25.91,3.32,1.66h.16v.45-.07Z"/>
    <path class="cls-1" d="M35.15,29.3h10.23c2.86,0,5.41,1.8,6.32,4.5,1.2,3.75-1.2,7.37-4.96,8.12h-10.68v8.73h-.75v-21.51l-.16.16h0ZM36.05,30.05v11.28h10.68c3.32-.59,5.27-4.07,4.36-7.23-.75-2.41-3-3.91-5.57-4.07h-9.48v.02Z"/>
    <path class="cls-1" d="M52.15,50.81h-.91c0-.16,0-.45.16-.59,2.11-4.82,4.36-9.48,6.46-14.28.91-1.96,1.8-4.07,2.71-6.02.2-.41.55-.59,1.05-.59,3.32,7.07,6.46,14.28,9.78,21.35h-.91c-1.05-2.11-1.96-4.36-3-6.46h-12.64c-1.05,2.11-1.96,4.21-3,6.46l.3.16.02-.02ZM61.31,30.37c-1.96,4.36-3.91,8.73-5.87,13.07h11.89c-1.96-4.36-3.91-8.73-6.02-13.07Z"/>
    <path class="cls-1" d="M20.71,10.37c0-.3,0-.59-.3-.75,0-.3-.16-.59,0-.91v-.75c-.3-.3-.59-.59-.91-.75,0,0-.3-.16,0-.3-.3-.3-.45-.59-.45-1.05,0,0-.3-.3-.45-.45,0,0,.16-.16.3-.3-.3-.3-.41-.55-.3-.75,0,0-.16-.16-.3-.3h.16c.75,0,1.36.3,1.96.75.75.59,1.36,1.2,2.11,1.8.3.3.45.59.3,1.05-.3.91-.3,1.96-.3,2.86v.91h1.5c.91,0,1.36.59,1.8,1.36h-.45c-.3,0-.45,0-.75-.16-.59,0-1.05,0-1.5.45-.16.16-.3.3-.45.45-.3.16-.45.3-.75.45-.3,0-.59,0-.75.45h-.59s-.16.16-.45.45v.75c0,.3,0,.45-.3.45s-.45,0-.75.16c-.45.16-.91,0-1.36-.3,0-.16,0-.3.3-.45.3-.3.59-.75.91-1.05.16-.16.3-.45.45-.75,0-.3.16-.75.3-1.05,0,0-.3-.16-.45-.16-.3,0-.45,0-.59-.3,0,0-.3,0-.45-.16s-.45-.3-.59-.45c0,0-.16-.3-.3-.3,0-.16,0-.45-.3-.59v-.75c-.3,0-.59-.16-.75-.3-.3,0-.59-.16-.75-.59h0c-.45-.3-1.05-.59-1.5-1.05-.75-.59-1.5-1.2-1.66-2.25,0,0,.16.16.3.3.16.16.45.45.59.45.91.45,1.8,1.05,2.71,1.5.45.16.91.3,1.36.45.59.16,1.05.45,1.36.91.45.59,1.05.91,1.66,1.36h0l.45-.3-.05-.11Z"/>
    <path class="cls-1" d="M11.39,41.49c-.3-.3-.45-.59-.75-.91v-.3c-.3-1.05-.91-1.8-1.96-2.25-.75-.3-1.36-.59-1.96-.91h-.45c-1.05,0-2.11.3-3.16.75-.45.3-1.2.3-1.66.45h0c.16,0,.3-.3.59-.45h-.75c.16-.3.45-.45.75-.59.75-.16,1.36-.3,2.11-.45v-1.36c0-.75-.45-1.36-.75-1.96,0-.16,0-.45-.16-.59v-.3c-.3-.3-.45-.59-.91-.75l-.3-.3c-.3-.16-.45-.45-.75-.59-.45,0-.75-.45-1.05-.75.91.16,1.66.3,2.55.59.91.16,1.8.45,2.71.75.16,0,.45,0,.59.16.3.16.45.3.3.59-.3,1.05,0,1.8.91,2.41.3.3.59.45,1.05.45s1.05.3,1.66.59c-.45,0-.75.3-1.2.45h0c.16,0,.45.3.59.3.59.3,1.2.45,1.8.75.45.16.75.45.91,1.05,0,.3.3.59.3.91.16.3.16.75,0,1.05-.3.45-.45,1.05-.75,1.5l-.3-.3h.05Z"/>
    <path class="cls-1" d="M18.91,23.89h.45c.45,0,.91-.16,1.36-.3.3,0,.45-.3.59-.59-.16,0-.3-.16-.45-.3,0,0-.3,0-.3-.16-.59-.75-1.5-.91-2.41-1.2-.16,0-.3-.16-.45-.3-.3,0-.45-.16-.75-.16s-.59,0-.91-.16c-.91-.45-1.96-.91-2.86-1.36-.16,0-.3-.3-.45-.59h.45c1.96.45,4.07.75,6.02.91.45,0,.91.16,1.36.45s.91.59,1.5.91c.75.45,1.36.45,2.11.3.59-.16.75,0,1.05.3,1.05,0,1.96-.16,3-.3.3,0,.59,0,.91.16.91.59,1.8,1.05,2.71,1.36.16,0,.3.16.45.45h-.3c-.3-.16-.75,0-1.05,0h-1.05c-1.05,0-1.96-.3-2.86-.3h-2.11c-.16,0-.3,0-.45.16-.3.3-.75.59-1.05.75s-.75.3-1.2.45c-.16,0-.3,0-.59.16-.3.16-.59.45-.91.59-.16.16-.3.16-.59,0-.16-.16-.45-.3-.59-.45-.3,0-.3-.45-.59-.59v-.16l-.05-.05Z"/>
    <path class="cls-1" d="M39.96,10.96h-3.61c-.16,0-.3,0-.59.16-.3.3-.59.45-1.05.59-.3,0-.59.3-.91.45-.3-.16-.45-.45-.75-.59.45-.3.91,0,1.2-.59-.45-.16-.75-.59-1.2-.75-.3,0-.45-.16-.75-.3h-.3c-.75,0-1.5-.45-2.11-.91l-.16-.16h.16c1.05.16,2.11.3,3.16.45.3,0,.59.16.75.3.3,0,.59.3.75.45.3.16.59.16.91,0h2.86c.45.16.91.45,1.36.75h0l.3.16-.02-.02Z"/>
    <path class="cls-1" d="M30.33,4.8c-.91-.45-.91-.59-1.2-1.2-.75-.45-1.66-.91-2.11-1.8.3.16.59.3.91.45h0c.45.16.91.3,1.36.59s.75.59,1.2.91v-.91s0-.3-.16-.3c-.45-.45-.59-1.05-.75-1.66.45,0,.75.16,1.05.45.16,0,.3.3.59.45.3.3.45.45.3.91v1.36c.45,0,1.05,0,1.36.59h-.45c-.16,0-.3,0-.59.16-.3,0-.45.3-.75.45-.3.2-.5.5-.59.91-.3,0-.59.3-.91,0,.16-.45.75-.75.75-1.36h0v-.02Z"/>
    <path class="cls-1" d="M17.25,13.37c-.45.3-.91.59-1.5.75h-1.8c-.16,0-.3.16-.45.3v.45s-.3,0-.45.16h-1.05c-.3,0-.59-.16-.59-.59.45-.16.91-.3,1.36-.59h-.45c-.45,0-.75-.59-1.05-.91-.45-.45-.75-1.05-1.2-1.66,0,0,0-.3-.3-.45.59.3,1.05.45,1.36.59.16,0,.45.3.59.59.3.3.45.59.75.91.3.3.59.45,1.05.3h.45c.16.3.45.16.75.16h2.55-.02Z"/>
    <path class="cls-1" d="M17.25,27.51c-.3.59-.91,1.05-1.66,1.36h-.59c-.45-.16-.75,0-1.05.3l-.16.16v.3s-.16.16-.3.3c-.3,0-.75.3-1.05.3s-.59,0-.75-.45c.3-.3.91-.45,1.05-.91h0c-.59.16-1.05,0-1.5-.45-.45-.3-.91-.59-1.36-.91-.16,0-.3-.3-.45-.45.75,0,1.5,0,2.11.3.3.16.75.45,1.2.59h1.96c.75-.16,1.66-.3,2.41-.59l.16.16-.02.02Z"/>
    <path class="cls-1" d="M8.07,26.01c-.45.45-1.05.59-1.66.75-.16,0-.45,0-.59-.16-.3-.45-.59-.3-.91,0h-.16c0,.16,0,.3-.16.45,0,0-.3.16-.59.16h-.75c-.3,0-.3-.3-.3-.59.45,0,.91,0,1.36-.45-.59,0-.91-.45-1.05-.91s-.45-.91-.59-1.36c0-.16,0-.3-.16-.59.45.16.75.3,1.05.59l.59.59c.16.3.3.59.59.91.16.3.3.3.75.3h.45c.16.3.45.3.59.3.59,0,1.36.16,1.96.3l-.45-.3.02.02Z"/>
    <path class="cls-1" d="M27.94,18.94s0-.3-.16-.45c.3,0,.45,0,.75-.16.45,0,.59-.3.45-.75-.16-.75-.59-1.36-1.36-1.66v-.16c.75,0,1.66.3,2.41.59v.3c0,.59.16,1.05.75,1.2.16,0,.45,0,.75.16-.16,0-.3.16-.45.3.3,0,.59.3.75.3.75.3.91.91.59,1.5,0,0,0,.16-.16.45,0-.3-.3-.45-.45-.59,0,0,0-.3-.16-.45-.3-.45-1.05-.59-1.5-.91-.3,0-.75,0-1.05.16-.3,0-.59.16-.91.3l-.3-.16.05.05Z"/>
    <path class="cls-1" d="M2.52,18.03h.3c.59,0,1.36.16,1.96.3.3,0,.59,0,.91.3.45.3.91.59,1.5.45.59.3,1.2,0,1.8,0h.16c.45.16.75.45,1.2.75h-2.41c-.3,0-.75,0-1.05.3l-.3.16c-.3.16-.59.3-1.05.45,0,0-.3-.3-.59-.45.3,0,.59-.3,1.05-.45-.3-.3-.59-.45-.75-.59-.45-.16-.91-.3-1.36-.45s-1.05-.45-1.5-.59v-.16h.16-.02Z"/>
    <path class="cls-1" d="M38.01,5.71c-.45,0-.75-.3-.91-.59-.3-.59-.75-1.05-1.05-1.66.59.16,1.2.45,1.66,1.05,0,.16.3.45.59.59.16,0,.3.3.59,0h.3c.59.3,1.36,0,1.96.16h.45c-.59.59-1.2.75-1.96.45-.3,0-.75,0-.75.59-.91.3-1.36.3-1.5-.3.3,0,.59-.3.91-.45h0l-.3.16h0Z"/>
    <path class="cls-1" d="M39.96,1.8c0-.3,0-.59-.16-.91-.16-.16-.16-.45-.3-.75.75,0,1.2.59,1.2,1.2v.75c.3,0,.59,0,.75.45-.59,0-.91.45-1.36.59v.16c0,.3-.16.3-.59.16.16-.3.3-.59.45-.91-.3-.16-.75-.3-.75-.75,0,0-.16,0-.3-.16-.3-.3-.75-.45-1.05-.75h0c.3.16.75.3,1.05.45s.59.45,1.05.59v-.16.02Z"/>
    <path class="cls-1" d="M44.76,2.25s.3,0,.45-.16c-.45-.45-1.2-.45-1.66-.91.59,0,1.05,0,1.66.3.3.3.75.16,1.2.16s.59,0,.91.45h-.3c-.59,0-1.2,0-1.8.3h-.45v-.16l-.02.02Z"/>
  </g>
</svg>