<?xml version="1.0" encoding="UTF-8"?>
<svg id="Layer_2" data-name="Layer 2" xmlns="http://www.w3.org/2000/svg" viewBox="0 0 178.09 38.57">
  <defs>
    <style>
      .cls-1 {
        fill: #fff;
        stroke-width: 0px;
      }
    </style>
  </defs>
  <g id="Layer_1-2" data-name="Layer 1">
    <g>
      <path class="cls-1" d="m76.6,16.56c.66-.7,1.13-1.23,1.63-1.74,2.19-2.23,4.92-2.75,7.91-2.49,2.5.22,4.29,1.47,5.49,3.62.09.16.19.3.54.65.15-.25.25-.55.45-.76,1.31-1.39,2.66-2.77,4.61-3.22,2.92-.67,5.77-.67,8.21,1.42,1.8,1.53,2.49,3.65,2.57,5.89.15,4.04.12,8.08.15,12.12.01,1.63,0,3.26,0,4.89,0,.79-.24,1.04-1.02,1.05-2.27.01-4.55.01-6.82,0-.8,0-1.03-.26-1.04-1.11,0-4.46,0-8.91,0-13.37,0-1.06-.2-2.06-.95-2.87-1.38-1.49-3.95-1.13-4.91.68-.53,1-.71,2.07-.71,3.19-.02,4.02-.03,8.04-.05,12.06,0,1.18-.24,1.42-1.4,1.42-2.04,0-4.09,0-6.13,0-1.09,0-1.31-.21-1.31-1.27,0-4.18,0-8.36,0-12.54,0-.62-.03-1.24-.11-1.85-.18-1.4-1.13-2.38-2.46-2.6-1.25-.2-2.7.54-3.3,1.66-.67,1.24-.76,2.58-.77,3.94-.02,3.79,0,7.58,0,11.37,0,1.07-.23,1.29-1.29,1.29-2.07,0-4.13,0-6.2,0-1.16,0-1.35-.21-1.35-1.37,0-7.74,0-15.48,0-23.22,0-.83.27-1.14,1.09-1.15,2-.01,4-.01,5.99,0,.84,0,1.18.38,1.19,1.25,0,.95,0,1.9,0,3.04Z"/>
      <path class="cls-1" d="m129.67,34.94c-.97.7-1.8,1.4-2.72,1.93-2.51,1.45-5.28,1.76-8.12,1.64-1.81-.08-3.53-.45-5.12-1.42-3.75-2.28-4.38-7.85-1.15-10.81,1.47-1.34,3.37-1.83,5.26-2.24,2.55-.56,5.12-1.07,7.66-1.67,1.07-.25,2.1-.67,3.15-.99.39-.12.53-.34.49-.76-.15-1.67-.71-2.45-2.37-2.6-1.25-.11-2.56.06-3.81.27-.93.16-1.62.82-2.06,1.69-.31.63-.82.87-1.53.79-2.23-.25-4.47-.47-6.7-.72-1.11-.12-1.34-.5-1.01-1.56.95-3.06,3.15-4.76,6.15-5.52,3.4-.87,6.87-.83,10.34-.6,1.37.09,2.75.22,4.09.53,3.48.8,5.48,3.08,6.14,6.55.16.83.24,1.68.25,2.53.03,3.95,0,7.9.06,11.85.01.9.26,1.81.53,2.67.33,1.07.1,1.48-1.02,1.48-2,0-4,0-6,0-1.4,0-1.99-.48-2.26-1.87-.07-.38-.15-.75-.23-1.2Zm-.68-8.9c-1.9.54-3.75,1.03-5.59,1.59-.69.21-1.38.5-2.01.87-.97.57-1.4,1.63-1.19,2.65.21,1.05,1.06,1.81,2.19,2,1.4.23,2.73,0,4-.63,2.2-1.1,3.46-4.19,2.6-6.48Z"/>
      <path class="cls-1" d="m17.15,34.06c-.82.78-1.54,1.48-2.27,2.16-2.88,2.68-8.23,3.14-11.49.98-1.98-1.31-2.84-3.3-3.2-5.55-.12-.74-.17-1.51-.17-2.26C0,24.17,0,18.96,0,13.74c0-1.31.18-1.48,1.47-1.48,2.14,0,4.27,0,6.41,0,1.15,0,1.33.2,1.33,1.32,0,4.14,0,8.27.02,12.41,0,.66.04,1.33.11,1.99.14,1.53,1,2.67,2.19,2.95,1.75.41,3.33-.16,4.15-1.55.73-1.23.86-2.61.87-3.99.03-3.95.01-7.9.01-11.85,0-1.01.23-1.26,1.26-1.27,2.27-.01,4.55,0,6.82,0,.82,0,1.11.28,1.15,1.13.03.66.02,1.33.02,2,0,6.89,0,13.78,0,20.68,0,1.83-.12,1.94-1.96,1.94-1.79,0-3.58,0-5.38,0-.94,0-1.3-.33-1.32-1.27-.02-.87,0-1.74,0-2.69Z"/>
      <path class="cls-1" d="m37.22,16.83c.42-.47.76-.82,1.09-1.2,2.62-3.03,5.98-3.85,9.78-3.14,2.97.56,5.06,2.83,5.62,5.97.19,1.06.3,2.14.3,3.21.03,4.96.02,9.92.02,14.88,0,1.23-.25,1.46-1.51,1.46-2.11,0-4.23,0-6.34,0-.95,0-1.24-.27-1.24-1.21,0-4.16,0-8.31,0-12.47,0-.71-.08-1.42-.21-2.12-.25-1.31-1-2.18-2.38-2.41-1.49-.25-2.74.15-3.61,1.43-.79,1.15-.94,2.49-.96,3.82-.04,3.79-.02,7.58-.02,11.37,0,1.24-.35,1.6-1.58,1.6-2.07,0-4.13,0-6.2,0-1.1,0-1.33-.24-1.33-1.34,0-7.56,0-15.11,0-22.67,0-.28,0-.55.03-.82.08-.54.38-.9.95-.9,2.18-.01,4.36-.01,6.54,0,.67,0,.91.45.92,1.05.03.94.03,1.88.05,2.82,0,.17.04.35.07.68Z"/>
      <path class="cls-1" d="m164.32,25.73c0-1.91-.01-3.81,0-5.72,0-.56-.18-.78-.76-.74-.57.04-1.15,0-1.72.01-.52.01-.78-.24-.79-.74-.01-1.86,0-3.72,0-5.58,0-.44.25-.68.69-.68.6,0,1.19-.04,1.79-.01.57.02.82-.17.8-.79-.04-1.28,0-2.57-.02-3.86,0-.59.25-.95.75-1.19,2.27-1.1,4.54-2.2,6.82-3.29.77-.37,1.05-.19,1.06.67,0,2.55.02,5.1-.01,7.65,0,.65.22.84.83.82,1.12-.03,2.25-.02,3.38,0,.81.01.94.14.94.92,0,1.75-.01,3.49,0,5.24,0,.63-.29.86-.88.85-1.22-.01-2.43,0-3.65-.01-.43,0-.61.12-.61.58.02,3.22-.01,6.43.03,9.65.03,1.95.85,2.57,2.79,2.2,1.65-.31,1.67-.32,1.86,1.35.14,1.25.21,2.52.35,3.77.08.68-.19,1.07-.84,1.18-2.52.44-5.04.77-7.6.35-2.81-.47-4.58-2.2-4.89-5.06-.27-2.5-.31-5.03-.46-7.55.04,0,.09,0,.13,0Z"/>
      <path class="cls-1" d="m149.87,16.6c.44-.72.84-1.45,1.31-2.15,1.3-1.92,3.17-2.48,5.36-2.06.76.15,1.48.46,2.21.74.49.19.7.54.48,1.1-.7,1.74-1.36,3.5-2.05,5.25-.2.52-.54.77-1.13.52-2.55-1.05-4.26.23-4.98,2.62-.66,2.18-.74,4.43-.78,6.67-.04,2.55,0,5.1,0,7.65,0,.94-.14,1.07-1.08,1.07-2.14,0-4.27,0-6.41,0-.74,0-1.05-.29-1.1-1.01-.03-.41-.04-.83-.04-1.24,0-7.35,0-14.69,0-22.04,0-1.32.14-1.45,1.46-1.45,1.72,0,3.44,0,5.17,0,1.22,0,1.43.21,1.43,1.45,0,.95,0,1.91,0,2.86.06,0,.12.02.18.03Z"/>
      <path class="cls-1" d="m56.84,25.18c0-3.86,0-7.72,0-11.58,0-1.02.35-1.37,1.36-1.36,1.98.01,3.95.02,5.93.03,1.14,0,1.37.22,1.37,1.38,0,7.7,0,15.39-.01,23.09,0,1.06-.24,1.28-1.31,1.28-2.04,0-4.09,0-6.13,0-.91,0-1.19-.27-1.19-1.2,0-3.88,0-7.76,0-11.65Z"/>
      <path class="cls-1" d="m61.12,9.65c-2.69-.03-4.83-2.2-4.82-4.89C56.31,2.13,58.5-.02,61.17,0c2.77.02,4.87,2.15,4.84,4.91-.03,2.67-2.2,4.77-4.88,4.74Z"/>
    </g>
  </g>
</svg>