<?xml version="1.0" encoding="UTF-8"?>
<svg id="Layer_2" data-name="Layer 2" xmlns="http://www.w3.org/2000/svg" xmlns:xlink="http://www.w3.org/1999/xlink" viewBox="0 0 154.29 159.44">
  <defs>
    <style>
      .cls-1 {
        fill: none;
      }

      .cls-1, .cls-2, .cls-3, .cls-4 {
        stroke-width: 0px;
      }

      .cls-2 {
        fill: url(#Degradado_sin_nombre_7);
        opacity: .35;
      }

      .cls-3 {
        fill: url(#Degradado_sin_nombre_8);
        opacity: .32;
      }

      .cls-5 {
        clip-path: url(#clippath);
      }

      .cls-4 {
        fill: #fff;
        fill-rule: evenodd;
        opacity: .31;
      }
    </style>
    <radialGradient id="Degradado_sin_nombre_7" data-name="Degradado sin nombre 7" cx="76.22" cy="77.68" fx="76.22" fy="77.68" r="114.24" gradientUnits="userSpaceOnUse">
      <stop offset="0" stop-color="#fff" stop-opacity="0"/>
      <stop offset=".37" stop-color="rgba(255, 255, 255, 0)" stop-opacity="0"/>
      <stop offset=".51" stop-color="rgba(255, 255, 255, .03)" stop-opacity=".03"/>
      <stop offset=".6" stop-color="rgba(255, 255, 255, .08)" stop-opacity=".08"/>
      <stop offset=".68" stop-color="rgba(255, 255, 255, .15)" stop-opacity=".15"/>
      <stop offset=".75" stop-color="rgba(255, 255, 255, .23)" stop-opacity=".23"/>
      <stop offset=".8" stop-color="rgba(255, 255, 255, .34)" stop-opacity=".34"/>
      <stop offset=".86" stop-color="rgba(255, 255, 255, .47)" stop-opacity=".47"/>
      <stop offset=".91" stop-color="rgba(255, 255, 255, .61)" stop-opacity=".61"/>
      <stop offset=".95" stop-color="rgba(255, 255, 255, .78)" stop-opacity=".78"/>
      <stop offset=".99" stop-color="rgba(255, 255, 255, .96)" stop-opacity=".96"/>
      <stop offset="1" stop-color="#fff"/>
    </radialGradient>
    <radialGradient id="Degradado_sin_nombre_8" data-name="Degradado sin nombre 8" cx="126.62" cy="-7.69" fx="126.62" fy="-7.69" r="153.95" gradientUnits="userSpaceOnUse">
      <stop offset="0" stop-color="#fff"/>
      <stop offset=".07" stop-color="rgba(255, 255, 255, .89)" stop-opacity=".89"/>
      <stop offset=".27" stop-color="rgba(255, 255, 255, .63)" stop-opacity=".63"/>
      <stop offset=".46" stop-color="rgba(255, 255, 255, .4)" stop-opacity=".4"/>
      <stop offset=".63" stop-color="rgba(255, 255, 255, .23)" stop-opacity=".23"/>
      <stop offset=".78" stop-color="rgba(255, 255, 255, .1)" stop-opacity=".1"/>
      <stop offset=".91" stop-color="rgba(255, 255, 255, .03)" stop-opacity=".03"/>
      <stop offset="1" stop-color="#fff" stop-opacity="0"/>
    </radialGradient>
    <clipPath id="clippath">
      <rect class="cls-1" x="24.29" y="27.24" width="104.02" height="104.02"/>
    </clipPath>
  </defs>
  <g id="Layer_12" data-name="Layer 12">
    <g id="Web_Design" data-name="Web Design">
      <g>
        <g>
          <rect class="cls-2" width="154.29" height="159.44" rx="27.94" ry="27.94"/>
          <rect class="cls-3" width="154.29" height="159.44" rx="27.94" ry="27.94"/>
        </g>
        <g class="cls-5">
          <path class="cls-4" d="M128.31,58.68H24.29v59.27c0,3.53,1.4,6.91,3.89,9.41,2.5,2.49,5.88,3.89,9.41,3.89h77.41c3.53,0,6.91-1.4,9.41-3.89,2.49-2.5,3.89-5.88,3.89-9.41v-59.27ZM113.8,108.28c0-1.6-.64-3.14-1.77-4.28-1.14-1.13-2.67-1.77-4.28-1.77h-62.9c-1.61,0-3.14.64-4.28,1.77-1.13,1.14-1.77,2.68-1.77,4.28v4.84c0,1.6.64,3.14,1.77,4.28,1.14,1.13,2.67,1.77,4.28,1.77h62.9c1.61,0,3.14-.64,4.28-1.77,1.13-1.14,1.77-2.68,1.77-4.28v-4.84ZM81.14,97.39h29.03c2,0,3.63-1.63,3.63-3.63s-1.63-3.63-3.63-3.63h-29.03c-2,0-3.63,1.63-3.63,3.63s1.63,3.63,3.63,3.63h0ZM72.68,88.92v-12.1c0-4.67-3.79-8.47-8.47-8.47h-16.93c-4.68,0-8.47,3.79-8.47,8.47v12.1c0,4.67,3.79,8.47,8.47,8.47h16.93c4.68,0,8.47-3.79,8.47-8.47h0ZM81.14,86.5h29.03c2,0,3.63-1.63,3.63-3.63s-1.63-3.63-3.63-3.63h-29.03c-2,0-3.63,1.63-3.63,3.63s1.63,3.63,3.63,3.63h0ZM81.14,75.62h29.03c2,0,3.63-1.63,3.63-3.63s-1.63-3.63-3.63-3.63h-29.03c-2,0-3.63,1.63-3.63,3.63s1.63,3.63,3.63,3.63h0ZM24.29,51.43h104.02v-10.89c0-3.53-1.4-6.91-3.89-9.41-2.5-2.49-5.88-3.89-9.41-3.89H37.6c-3.53,0-6.91,1.4-9.41,3.89-2.49,2.5-3.89,5.88-3.89,9.41v10.89ZM40.02,44.17h4.84c2,0,3.63-1.63,3.63-3.63s-1.63-3.63-3.63-3.63h-4.84c-2,0-3.63,1.63-3.63,3.63s1.63,3.63,3.63,3.63h0ZM73.88,44.17h4.84c2,0,3.63-1.63,3.63-3.63s-1.63-3.63-3.63-3.63h-4.84c-2,0-3.63,1.63-3.63,3.63s1.63,3.63,3.63,3.63h0ZM56.95,44.17h4.84c2,0,3.63-1.63,3.63-3.63s-1.63-3.63-3.63-3.63h-4.84c-2,0-3.63,1.63-3.63,3.63s1.63,3.63,3.63,3.63h0Z"/>
        </g>
      </g>
    </g>
  </g>
</svg>